M48
;GenerationSoftware,Autodesk,EAGLE,9.6.2*%
;CreationDate,2021-02-01T18:48:08Z*%
FMAT,2
ICI,OFF
METRIC,TZ,000.000
T11C0.500
T10C0.700
T9C0.813
T8C1.016
T7C1.400
T6C1.422
T5C1.600
T4C1.700
T3C1.800
T2C2.000
%
G90
M71
T2
X59621Y8486
X66921Y8486
T3
X59428Y73808
T4
X46596Y77390
X21050Y70390
X33823Y70390
X33823Y77390
X46596Y70390
X21050Y77390
T5
X59428Y78308
T6
X34070Y12916
X16570Y12916
X20070Y12916
X30570Y12916
X27070Y12916
X23570Y12916
T7
X73509Y59687
X76049Y62227
X70969Y62227
X70969Y57147
X76049Y57147
T8
X49386Y17849
X49386Y20389
X51926Y17849
X44306Y17849
X51926Y20389
X54466Y17849
X54466Y20389
X57006Y17849
X57006Y20389
X59546Y17849
X59546Y20389
X62086Y17849
X62086Y20389
X64626Y17849
X64626Y20389
X10203Y43025
X10203Y45565
X10203Y48105
X11412Y35268
X13952Y35268
X46846Y17849
X23242Y30632
X10229Y63391
X10229Y60851
X10229Y58311
X10229Y55771
X10229Y53231
X10229Y50691
X46846Y20389
X20702Y30632
X36686Y17849
X36686Y20389
X39226Y17849
X39226Y20389
X41766Y17849
X41766Y20389
X44306Y20389
T9
X66294Y29210
X53552Y32632
X68887Y52468
X66294Y26670
X26895Y61488
X16735Y61488
X39691Y61488
X29531Y61488
X52316Y61488
X42156Y61488
T10
X61671Y13636
X64071Y12336
X63271Y13636
X62471Y12336
X64871Y13636
T11
X50825Y29499
X18465Y34406
X52214Y29844
X60781Y19119
X57167Y22143
X37841Y27164
X41247Y35227
X38478Y35195
X57408Y36737
X51062Y34644
X26981Y24586
X23665Y23911
X19126Y28500
X26201Y41056
X58501Y38767
X55084Y14100
X54974Y7241
X9019Y31863
X41549Y38289
X26967Y41823
X24173Y42405
X20367Y43538
X53809Y14305
X53521Y7374
X9968Y30656
X14443Y52109
X41549Y37205
X30686Y44079
X34268Y50506
X40812Y53070
X31455Y50868
X37730Y54372
X27590Y76088
X40650Y76013
X47555Y75112
X60465Y68952
X60901Y63293
X68273Y72177
X39505Y65426
X26419Y65115
X17660Y58670
X65255Y24449
X31230Y44944
X62393Y23108
X66292Y25187
X18088Y35600
X18129Y29498
X24821Y23051
X28065Y23502
X51856Y33812
X58633Y36001
X38715Y34050
X41096Y34050
X64064Y22660
X58959Y31346
X39195Y30186
X44030Y32502
X45271Y25233
X49801Y36615
X26954Y27676
X30778Y22002
X49979Y32925
X32031Y29215
X21344Y40471
X42563Y30035
X39077Y27258
X39129Y24335
X62502Y31233
X42716Y25229
X45131Y32502
X47391Y41432
X32998Y30135
X22154Y39625
X44097Y30035
X40267Y27448
X41775Y24314
X59546Y41155
X58692Y48011
X59698Y46678
X51767Y26710
X50761Y26203
X56446Y39835
X21221Y44485
X30994Y27228
X19397Y41574
X47185Y29874
X42616Y27785
X34152Y24110
X31145Y28332
X20492Y41297
X45630Y30035
X41423Y27891
X34660Y25137
X46688Y45441
X47433Y46937
X25350Y42752
X28983Y41369
X32695Y43546
X38487Y38716
X40959Y40122
X48235Y42209
X44520Y41319
X43160Y31794
X40278Y30637
X45134Y22972
X46688Y50644
X40275Y47320
X42965Y46940
X43898Y40306
X62443Y46106
X63735Y46213
X63264Y44436
X38253Y49566
X56855Y8250
X51121Y8614
X34976Y33106
X13220Y46795
X16404Y50507
X14168Y44133
X43928Y38836
X61075Y46116
X44844Y51255
X43065Y39611
X36619Y41294
X37670Y29611
X31160Y23235
X31166Y24459
X60514Y44668
X60447Y43349
X60470Y42008
X62123Y41718
X18876Y20294
X12656Y7718
X22819Y32613
X25962Y21067
X24846Y41225
X26956Y50248
X16652Y45994
X13034Y41604
X13680Y38632
X15803Y39682
X15961Y33570
X11354Y27513
X62034Y43014
X22324Y20085
X24871Y17162
X31711Y15714
X33855Y19633
X33818Y21682
X42013Y8563
X37420Y23788
X37762Y22702
X47541Y39301
X51753Y32367
X63935Y8549
X63211Y27029
X60715Y28519
X59989Y24376
X61061Y24389
X22164Y42643
X56361Y26449
X54195Y23341
X58282Y11061
X68879Y10667
X63266Y7529
X62522Y8500
X63917Y26043
X45951Y12143
X48704Y12208
X47360Y12427
X22964Y41902
X34487Y35613
X24842Y33779
X10889Y38493
X15493Y46012
X19878Y33755
X19577Y34864
X69314Y55574
X62101Y44221
X66141Y37264
X76205Y59726
X77127Y64800
X74903Y64691
X73520Y63172
X71378Y64772
X68638Y63850
X68747Y61110
X68720Y57990
X50129Y7928
X72083Y55060
X73710Y56660
X74713Y55141
X58276Y55960
X64042Y57665
X61120Y57182
X46794Y52612
X47950Y54237
X50460Y54398
X66168Y38500
X53188Y21747
X52723Y22967
X47080Y26171
X33705Y28752
X31854Y25520
X30537Y20341
X28595Y19421
X15851Y29217
X70121Y48479
X70487Y52324
X38398Y45628
X61891Y52781
X28639Y45396
X58246Y23215
X24894Y50071
X25743Y49592
X15627Y42346
X14855Y43025
X56878Y14394
X52676Y14112
X51419Y14351
X59285Y14120
X65591Y12316
X34404Y29772
X37977Y11478
X29408Y38016
X34273Y41394
X18808Y55655
X23421Y55731
X27856Y55680
X32571Y55705
X41888Y54098
X52387Y65118
X46166Y26888
X65629Y16032
X27261Y26364
X13192Y49129
X24162Y26979
X12099Y42439
X12862Y44301
X15422Y47145
X23785Y44404
X40859Y55369
X45370Y59880
X17665Y52399
X43673Y51665
X48558Y32414
X48688Y35874
X44695Y35698
X42264Y36163
X38323Y40470
X38794Y36460
X37941Y37046
X27691Y29876
X33778Y32821
X34862Y36779
X41654Y42534
X40525Y23018
X25941Y28810
X56017Y46195
X57090Y45444
X57034Y46811
X52739Y52560
X48198Y48623
X48241Y43598
X44685Y52775
X52342Y7909
X44273Y8557
X16405Y17819
X64312Y16084
X12403Y14951
X17745Y42010
X17967Y39130
X23388Y45684
X23176Y47843
X18448Y49286
X66063Y23421
X24670Y32766
X23581Y40617
X26954Y48674
X36515Y9028
X39461Y11923
X36572Y10520
X38409Y15711
X38282Y48217
X46386Y39488
X59562Y37280
X60994Y37029
X64033Y31379
X63882Y30576
M30