G04 EAGLE Gerber RS-274X export*
G75*
%MOMM*%
%FSLAX34Y34*%
%LPD*%
%IN*%
%IPPOS*%
%AMOC8*
5,1,8,0,0,1.08239X$1,22.5*%
G01*
%ADD10C,0.254000*%


D10*
X75119Y132348D02*
X78176Y132348D01*
X81165Y132217D01*
X84132Y131827D01*
X87053Y131179D01*
X89907Y130279D01*
X92672Y129134D01*
X95326Y127753D01*
X97850Y126145D01*
X100224Y124324D01*
X102430Y122302D01*
X104452Y120096D01*
X106273Y117722D01*
X107881Y115198D01*
X109263Y112544D01*
X110408Y109780D01*
X111308Y106926D01*
X111956Y104004D01*
X112346Y101038D01*
X112477Y98048D01*
X112477Y72851D01*
X112515Y71979D01*
X112629Y71114D01*
X112817Y70262D01*
X113080Y69430D01*
X113413Y68623D01*
X113816Y67849D01*
X114285Y67113D01*
X114816Y66421D01*
X115405Y65777D01*
X116049Y65188D01*
X116741Y64656D01*
X117477Y64187D01*
X118251Y63784D01*
X119057Y63450D01*
X119889Y63188D01*
X120741Y62999D01*
X121606Y62885D01*
X122478Y62846D01*
X703874Y62846D01*
X704746Y62885D01*
X705611Y62999D01*
X706463Y63188D01*
X707295Y63450D01*
X708101Y63784D01*
X708875Y64187D01*
X709611Y64656D01*
X710303Y65188D01*
X710947Y65777D01*
X711536Y66421D01*
X712067Y67113D01*
X712536Y67849D01*
X712939Y68623D01*
X713272Y69430D01*
X713535Y70262D01*
X713723Y71114D01*
X713837Y71979D01*
X713875Y72851D01*
X713875Y98048D01*
X714006Y101038D01*
X714396Y104004D01*
X715044Y106926D01*
X715944Y109779D01*
X717089Y112544D01*
X718470Y115198D01*
X720078Y117722D01*
X721900Y120096D01*
X723921Y122302D01*
X726127Y124323D01*
X728501Y126145D01*
X731025Y127752D01*
X733679Y129134D01*
X736443Y130279D01*
X739297Y131179D01*
X742219Y131827D01*
X745185Y132217D01*
X748175Y132348D01*
X773372Y132348D01*
X774243Y132386D01*
X775108Y132499D01*
X775960Y132688D01*
X776792Y132950D01*
X777598Y133284D01*
X778372Y133687D01*
X779108Y134155D01*
X779800Y134686D01*
X780443Y135275D01*
X781033Y135918D01*
X781564Y136610D01*
X782033Y137346D01*
X782435Y138120D01*
X782769Y138925D01*
X783032Y139757D01*
X783221Y140609D01*
X783335Y141474D01*
X783373Y142345D01*
X783373Y723745D01*
X783335Y724616D01*
X783221Y725481D01*
X783032Y726333D01*
X782769Y727165D01*
X782435Y727971D01*
X782033Y728744D01*
X781564Y729480D01*
X781033Y730172D01*
X780443Y730815D01*
X779800Y731404D01*
X779108Y731935D01*
X778372Y732404D01*
X777598Y732806D01*
X776792Y733140D01*
X775960Y733402D01*
X775108Y733591D01*
X774243Y733705D01*
X773372Y733743D01*
X748175Y733743D01*
X745185Y733873D01*
X742218Y734264D01*
X739297Y734912D01*
X736443Y735812D01*
X733678Y736957D01*
X731024Y738339D01*
X728501Y739947D01*
X726127Y741769D01*
X723921Y743790D01*
X721899Y745997D01*
X720077Y748371D01*
X718470Y750895D01*
X717088Y753549D01*
X715943Y756314D01*
X715043Y759167D01*
X714396Y762089D01*
X714006Y765056D01*
X713875Y768045D01*
X713875Y793243D01*
X713837Y794114D01*
X713723Y794979D01*
X713534Y795831D01*
X713272Y796663D01*
X712938Y797469D01*
X712535Y798243D01*
X712066Y798979D01*
X711535Y799671D01*
X710946Y800315D01*
X710303Y800904D01*
X709610Y801435D01*
X708875Y801904D01*
X708101Y802307D01*
X707295Y802641D01*
X706463Y802903D01*
X705611Y803092D01*
X704746Y803206D01*
X703874Y803244D01*
X122478Y803244D01*
X121606Y803206D01*
X120741Y803092D01*
X119890Y802903D01*
X119057Y802641D01*
X118251Y802307D01*
X117478Y801904D01*
X116742Y801435D01*
X116049Y800904D01*
X115406Y800315D01*
X114817Y799671D01*
X114286Y798979D01*
X113817Y798243D01*
X113414Y797469D01*
X113080Y796663D01*
X112818Y795831D01*
X112629Y794979D01*
X112515Y794114D01*
X112477Y793243D01*
X112477Y768045D01*
X112347Y765056D01*
X111956Y762089D01*
X111308Y759167D01*
X110409Y756313D01*
X109263Y753549D01*
X107882Y750894D01*
X106274Y748370D01*
X104452Y745996D01*
X102431Y743790D01*
X100225Y741768D01*
X97851Y739946D01*
X95327Y738339D01*
X92672Y736957D01*
X89908Y735811D01*
X87054Y734912D01*
X84132Y734264D01*
X81165Y733873D01*
X78176Y733743D01*
X75119Y733743D01*
X73787Y732289D01*
X72586Y730724D01*
X71527Y729061D01*
X70616Y727312D01*
X69861Y725490D01*
X69268Y723609D01*
X68842Y721684D01*
X68584Y719729D01*
X68498Y717759D01*
X68584Y715789D01*
X68842Y713833D01*
X69268Y711908D01*
X69861Y710027D01*
X70616Y708206D01*
X71527Y706456D01*
X72586Y704793D01*
X73787Y703229D01*
X75119Y701775D01*
X75119Y164825D01*
X73765Y163348D01*
X72546Y161759D01*
X71469Y160069D01*
X70544Y158292D01*
X69778Y156441D01*
X69175Y154530D01*
X68742Y152574D01*
X68480Y150588D01*
X68393Y148587D01*
X68480Y146585D01*
X68741Y144599D01*
X69175Y142643D01*
X69778Y140732D01*
X70544Y138881D01*
X71469Y137104D01*
X72546Y135414D01*
X73765Y133825D01*
X75119Y132348D01*
X129232Y182521D02*
X129232Y183572D01*
X129163Y184621D01*
X129026Y185663D01*
X128821Y186693D01*
X128549Y187709D01*
X128211Y188704D01*
X127808Y189675D01*
X127344Y190618D01*
X126818Y191528D01*
X126234Y192402D01*
X125594Y193235D01*
X124901Y194026D01*
X124158Y194769D01*
X123368Y195462D01*
X122534Y196102D01*
X121660Y196686D01*
X120750Y197211D01*
X119808Y197676D01*
X118836Y198078D01*
X117841Y198416D01*
X116826Y198688D01*
X115795Y198893D01*
X114753Y199030D01*
X113704Y199099D01*
X112653Y199099D01*
X111605Y199030D01*
X110563Y198893D01*
X109532Y198688D01*
X108517Y198416D01*
X107521Y198078D01*
X106550Y197676D01*
X105608Y197211D01*
X104698Y196686D01*
X103824Y196102D01*
X102990Y195462D01*
X102200Y194769D01*
X101456Y194026D01*
X100764Y193235D01*
X100124Y192402D01*
X99540Y191528D01*
X99014Y190618D01*
X98549Y189675D01*
X98147Y188704D01*
X97809Y187709D01*
X97537Y186693D01*
X97332Y185663D01*
X97195Y184621D01*
X97126Y183572D01*
X97126Y182521D01*
X97195Y181472D01*
X97332Y180430D01*
X97537Y179399D01*
X97809Y178384D01*
X98147Y177389D01*
X98549Y176418D01*
X99014Y175475D01*
X99540Y174565D01*
X100124Y173691D01*
X100764Y172857D01*
X101456Y172067D01*
X102200Y171324D01*
X102990Y170631D01*
X103824Y169991D01*
X104698Y169407D01*
X105608Y168882D01*
X106550Y168417D01*
X107521Y168015D01*
X108517Y167677D01*
X109532Y167405D01*
X110563Y167200D01*
X111605Y167063D01*
X112653Y166994D01*
X113704Y166994D01*
X114753Y167063D01*
X115795Y167200D01*
X116826Y167405D01*
X117841Y167677D01*
X118836Y168015D01*
X119808Y168417D01*
X120750Y168882D01*
X121660Y169407D01*
X122534Y169991D01*
X123368Y170631D01*
X124158Y171324D01*
X124901Y172067D01*
X125594Y172857D01*
X126234Y173691D01*
X126818Y174565D01*
X127344Y175475D01*
X127808Y176418D01*
X128211Y177389D01*
X128549Y178384D01*
X128821Y179399D01*
X129026Y180430D01*
X129163Y181472D01*
X129232Y182521D01*
X129232Y682521D02*
X129232Y683572D01*
X129163Y684621D01*
X129026Y685663D01*
X128821Y686693D01*
X128549Y687709D01*
X128211Y688704D01*
X127808Y689675D01*
X127344Y690618D01*
X126818Y691528D01*
X126234Y692402D01*
X125594Y693235D01*
X124901Y694026D01*
X124158Y694769D01*
X123368Y695462D01*
X122534Y696102D01*
X121660Y696686D01*
X120750Y697211D01*
X119808Y697676D01*
X118836Y698078D01*
X117841Y698416D01*
X116826Y698688D01*
X115795Y698893D01*
X114753Y699030D01*
X113704Y699099D01*
X112653Y699099D01*
X111605Y699030D01*
X110563Y698893D01*
X109532Y698688D01*
X108517Y698416D01*
X107521Y698078D01*
X106550Y697676D01*
X105608Y697211D01*
X104698Y696686D01*
X103824Y696102D01*
X102990Y695462D01*
X102200Y694769D01*
X101456Y694026D01*
X100764Y693235D01*
X100124Y692402D01*
X99540Y691528D01*
X99014Y690618D01*
X98549Y689675D01*
X98147Y688704D01*
X97809Y687709D01*
X97537Y686693D01*
X97332Y685663D01*
X97195Y684621D01*
X97126Y683572D01*
X97126Y682521D01*
X97195Y681472D01*
X97332Y680430D01*
X97537Y679399D01*
X97809Y678384D01*
X98147Y677389D01*
X98549Y676418D01*
X99014Y675475D01*
X99540Y674565D01*
X100124Y673691D01*
X100764Y672857D01*
X101456Y672067D01*
X102200Y671324D01*
X102990Y670631D01*
X103824Y669991D01*
X104698Y669407D01*
X105608Y668882D01*
X106550Y668417D01*
X107521Y668015D01*
X108517Y667677D01*
X109532Y667405D01*
X110563Y667200D01*
X111605Y667063D01*
X112653Y666994D01*
X113704Y666994D01*
X114753Y667063D01*
X115795Y667200D01*
X116826Y667405D01*
X117841Y667677D01*
X118836Y668015D01*
X119808Y668417D01*
X120750Y668882D01*
X121660Y669407D01*
X122534Y669991D01*
X123368Y670631D01*
X124158Y671324D01*
X124901Y672067D01*
X125594Y672857D01*
X126234Y673691D01*
X126818Y674565D01*
X127344Y675475D01*
X127808Y676418D01*
X128211Y677389D01*
X128549Y678384D01*
X128821Y679399D01*
X129026Y680430D01*
X129163Y681472D01*
X129232Y682521D01*
X729232Y682521D02*
X729232Y683572D01*
X729163Y684621D01*
X729026Y685663D01*
X728821Y686693D01*
X728549Y687709D01*
X728211Y688704D01*
X727808Y689675D01*
X727344Y690618D01*
X726818Y691528D01*
X726234Y692402D01*
X725594Y693235D01*
X724901Y694026D01*
X724158Y694769D01*
X723368Y695462D01*
X722534Y696102D01*
X721660Y696686D01*
X720750Y697211D01*
X719808Y697676D01*
X718836Y698078D01*
X717841Y698416D01*
X716826Y698688D01*
X715795Y698893D01*
X714753Y699030D01*
X713704Y699099D01*
X712653Y699099D01*
X711605Y699030D01*
X710563Y698893D01*
X709532Y698688D01*
X708517Y698416D01*
X707521Y698078D01*
X706550Y697676D01*
X705608Y697211D01*
X704698Y696686D01*
X703824Y696102D01*
X702990Y695462D01*
X702200Y694769D01*
X701456Y694026D01*
X700764Y693235D01*
X700124Y692402D01*
X699540Y691528D01*
X699014Y690618D01*
X698549Y689675D01*
X698147Y688704D01*
X697809Y687709D01*
X697537Y686693D01*
X697332Y685663D01*
X697195Y684621D01*
X697126Y683572D01*
X697126Y682521D01*
X697195Y681472D01*
X697332Y680430D01*
X697537Y679399D01*
X697809Y678384D01*
X698147Y677389D01*
X698549Y676418D01*
X699014Y675475D01*
X699540Y674565D01*
X700124Y673691D01*
X700764Y672857D01*
X701456Y672067D01*
X702200Y671324D01*
X702990Y670631D01*
X703824Y669991D01*
X704698Y669407D01*
X705608Y668882D01*
X706550Y668417D01*
X707521Y668015D01*
X708517Y667677D01*
X709532Y667405D01*
X710563Y667200D01*
X711605Y667063D01*
X712653Y666994D01*
X713704Y666994D01*
X714753Y667063D01*
X715795Y667200D01*
X716826Y667405D01*
X717841Y667677D01*
X718836Y668015D01*
X719808Y668417D01*
X720750Y668882D01*
X721660Y669407D01*
X722534Y669991D01*
X723368Y670631D01*
X724158Y671324D01*
X724901Y672067D01*
X725594Y672857D01*
X726234Y673691D01*
X726818Y674565D01*
X727344Y675475D01*
X727808Y676418D01*
X728211Y677389D01*
X728549Y678384D01*
X728821Y679399D01*
X729026Y680430D01*
X729163Y681472D01*
X729232Y682521D01*
X729232Y182521D02*
X729232Y183572D01*
X729163Y184621D01*
X729026Y185663D01*
X728821Y186693D01*
X728549Y187709D01*
X728211Y188704D01*
X727808Y189675D01*
X727344Y190618D01*
X726818Y191528D01*
X726234Y192402D01*
X725594Y193235D01*
X724901Y194026D01*
X724158Y194769D01*
X723368Y195462D01*
X722534Y196102D01*
X721660Y196686D01*
X720750Y197211D01*
X719808Y197676D01*
X718836Y198078D01*
X717841Y198416D01*
X716826Y198688D01*
X715795Y198893D01*
X714753Y199030D01*
X713704Y199099D01*
X712653Y199099D01*
X711605Y199030D01*
X710563Y198893D01*
X709532Y198688D01*
X708517Y198416D01*
X707521Y198078D01*
X706550Y197676D01*
X705608Y197211D01*
X704698Y196686D01*
X703824Y196102D01*
X702990Y195462D01*
X702200Y194769D01*
X701456Y194026D01*
X700764Y193235D01*
X700124Y192402D01*
X699540Y191528D01*
X699014Y190618D01*
X698549Y189675D01*
X698147Y188704D01*
X697809Y187709D01*
X697537Y186693D01*
X697332Y185663D01*
X697195Y184621D01*
X697126Y183572D01*
X697126Y182521D01*
X697195Y181472D01*
X697332Y180430D01*
X697537Y179399D01*
X697809Y178384D01*
X698147Y177389D01*
X698549Y176418D01*
X699014Y175475D01*
X699540Y174565D01*
X700124Y173691D01*
X700764Y172857D01*
X701456Y172067D01*
X702200Y171324D01*
X702990Y170631D01*
X703824Y169991D01*
X704698Y169407D01*
X705608Y168882D01*
X706550Y168417D01*
X707521Y168015D01*
X708517Y167677D01*
X709532Y167405D01*
X710563Y167200D01*
X711605Y167063D01*
X712653Y166994D01*
X713704Y166994D01*
X714753Y167063D01*
X715795Y167200D01*
X716826Y167405D01*
X717841Y167677D01*
X718836Y168015D01*
X719808Y168417D01*
X720750Y168882D01*
X721660Y169407D01*
X722534Y169991D01*
X723368Y170631D01*
X724158Y171324D01*
X724901Y172067D01*
X725594Y172857D01*
X726234Y173691D01*
X726818Y174565D01*
X727344Y175475D01*
X727808Y176418D01*
X728211Y177389D01*
X728549Y178384D01*
X728821Y179399D01*
X729026Y180430D01*
X729163Y181472D01*
X729232Y182521D01*
X474457Y773524D02*
X474393Y772784D01*
X474264Y772054D01*
X474072Y771337D01*
X473818Y770639D01*
X473504Y769966D01*
X473133Y769324D01*
X472707Y768716D01*
X472230Y768147D01*
X471705Y767622D01*
X471137Y767145D01*
X470529Y766719D01*
X469886Y766348D01*
X469213Y766035D01*
X468516Y765781D01*
X467799Y765589D01*
X467068Y765460D01*
X466329Y765395D01*
X465586Y765395D01*
X464847Y765460D01*
X464116Y765589D01*
X463399Y765781D01*
X462702Y766035D01*
X462029Y766348D01*
X461386Y766719D01*
X460778Y767145D01*
X460209Y767622D01*
X459685Y768147D01*
X459208Y768716D01*
X458782Y769324D01*
X458411Y769966D01*
X458097Y770639D01*
X457843Y771337D01*
X457651Y772054D01*
X457522Y772784D01*
X457457Y773524D01*
X457457Y774266D01*
X457522Y775006D01*
X457651Y775737D01*
X457843Y776453D01*
X458097Y777151D01*
X458411Y777824D01*
X458782Y778466D01*
X459208Y779074D01*
X459685Y779643D01*
X460209Y780168D01*
X460778Y780645D01*
X461386Y781071D01*
X462029Y781442D01*
X462702Y781755D01*
X463399Y782009D01*
X464116Y782201D01*
X464847Y782330D01*
X465586Y782395D01*
X466329Y782395D01*
X467068Y782330D01*
X467799Y782201D01*
X468516Y782009D01*
X469213Y781755D01*
X469886Y781442D01*
X470529Y781071D01*
X471137Y780645D01*
X471705Y780168D01*
X472230Y779643D01*
X472707Y779074D01*
X473133Y778466D01*
X473504Y777824D01*
X473818Y777151D01*
X474072Y776453D01*
X474264Y775737D01*
X474393Y775006D01*
X474457Y774266D01*
X474457Y773524D01*
X474457Y703524D02*
X474393Y702784D01*
X474264Y702054D01*
X474072Y701337D01*
X473818Y700639D01*
X473504Y699966D01*
X473133Y699324D01*
X472707Y698716D01*
X472230Y698147D01*
X471705Y697622D01*
X471137Y697145D01*
X470529Y696719D01*
X469886Y696348D01*
X469213Y696035D01*
X468516Y695781D01*
X467799Y695589D01*
X467068Y695460D01*
X466329Y695395D01*
X465586Y695395D01*
X464847Y695460D01*
X464116Y695589D01*
X463399Y695781D01*
X462702Y696035D01*
X462029Y696348D01*
X461386Y696719D01*
X460778Y697145D01*
X460209Y697622D01*
X459685Y698147D01*
X459208Y698716D01*
X458782Y699324D01*
X458411Y699966D01*
X458097Y700639D01*
X457843Y701337D01*
X457651Y702054D01*
X457522Y702784D01*
X457457Y703524D01*
X457457Y704266D01*
X457522Y705006D01*
X457651Y705737D01*
X457843Y706453D01*
X458097Y707151D01*
X458411Y707824D01*
X458782Y708466D01*
X459208Y709074D01*
X459685Y709643D01*
X460209Y710168D01*
X460778Y710645D01*
X461386Y711071D01*
X462029Y711442D01*
X462702Y711755D01*
X463399Y712009D01*
X464116Y712201D01*
X464847Y712330D01*
X465586Y712395D01*
X466329Y712395D01*
X467068Y712330D01*
X467799Y712201D01*
X468516Y712009D01*
X469213Y711755D01*
X469886Y711442D01*
X470529Y711071D01*
X471137Y710645D01*
X471705Y710168D01*
X472230Y709643D01*
X472707Y709074D01*
X473133Y708466D01*
X473504Y707824D01*
X473818Y707151D01*
X474072Y706453D01*
X474264Y705737D01*
X474393Y705006D01*
X474457Y704266D01*
X474457Y703524D01*
X346727Y773524D02*
X346663Y772784D01*
X346534Y772054D01*
X346342Y771337D01*
X346088Y770639D01*
X345774Y769966D01*
X345403Y769324D01*
X344977Y768716D01*
X344500Y768147D01*
X343975Y767622D01*
X343407Y767145D01*
X342799Y766719D01*
X342156Y766348D01*
X341483Y766035D01*
X340786Y765781D01*
X340069Y765589D01*
X339338Y765460D01*
X338599Y765395D01*
X337856Y765395D01*
X337117Y765460D01*
X336386Y765589D01*
X335669Y765781D01*
X334972Y766035D01*
X334299Y766348D01*
X333656Y766719D01*
X333048Y767145D01*
X332479Y767622D01*
X331955Y768147D01*
X331478Y768716D01*
X331052Y769324D01*
X330681Y769966D01*
X330367Y770639D01*
X330113Y771337D01*
X329921Y772054D01*
X329792Y772784D01*
X329727Y773524D01*
X329727Y774266D01*
X329792Y775006D01*
X329921Y775737D01*
X330113Y776453D01*
X330367Y777151D01*
X330681Y777824D01*
X331052Y778466D01*
X331478Y779074D01*
X331955Y779643D01*
X332479Y780168D01*
X333048Y780645D01*
X333656Y781071D01*
X334299Y781442D01*
X334972Y781755D01*
X335669Y782009D01*
X336386Y782201D01*
X337117Y782330D01*
X337856Y782395D01*
X338599Y782395D01*
X339338Y782330D01*
X340069Y782201D01*
X340786Y782009D01*
X341483Y781755D01*
X342156Y781442D01*
X342799Y781071D01*
X343407Y780645D01*
X343975Y780168D01*
X344500Y779643D01*
X344977Y779074D01*
X345403Y778466D01*
X345774Y777824D01*
X346088Y777151D01*
X346342Y776453D01*
X346534Y775737D01*
X346663Y775006D01*
X346727Y774266D01*
X346727Y773524D01*
X346727Y703524D02*
X346663Y702784D01*
X346534Y702054D01*
X346342Y701337D01*
X346088Y700639D01*
X345774Y699966D01*
X345403Y699324D01*
X344977Y698716D01*
X344500Y698147D01*
X343975Y697622D01*
X343407Y697145D01*
X342799Y696719D01*
X342156Y696348D01*
X341483Y696035D01*
X340786Y695781D01*
X340069Y695589D01*
X339338Y695460D01*
X338599Y695395D01*
X337856Y695395D01*
X337117Y695460D01*
X336386Y695589D01*
X335669Y695781D01*
X334972Y696035D01*
X334299Y696348D01*
X333656Y696719D01*
X333048Y697145D01*
X332479Y697622D01*
X331955Y698147D01*
X331478Y698716D01*
X331052Y699324D01*
X330681Y699966D01*
X330367Y700639D01*
X330113Y701337D01*
X329921Y702054D01*
X329792Y702784D01*
X329727Y703524D01*
X329727Y704266D01*
X329792Y705006D01*
X329921Y705737D01*
X330113Y706453D01*
X330367Y707151D01*
X330681Y707824D01*
X331052Y708466D01*
X331478Y709074D01*
X331955Y709643D01*
X332479Y710168D01*
X333048Y710645D01*
X333656Y711071D01*
X334299Y711442D01*
X334972Y711755D01*
X335669Y712009D01*
X336386Y712201D01*
X337117Y712330D01*
X337856Y712395D01*
X338599Y712395D01*
X339338Y712330D01*
X340069Y712201D01*
X340786Y712009D01*
X341483Y711755D01*
X342156Y711442D01*
X342799Y711071D01*
X343407Y710645D01*
X343975Y710168D01*
X344500Y709643D01*
X344977Y709074D01*
X345403Y708466D01*
X345774Y707824D01*
X346088Y707151D01*
X346342Y706453D01*
X346534Y705737D01*
X346663Y705006D01*
X346727Y704266D01*
X346727Y703524D01*
X218997Y773524D02*
X218933Y772784D01*
X218804Y772054D01*
X218612Y771337D01*
X218358Y770639D01*
X218044Y769966D01*
X217673Y769324D01*
X217247Y768716D01*
X216770Y768147D01*
X216245Y767622D01*
X215677Y767145D01*
X215069Y766719D01*
X214426Y766348D01*
X213753Y766035D01*
X213056Y765781D01*
X212339Y765589D01*
X211608Y765460D01*
X210869Y765395D01*
X210126Y765395D01*
X209387Y765460D01*
X208656Y765589D01*
X207939Y765781D01*
X207242Y766035D01*
X206569Y766348D01*
X205926Y766719D01*
X205318Y767145D01*
X204749Y767622D01*
X204225Y768147D01*
X203748Y768716D01*
X203322Y769324D01*
X202951Y769966D01*
X202637Y770639D01*
X202383Y771337D01*
X202191Y772054D01*
X202062Y772784D01*
X201997Y773524D01*
X201997Y774266D01*
X202062Y775006D01*
X202191Y775737D01*
X202383Y776453D01*
X202637Y777151D01*
X202951Y777824D01*
X203322Y778466D01*
X203748Y779074D01*
X204225Y779643D01*
X204749Y780168D01*
X205318Y780645D01*
X205926Y781071D01*
X206569Y781442D01*
X207242Y781755D01*
X207939Y782009D01*
X208656Y782201D01*
X209387Y782330D01*
X210126Y782395D01*
X210869Y782395D01*
X211608Y782330D01*
X212339Y782201D01*
X213056Y782009D01*
X213753Y781755D01*
X214426Y781442D01*
X215069Y781071D01*
X215677Y780645D01*
X216245Y780168D01*
X216770Y779643D01*
X217247Y779074D01*
X217673Y778466D01*
X218044Y777824D01*
X218358Y777151D01*
X218612Y776453D01*
X218804Y775737D01*
X218933Y775006D01*
X218997Y774266D01*
X218997Y773524D01*
X218997Y703524D02*
X218933Y702784D01*
X218804Y702054D01*
X218612Y701337D01*
X218358Y700639D01*
X218044Y699966D01*
X217673Y699324D01*
X217247Y698716D01*
X216770Y698147D01*
X216245Y697622D01*
X215677Y697145D01*
X215069Y696719D01*
X214426Y696348D01*
X213753Y696035D01*
X213056Y695781D01*
X212339Y695589D01*
X211608Y695460D01*
X210869Y695395D01*
X210126Y695395D01*
X209387Y695460D01*
X208656Y695589D01*
X207939Y695781D01*
X207242Y696035D01*
X206569Y696348D01*
X205926Y696719D01*
X205318Y697145D01*
X204749Y697622D01*
X204225Y698147D01*
X203748Y698716D01*
X203322Y699324D01*
X202951Y699966D01*
X202637Y700639D01*
X202383Y701337D01*
X202191Y702054D01*
X202062Y702784D01*
X201997Y703524D01*
X201997Y704266D01*
X202062Y705006D01*
X202191Y705737D01*
X202383Y706453D01*
X202637Y707151D01*
X202951Y707824D01*
X203322Y708466D01*
X203748Y709074D01*
X204225Y709643D01*
X204749Y710168D01*
X205318Y710645D01*
X205926Y711071D01*
X206569Y711442D01*
X207242Y711755D01*
X207939Y712009D01*
X208656Y712201D01*
X209387Y712330D01*
X210126Y712395D01*
X210869Y712395D01*
X211608Y712330D01*
X212339Y712201D01*
X213056Y712009D01*
X213753Y711755D01*
X214426Y711442D01*
X215069Y711071D01*
X215677Y710645D01*
X216245Y710168D01*
X216770Y709643D01*
X217247Y709074D01*
X217673Y708466D01*
X218044Y707824D01*
X218358Y707151D01*
X218612Y706453D01*
X218804Y705737D01*
X218933Y705006D01*
X218997Y704266D01*
X218997Y703524D01*
X593884Y775084D02*
X593102Y775161D01*
X592331Y775314D01*
X591579Y775542D01*
X590852Y775843D01*
X590159Y776214D01*
X589506Y776650D01*
X588898Y777149D01*
X588342Y777705D01*
X587844Y778312D01*
X587407Y778966D01*
X587036Y779659D01*
X586735Y780385D01*
X586507Y781138D01*
X586354Y781909D01*
X586277Y782691D01*
X586277Y783477D01*
X586354Y784259D01*
X586507Y785030D01*
X586735Y785782D01*
X587036Y786508D01*
X587407Y787202D01*
X587844Y787855D01*
X588342Y788463D01*
X588898Y789019D01*
X589506Y789517D01*
X590159Y789954D01*
X590852Y790324D01*
X591579Y790625D01*
X592331Y790853D01*
X593102Y791007D01*
X593884Y791084D01*
X594670Y791084D01*
X595452Y791007D01*
X596223Y790853D01*
X596975Y790625D01*
X597701Y790324D01*
X598395Y789954D01*
X599048Y789517D01*
X599656Y789019D01*
X600212Y788463D01*
X600710Y787855D01*
X601147Y787202D01*
X601518Y786508D01*
X601818Y785782D01*
X602047Y785030D01*
X602200Y784259D01*
X602277Y783477D01*
X602277Y782691D01*
X602200Y781909D01*
X602047Y781138D01*
X601818Y780385D01*
X601518Y779659D01*
X601147Y778966D01*
X600710Y778312D01*
X600212Y777705D01*
X599656Y777149D01*
X599048Y776650D01*
X598395Y776214D01*
X597701Y775843D01*
X596975Y775542D01*
X596223Y775314D01*
X595452Y775161D01*
X594670Y775084D01*
X593884Y775084D01*
X593884Y729084D02*
X593101Y729152D01*
X592327Y729289D01*
X591568Y729492D01*
X590829Y729761D01*
X590117Y730093D01*
X589437Y730486D01*
X588793Y730937D01*
X588191Y731442D01*
X587635Y731998D01*
X587130Y732600D01*
X586679Y733243D01*
X586286Y733924D01*
X585954Y734636D01*
X585685Y735375D01*
X585482Y736134D01*
X585345Y736908D01*
X585277Y737691D01*
X585277Y738477D01*
X585345Y739260D01*
X585482Y740034D01*
X585685Y740793D01*
X585954Y741531D01*
X586286Y742243D01*
X586679Y742924D01*
X587130Y743568D01*
X587635Y744170D01*
X588191Y744726D01*
X588793Y745231D01*
X589437Y745682D01*
X590117Y746074D01*
X590829Y746407D01*
X591568Y746675D01*
X592327Y746879D01*
X593101Y747015D01*
X593884Y747084D01*
X594670Y747084D01*
X595453Y747015D01*
X596227Y746879D01*
X596986Y746675D01*
X597724Y746407D01*
X598437Y746074D01*
X599117Y745682D01*
X599761Y745231D01*
X600363Y744726D01*
X600919Y744170D01*
X601424Y743568D01*
X601875Y742924D01*
X602268Y742243D01*
X602600Y741531D01*
X602869Y740793D01*
X603072Y740034D01*
X603208Y739260D01*
X603277Y738477D01*
X603277Y737691D01*
X603208Y736908D01*
X603072Y736134D01*
X602869Y735375D01*
X602600Y734636D01*
X602268Y733924D01*
X601875Y733243D01*
X601424Y732600D01*
X600919Y731998D01*
X600363Y731442D01*
X599761Y730937D01*
X599117Y730486D01*
X598437Y730093D01*
X597724Y729761D01*
X596986Y729492D01*
X596227Y729289D01*
X595453Y729152D01*
X594670Y729084D01*
X593884Y729084D01*
M02*
