G04 EAGLE Gerber RS-274X export*
G75*
%MOMM*%
%FSLAX34Y34*%
%LPD*%
%INSilkscreen Top*%
%IPPOS*%
%AMOC8*
5,1,8,0,0,1.08239X$1,22.5*%
G01*
%ADD10C,0.152400*%
%ADD11C,0.254000*%
%ADD12C,0.101600*%
%ADD13R,0.006400X0.006300*%
%ADD14R,0.006300X0.012700*%
%ADD15R,0.006400X0.019100*%
%ADD16R,0.006300X0.025400*%
%ADD17R,0.006300X0.057200*%
%ADD18R,0.006400X0.025400*%
%ADD19R,0.006400X0.088900*%
%ADD20R,0.006300X0.038100*%
%ADD21R,0.006300X0.107900*%
%ADD22R,0.006400X0.044500*%
%ADD23R,0.006400X0.127000*%
%ADD24R,0.006300X0.050800*%
%ADD25R,0.006300X0.139700*%
%ADD26R,0.006300X0.006300*%
%ADD27R,0.006400X0.050800*%
%ADD28R,0.006400X0.152400*%
%ADD29R,0.006300X0.063500*%
%ADD30R,0.006300X0.171500*%
%ADD31R,0.006400X0.069800*%
%ADD32R,0.006400X0.184100*%
%ADD33R,0.006400X0.012700*%
%ADD34R,0.006300X0.082500*%
%ADD35R,0.006300X0.196800*%
%ADD36R,0.006300X0.019000*%
%ADD37R,0.006300X0.082600*%
%ADD38R,0.006400X0.209600*%
%ADD39R,0.006400X0.019000*%
%ADD40R,0.006400X0.114300*%
%ADD41R,0.006300X0.304800*%
%ADD42R,0.006300X0.069800*%
%ADD43R,0.006300X0.031800*%
%ADD44R,0.006300X0.031700*%
%ADD45R,0.006300X0.146000*%
%ADD46R,0.006300X0.152400*%
%ADD47R,0.006300X0.006400*%
%ADD48R,0.006400X0.311100*%
%ADD49R,0.006400X0.082600*%
%ADD50R,0.006400X0.038100*%
%ADD51R,0.006400X0.044400*%
%ADD52R,0.006400X0.165100*%
%ADD53R,0.006400X0.209500*%
%ADD54R,0.006300X0.311200*%
%ADD55R,0.006300X0.165100*%
%ADD56R,0.006300X0.088900*%
%ADD57R,0.006300X0.044500*%
%ADD58R,0.006300X0.247600*%
%ADD59R,0.006300X0.266700*%
%ADD60R,0.006400X0.317500*%
%ADD61R,0.006400X0.254000*%
%ADD62R,0.006400X0.101600*%
%ADD63R,0.006400X0.057100*%
%ADD64R,0.006400X0.298500*%
%ADD65R,0.006400X0.031800*%
%ADD66R,0.006300X0.336600*%
%ADD67R,0.006300X0.120700*%
%ADD68R,0.006300X0.260400*%
%ADD69R,0.006300X0.323900*%
%ADD70R,0.006300X0.095200*%
%ADD71R,0.006400X0.698500*%
%ADD72R,0.006400X0.228600*%
%ADD73R,0.006400X0.279400*%
%ADD74R,0.006400X0.355600*%
%ADD75R,0.006400X0.177800*%
%ADD76R,0.006300X0.704800*%
%ADD77R,0.006300X0.241300*%
%ADD78R,0.006300X0.298500*%
%ADD79R,0.006300X0.406400*%
%ADD80R,0.006300X0.184200*%
%ADD81R,0.006400X0.723900*%
%ADD82R,0.006400X0.717500*%
%ADD83R,0.006400X0.190500*%
%ADD84R,0.006300X0.736600*%
%ADD85R,0.006300X0.019100*%
%ADD86R,0.006300X0.723900*%
%ADD87R,0.006300X0.203200*%
%ADD88R,0.006400X0.762000*%
%ADD89R,0.006400X0.063500*%
%ADD90R,0.006400X0.215900*%
%ADD91R,0.006300X1.168400*%
%ADD92R,0.006300X0.222300*%
%ADD93R,0.006400X1.162100*%
%ADD94R,0.006400X0.222200*%
%ADD95R,0.006300X1.155700*%
%ADD96R,0.006300X0.196900*%
%ADD97R,0.006300X0.228600*%
%ADD98R,0.006400X1.136600*%
%ADD99R,0.006400X0.203200*%
%ADD100R,0.006300X1.124000*%
%ADD101R,0.006300X0.209600*%
%ADD102R,0.006300X0.044400*%
%ADD103R,0.006300X0.717600*%
%ADD104R,0.006300X0.235000*%
%ADD105R,0.006400X1.117600*%
%ADD106R,0.006400X0.711200*%
%ADD107R,0.006400X0.241300*%
%ADD108R,0.006300X1.104900*%
%ADD109R,0.006300X0.215900*%
%ADD110R,0.006300X0.190500*%
%ADD111R,0.006300X0.114300*%
%ADD112R,0.006300X1.016000*%
%ADD113R,0.006400X1.079500*%
%ADD114R,0.006400X0.260300*%
%ADD115R,0.006400X0.901700*%
%ADD116R,0.006300X1.054100*%
%ADD117R,0.006300X0.292100*%
%ADD118R,0.006300X0.273100*%
%ADD119R,0.006300X0.895300*%
%ADD120R,0.006400X1.009700*%
%ADD121R,0.006400X0.235000*%
%ADD122R,0.006400X0.323900*%
%ADD123R,0.006400X0.285800*%
%ADD124R,0.006400X0.895400*%
%ADD125R,0.006300X0.965200*%
%ADD126R,0.006300X0.615900*%
%ADD127R,0.006300X0.882700*%
%ADD128R,0.006400X0.641400*%
%ADD129R,0.006400X0.628700*%
%ADD130R,0.006400X0.336600*%
%ADD131R,0.006400X0.882600*%
%ADD132R,0.006300X0.577800*%
%ADD133R,0.006300X0.666700*%
%ADD134R,0.006300X0.400000*%
%ADD135R,0.006300X0.076200*%
%ADD136R,0.006300X0.698500*%
%ADD137R,0.006300X0.158800*%
%ADD138R,0.006400X0.495300*%
%ADD139R,0.006400X1.104900*%
%ADD140R,0.006400X0.774700*%
%ADD141R,0.006300X0.489000*%
%ADD142R,0.006300X1.098500*%
%ADD143R,0.006300X0.743000*%
%ADD144R,0.006400X0.501700*%
%ADD145R,0.006400X1.085900*%
%ADD146R,0.006400X0.743000*%
%ADD147R,0.006300X0.057100*%
%ADD148R,0.006300X0.533400*%
%ADD149R,0.006300X1.066800*%
%ADD150R,0.006300X0.825500*%
%ADD151R,0.006400X0.558800*%
%ADD152R,0.006400X1.054100*%
%ADD153R,0.006400X0.812800*%
%ADD154R,0.006300X0.622300*%
%ADD155R,0.006300X1.041400*%
%ADD156R,0.006300X0.812800*%
%ADD157R,0.006400X0.793800*%
%ADD158R,0.006400X0.806400*%
%ADD159R,0.006300X0.806400*%
%ADD160R,0.006300X0.952500*%
%ADD161R,0.006300X0.800100*%
%ADD162R,0.006400X0.819200*%
%ADD163R,0.006400X0.952500*%
%ADD164R,0.006400X0.800100*%
%ADD165R,0.006300X0.692200*%
%ADD166R,0.006400X0.831900*%
%ADD167R,0.006400X0.685800*%
%ADD168R,0.006400X0.463500*%
%ADD169R,0.006400X0.311200*%
%ADD170R,0.006300X0.838200*%
%ADD171R,0.006300X0.679400*%
%ADD172R,0.006400X0.946200*%
%ADD173R,0.006400X0.679400*%
%ADD174R,0.006400X0.273100*%
%ADD175R,0.006300X0.254000*%
%ADD176R,0.006400X0.704800*%
%ADD177R,0.006400X0.133400*%
%ADD178R,0.006400X0.958900*%
%ADD179R,0.006400X0.742900*%
%ADD180R,0.006400X0.076200*%
%ADD181R,0.006400X0.107900*%
%ADD182R,0.006300X0.958800*%
%ADD183R,0.006300X0.755600*%
%ADD184R,0.006300X0.108000*%
%ADD185R,0.006400X0.146100*%
%ADD186R,0.006300X0.787400*%
%ADD187R,0.006300X0.260300*%
%ADD188R,0.006400X0.171400*%
%ADD189R,0.006300X0.711200*%
%ADD190R,0.006300X0.819100*%
%ADD191R,0.006400X0.444500*%
%ADD192R,0.006400X0.831800*%
%ADD193R,0.006300X0.184100*%
%ADD194R,0.006300X0.400100*%
%ADD195R,0.006300X0.850900*%
%ADD196R,0.006300X0.177800*%
%ADD197R,0.006400X0.393700*%
%ADD198R,0.006400X0.400000*%
%ADD199R,0.006400X0.406400*%
%ADD200R,0.006300X0.381000*%
%ADD201R,0.006300X0.374700*%
%ADD202R,0.006300X0.393700*%
%ADD203R,0.006400X0.158700*%
%ADD204R,0.006400X0.374700*%
%ADD205R,0.006400X0.361900*%
%ADD206R,0.006400X0.368300*%
%ADD207R,0.006300X0.374600*%
%ADD208R,0.006300X0.361900*%
%ADD209R,0.006300X0.362000*%
%ADD210R,0.006300X0.171400*%
%ADD211R,0.006400X0.431800*%
%ADD212R,0.006400X0.362000*%
%ADD213R,0.006400X0.171500*%
%ADD214R,0.006300X0.368300*%
%ADD215R,0.006300X0.419100*%
%ADD216R,0.006300X0.355600*%
%ADD217R,0.006400X0.412800*%
%ADD218R,0.006400X0.381000*%
%ADD219R,0.006400X0.006400*%
%ADD220R,0.006400X0.158800*%
%ADD221R,0.006400X0.349200*%
%ADD222R,0.006300X0.209500*%
%ADD223R,0.006400X0.349300*%
%ADD224R,0.006300X0.158700*%
%ADD225R,0.006300X0.349200*%
%ADD226R,0.006400X0.196800*%
%ADD227R,0.006300X0.342900*%
%ADD228R,0.006400X0.342900*%
%ADD229R,0.006400X0.260400*%
%ADD230R,0.006300X0.146100*%
%ADD231R,0.006400X0.139700*%
%ADD232R,0.006400X0.120600*%
%ADD233R,0.006400X0.266700*%
%ADD234R,0.006300X0.133400*%
%ADD235R,0.006300X0.127000*%
%ADD236R,0.006300X0.336500*%
%ADD237R,0.006300X0.387300*%
%ADD238R,0.006400X0.330200*%
%ADD239R,0.006300X0.330200*%
%ADD240R,0.006300X0.069900*%
%ADD241R,0.006300X0.273000*%
%ADD242R,0.006400X0.069900*%
%ADD243R,0.006400X0.273000*%
%ADD244R,0.006400X0.425400*%
%ADD245R,0.006300X0.438100*%
%ADD246R,0.006400X0.057200*%
%ADD247R,0.006300X0.457200*%
%ADD248R,0.006300X0.279400*%
%ADD249R,0.006300X0.476200*%
%ADD250R,0.006400X0.336500*%
%ADD251R,0.006400X0.482600*%
%ADD252R,0.006300X0.508000*%
%ADD253R,0.006300X0.133300*%
%ADD254R,0.006300X0.285700*%
%ADD255R,0.006400X0.031700*%
%ADD256R,0.006400X0.692100*%
%ADD257R,0.006400X0.285700*%
%ADD258R,0.006300X0.692100*%
%ADD259R,0.006400X0.292100*%
%ADD260R,0.006300X0.679500*%
%ADD261R,0.006400X0.673100*%
%ADD262R,0.006300X0.673100*%
%ADD263R,0.006400X0.298400*%
%ADD264R,0.006300X0.660400*%
%ADD265R,0.006400X0.660400*%
%ADD266R,0.006400X0.304800*%
%ADD267R,0.006300X0.311100*%
%ADD268R,0.006300X0.095300*%
%ADD269R,0.006300X0.647700*%
%ADD270R,0.006300X0.323800*%
%ADD271R,0.006400X0.647700*%
%ADD272R,0.006300X0.101600*%
%ADD273R,0.006300X0.641300*%
%ADD274R,0.006400X0.108000*%
%ADD275R,0.006400X0.635000*%
%ADD276R,0.006300X0.628700*%
%ADD277R,0.006400X0.387300*%
%ADD278R,0.006400X0.622300*%
%ADD279R,0.006300X0.387400*%
%ADD280R,0.006400X0.616000*%
%ADD281R,0.006300X0.412700*%
%ADD282R,0.006300X0.616000*%
%ADD283R,0.006400X0.609600*%
%ADD284R,0.006400X0.374600*%
%ADD285R,0.006300X0.609600*%
%ADD286R,0.006400X0.400100*%
%ADD287R,0.006300X0.635000*%
%ADD288R,0.006300X0.774700*%
%ADD289R,0.006400X0.781100*%
%ADD290R,0.006400X0.577900*%
%ADD291R,0.006300X0.781100*%
%ADD292R,0.006400X0.781000*%
%ADD293R,0.006400X0.590500*%
%ADD294R,0.006300X0.641400*%
%ADD295R,0.006300X0.596900*%
%ADD296R,0.006400X0.787400*%
%ADD297R,0.006300X0.120600*%
%ADD298R,0.006300X0.793800*%
%ADD299R,0.006400X0.793700*%
%ADD300R,0.006300X0.730200*%
%ADD301R,0.006400X0.666800*%
%ADD302R,0.006400X0.730300*%
%ADD303R,0.006300X0.768300*%
%ADD304R,0.006400X0.146000*%
%ADD305R,0.006400X0.819100*%
%ADD306R,0.006300X0.781000*%
%ADD307R,0.006400X0.838200*%
%ADD308R,0.006300X0.793700*%
%ADD309R,0.006300X0.844600*%
%ADD310R,0.006400X0.857200*%
%ADD311R,0.006300X0.762000*%
%ADD312R,0.006300X0.863600*%
%ADD313R,0.006400X0.863600*%
%ADD314R,0.006300X0.869900*%
%ADD315R,0.006400X0.825500*%
%ADD316R,0.006400X0.749300*%
%ADD317R,0.006400X0.870000*%
%ADD318R,0.006300X0.831900*%
%ADD319R,0.006300X0.876300*%
%ADD320R,0.006400X0.736600*%
%ADD321R,0.006400X0.869900*%
%ADD322R,0.006400X0.844600*%
%ADD323R,0.006400X0.850900*%
%ADD324R,0.006300X0.857300*%
%ADD325R,0.006400X0.889000*%
%ADD326R,0.006400X0.844500*%
%ADD327R,0.006300X0.901700*%
%ADD328R,0.006400X0.920700*%
%ADD329R,0.006400X0.692200*%
%ADD330R,0.006300X0.927100*%
%ADD331R,0.006300X0.685800*%
%ADD332R,0.006400X0.412700*%
%ADD333R,0.006400X0.679500*%
%ADD334R,0.006300X0.425500*%
%ADD335R,0.006300X0.958900*%
%ADD336R,0.006400X0.438100*%
%ADD337R,0.006400X0.971500*%
%ADD338R,0.006300X0.450900*%
%ADD339R,0.006300X0.984300*%
%ADD340R,0.006300X0.742900*%
%ADD341R,0.006400X0.469900*%
%ADD342R,0.006400X0.996900*%
%ADD343R,0.006300X1.492200*%
%ADD344R,0.006300X0.654100*%
%ADD345R,0.006400X1.505000*%
%ADD346R,0.006400X0.654000*%
%ADD347R,0.006300X1.524000*%
%ADD348R,0.006300X0.654000*%
%ADD349R,0.006400X1.530300*%
%ADD350R,0.006300X1.543100*%
%ADD351R,0.006400X1.555700*%
%ADD352R,0.006300X1.574800*%
%ADD353R,0.006400X1.587500*%
%ADD354R,0.006300X1.600200*%
%ADD355R,0.006400X1.612900*%
%ADD356R,0.006400X0.654100*%
%ADD357R,0.006300X1.631900*%
%ADD358R,0.006400X1.638300*%
%ADD359R,0.006400X0.628600*%
%ADD360R,0.006300X1.651000*%
%ADD361R,0.006400X1.663700*%
%ADD362R,0.006300X1.682800*%
%ADD363R,0.006400X1.701800*%
%ADD364R,0.006300X1.720900*%
%ADD365R,0.006300X0.603200*%
%ADD366R,0.006400X1.739900*%
%ADD367R,0.006400X0.603200*%
%ADD368R,0.006300X1.752600*%
%ADD369R,0.006400X1.778000*%
%ADD370R,0.006400X0.596900*%
%ADD371R,0.006400X0.590600*%
%ADD372R,0.006300X1.809700*%
%ADD373R,0.006300X0.584200*%
%ADD374R,0.006400X2.419300*%
%ADD375R,0.006300X2.425700*%
%ADD376R,0.006300X0.571500*%
%ADD377R,0.006400X2.425700*%
%ADD378R,0.006400X0.565100*%
%ADD379R,0.006300X2.438400*%
%ADD380R,0.006300X0.565100*%
%ADD381R,0.006400X2.438400*%
%ADD382R,0.006300X2.444800*%
%ADD383R,0.006300X0.552400*%
%ADD384R,0.006400X2.444800*%
%ADD385R,0.006400X0.546100*%
%ADD386R,0.006300X2.457400*%
%ADD387R,0.006300X0.546100*%
%ADD388R,0.006400X2.457400*%
%ADD389R,0.006400X0.539800*%
%ADD390R,0.006400X2.463800*%
%ADD391R,0.006400X0.533400*%
%ADD392R,0.006300X2.470200*%
%ADD393R,0.006300X0.527100*%
%ADD394R,0.006400X2.476500*%
%ADD395R,0.006400X0.520700*%
%ADD396R,0.006300X2.482800*%
%ADD397R,0.006300X0.520700*%
%ADD398R,0.006400X2.482800*%
%ADD399R,0.006300X2.495600*%
%ADD400R,0.006400X2.495600*%
%ADD401R,0.006300X2.508200*%
%ADD402R,0.006400X2.514600*%
%ADD403R,0.006300X2.514600*%
%ADD404R,0.006400X2.527300*%
%ADD405R,0.006300X2.533700*%
%ADD406R,0.006400X2.546400*%
%ADD407R,0.006300X2.559000*%
%ADD408R,0.006400X2.565400*%
%ADD409R,0.006400X0.539700*%
%ADD410R,0.006300X2.571700*%
%ADD411R,0.006300X0.539700*%
%ADD412R,0.006400X2.584500*%
%ADD413R,0.006300X2.590800*%
%ADD414R,0.006300X0.552500*%
%ADD415R,0.006400X2.609800*%
%ADD416R,0.006300X2.622500*%
%ADD417R,0.006400X2.641600*%
%ADD418R,0.006400X0.584200*%
%ADD419R,0.006300X3.232200*%
%ADD420R,0.006400X3.232200*%
%ADD421R,0.006400X0.457200*%
%ADD422R,0.006300X0.514400*%
%ADD423R,0.006300X3.232100*%
%ADD424R,0.006400X3.867100*%
%ADD425R,0.006300X3.879800*%
%ADD426R,0.006400X3.892500*%
%ADD427R,0.006300X3.911600*%
%ADD428R,0.006400X3.918000*%
%ADD429R,0.006300X3.930700*%
%ADD430R,0.006400X3.937000*%
%ADD431R,0.006300X3.949700*%
%ADD432R,0.006400X3.962400*%
%ADD433R,0.006300X3.968700*%
%ADD434R,0.006400X3.975100*%
%ADD435R,0.006300X3.981400*%
%ADD436R,0.006400X4.000500*%
%ADD437R,0.006300X4.006900*%
%ADD438R,0.006400X4.013200*%
%ADD439R,0.006300X4.013200*%
%ADD440R,0.006400X4.019600*%
%ADD441R,0.006300X4.032200*%
%ADD442R,0.006400X4.038600*%
%ADD443R,0.006300X4.044900*%
%ADD444R,0.006400X4.044900*%
%ADD445R,0.006300X0.939800*%
%ADD446R,0.006300X3.111500*%
%ADD447R,0.006400X3.111500*%
%ADD448R,0.006300X0.946200*%
%ADD449R,0.006300X3.105100*%
%ADD450R,0.006400X0.958800*%
%ADD451R,0.006400X0.514400*%
%ADD452R,0.006300X0.527000*%
%ADD453R,0.006400X0.527000*%
%ADD454R,0.006400X3.105200*%
%ADD455R,0.006300X3.098800*%
%ADD456R,0.006400X3.105100*%
%ADD457R,0.006400X3.092400*%
%ADD458R,0.006300X3.092500*%
%ADD459R,0.006400X0.552500*%
%ADD460R,0.006400X2.457500*%
%ADD461R,0.006300X0.558800*%
%ADD462R,0.006400X0.082500*%
%ADD463R,0.006400X0.565200*%
%ADD464R,0.006400X2.381200*%
%ADD465R,0.006300X2.330500*%
%ADD466R,0.006400X0.133300*%
%ADD467R,0.006400X0.247600*%
%ADD468R,0.006400X2.279700*%
%ADD469R,0.006300X2.228900*%
%ADD470R,0.006400X2.089200*%
%ADD471R,0.006400X0.323800*%
%ADD472R,0.006300X0.234900*%
%ADD473R,0.006300X1.778000*%
%ADD474R,0.006300X1.701800*%
%ADD475R,0.006300X1.625600*%
%ADD476R,0.006400X1.593800*%
%ADD477R,0.006300X1.562100*%
%ADD478R,0.006400X1.536700*%
%ADD479R,0.006300X1.511300*%
%ADD480R,0.006400X1.492300*%
%ADD481R,0.006400X0.247700*%
%ADD482R,0.006300X0.920700*%
%ADD483R,0.006300X1.466900*%
%ADD484R,0.006400X1.003300*%
%ADD485R,0.006400X1.441400*%
%ADD486R,0.006300X1.073100*%
%ADD487R,0.006300X1.422400*%
%ADD488R,0.006400X1.098500*%
%ADD489R,0.006400X1.409700*%
%ADD490R,0.006300X1.123900*%
%ADD491R,0.006300X1.390700*%
%ADD492R,0.006400X1.143000*%
%ADD493R,0.006400X1.371600*%
%ADD494R,0.006400X0.234900*%
%ADD495R,0.006300X1.346200*%
%ADD496R,0.006400X1.174700*%
%ADD497R,0.006400X1.327200*%
%ADD498R,0.006300X1.187400*%
%ADD499R,0.006300X1.314400*%
%ADD500R,0.006400X1.200100*%
%ADD501R,0.006400X1.295400*%
%ADD502R,0.006300X1.206500*%
%ADD503R,0.006300X1.276300*%
%ADD504R,0.006400X1.219200*%
%ADD505R,0.006400X1.263600*%
%ADD506R,0.006300X1.225500*%
%ADD507R,0.006300X1.244600*%
%ADD508R,0.006400X1.231900*%
%ADD509R,0.006300X1.238200*%
%ADD510R,0.006400X1.238300*%
%ADD511R,0.006400X1.187500*%
%ADD512R,0.006400X0.387400*%
%ADD513R,0.006400X1.251000*%
%ADD514R,0.006400X1.149400*%
%ADD515R,0.006300X1.257300*%
%ADD516R,0.006300X1.136700*%
%ADD517R,0.006400X0.095200*%
%ADD518R,0.006400X1.257300*%
%ADD519R,0.006400X1.123900*%
%ADD520R,0.006300X1.263700*%
%ADD521R,0.006300X1.143000*%
%ADD522R,0.006400X0.095300*%
%ADD523R,0.006400X1.270000*%
%ADD524R,0.006400X0.419100*%
%ADD525R,0.006300X1.270000*%
%ADD526R,0.006300X1.301700*%
%ADD527R,0.006400X0.184200*%
%ADD528R,0.006400X1.276300*%
%ADD529R,0.006300X0.285800*%
%ADD530R,0.006300X1.282700*%
%ADD531R,0.006300X1.251000*%
%ADD532R,0.006400X1.282700*%
%ADD533R,0.006400X1.225600*%
%ADD534R,0.006400X0.908100*%
%ADD535R,0.006400X1.181100*%
%ADD536R,0.006300X1.162000*%
%ADD537R,0.006400X1.130300*%
%ADD538R,0.006300X1.111300*%
%ADD539R,0.006300X0.247700*%
%ADD540R,0.006300X1.060400*%
%ADD541R,0.006400X1.041400*%
%ADD542R,0.006300X1.022300*%
%ADD543R,0.006300X0.806500*%
%ADD544R,0.006400X0.806500*%
%ADD545R,0.006400X0.939800*%
%ADD546R,0.006300X0.920800*%
%ADD547R,0.006400X0.222300*%
%ADD548R,0.006400X0.717600*%
%ADD549R,0.006300X0.908000*%
%ADD550R,0.006300X0.222200*%
%ADD551R,0.006300X0.298400*%
%ADD552R,0.006300X0.889000*%
%ADD553R,0.006400X0.476300*%
%ADD554R,0.006300X0.495300*%
%ADD555R,0.006400X0.450900*%
%ADD556R,0.006300X0.831800*%
%ADD557R,0.006300X0.539800*%
%ADD558R,0.006300X0.590600*%
%ADD559R,0.006300X0.755700*%
%ADD560R,0.006300X0.349300*%
%ADD561R,0.006400X0.603300*%
%ADD562R,0.006400X0.514300*%
%ADD563R,0.006300X0.717500*%
%ADD564R,0.006300X0.908100*%
%ADD565R,0.006300X0.514300*%
%ADD566R,0.006400X1.066800*%
%ADD567R,0.006300X1.117600*%
%ADD568R,0.006400X0.571500*%
%ADD569R,0.006300X0.488900*%
%ADD570R,0.006400X0.552400*%
%ADD571R,0.006400X0.704900*%
%ADD572R,0.006400X1.162000*%
%ADD573R,0.006300X0.463500*%
%ADD574R,0.006400X1.149300*%
%ADD575R,0.006400X0.450800*%
%ADD576R,0.006400X1.111300*%
%ADD577R,0.006300X1.098600*%
%ADD578R,0.006400X1.028700*%
%ADD579R,0.006300X0.704900*%
%ADD580R,0.006400X0.997000*%
%ADD581R,0.006300X0.984200*%
%ADD582R,0.006400X0.965200*%
%ADD583R,0.006300X0.933400*%
%ADD584R,0.006400X0.920800*%
%ADD585R,0.006300X0.914400*%
%ADD586R,0.006300X0.730300*%
%ADD587R,0.006400X0.882700*%
%ADD588R,0.006400X0.857300*%
%ADD589R,0.006400X0.768300*%
%ADD590R,0.006300X0.749300*%
%ADD591R,0.006300X0.590500*%
%ADD592R,0.006300X0.476300*%
%ADD593R,0.006400X0.489000*%
%ADD594R,0.006300X0.317500*%
%ADD595R,0.006300X0.482600*%
%ADD596R,0.006400X0.476200*%
%ADD597R,0.006400X0.527100*%
%ADD598R,0.006300X0.431800*%
%ADD599R,0.006300X0.425400*%
%ADD600R,0.006400X0.438200*%
%ADD601R,0.006300X0.444500*%
%ADD602R,0.006300X0.997000*%
%ADD603R,0.006300X0.469900*%
%ADD604R,0.006300X1.212800*%
%ADD605R,0.006400X0.641300*%
%ADD606R,0.006400X0.501600*%
%ADD607R,0.006300X0.628600*%
%ADD608R,0.006400X1.276400*%
%ADD609R,0.006300X1.295400*%
%ADD610R,0.006400X1.314500*%
%ADD611R,0.006300X1.339800*%
%ADD612R,0.006400X1.358900*%
%ADD613R,0.006300X1.365200*%
%ADD614R,0.006400X1.289100*%
%ADD615R,0.006300X1.200100*%
%ADD616R,0.006400X0.508000*%
%ADD617R,0.006400X1.098600*%
%ADD618R,0.006300X0.501600*%
%ADD619R,0.006300X1.073200*%
%ADD620R,0.006400X1.047800*%
%ADD621R,0.006300X1.028700*%
%ADD622R,0.006400X1.009600*%
%ADD623R,0.006300X0.844500*%
%ADD624R,0.006400X0.730200*%
%ADD625R,0.006300X0.463600*%
%ADD626R,0.006400X0.463600*%
%ADD627R,0.006400X0.577800*%
%ADD628R,0.006400X0.120700*%
%ADD629R,0.006300X1.314500*%
%ADD630R,0.006400X1.352600*%
%ADD631R,0.006300X1.517700*%
%ADD632R,0.006300X0.438200*%
%ADD633R,0.006400X1.524000*%
%ADD634R,0.006400X1.047700*%
%ADD635R,0.006400X0.425500*%
%ADD636R,0.006400X0.006400*%
%ADD637R,0.006300X0.412800*%
%ADD638R,0.006300X0.450800*%
%ADD639R,0.006400X1.060500*%
%ADD640C,0.127000*%
%ADD641C,0.203000*%
%ADD642C,0.203200*%
%ADD643C,0.076200*%
%ADD644R,0.150000X0.300000*%
%ADD645R,0.300000X0.300000*%
%ADD646C,0.177800*%
%ADD647C,0.120000*%
%ADD648C,0.300000*%
%ADD649R,0.863600X0.609600*%
%ADD650C,0.100000*%

G36*
X185017Y389770D02*
X185017Y389770D01*
X185020Y389769D01*
X185103Y389806D01*
X186899Y391602D01*
X186900Y391604D01*
X186902Y391605D01*
X186918Y391649D01*
X186936Y391693D01*
X186935Y391695D01*
X186936Y391697D01*
X186899Y391781D01*
X184205Y394475D01*
X184203Y394475D01*
X184202Y394477D01*
X184157Y394494D01*
X184113Y394512D01*
X184111Y394511D01*
X184109Y394511D01*
X184026Y394475D01*
X182230Y392679D01*
X182229Y392677D01*
X182227Y392676D01*
X182211Y392631D01*
X182193Y392587D01*
X182194Y392585D01*
X182193Y392583D01*
X182230Y392500D01*
X184924Y389806D01*
X184926Y389805D01*
X184927Y389803D01*
X184972Y389787D01*
X185016Y389769D01*
X185017Y389770D01*
G37*
G36*
X279266Y393305D02*
X279266Y393305D01*
X279268Y393305D01*
X279352Y393341D01*
X282046Y396036D01*
X282047Y396038D01*
X282049Y396038D01*
X282065Y396083D01*
X282083Y396127D01*
X282082Y396129D01*
X282083Y396131D01*
X282046Y396214D01*
X280250Y398010D01*
X280248Y398011D01*
X280247Y398013D01*
X280202Y398029D01*
X280158Y398047D01*
X280156Y398046D01*
X280154Y398047D01*
X280071Y398010D01*
X277377Y395316D01*
X277376Y395314D01*
X277374Y395313D01*
X277358Y395269D01*
X277340Y395225D01*
X277341Y395223D01*
X277340Y395221D01*
X277377Y395137D01*
X279173Y393341D01*
X279175Y393341D01*
X279176Y393339D01*
X279221Y393322D01*
X279264Y393305D01*
X279266Y393305D01*
G37*
G36*
X262487Y460168D02*
X262487Y460168D01*
X262489Y460167D01*
X262572Y460204D01*
X264368Y462000D01*
X264369Y462002D01*
X264371Y462003D01*
X264387Y462048D01*
X264405Y462091D01*
X264404Y462093D01*
X264405Y462095D01*
X264368Y462179D01*
X261674Y464873D01*
X261672Y464874D01*
X261671Y464876D01*
X261626Y464892D01*
X261583Y464910D01*
X261581Y464909D01*
X261579Y464910D01*
X261495Y464873D01*
X259699Y463077D01*
X259699Y463075D01*
X259697Y463074D01*
X259680Y463029D01*
X259662Y462985D01*
X259663Y462983D01*
X259663Y462981D01*
X259699Y462898D01*
X262393Y460204D01*
X262395Y460203D01*
X262396Y460201D01*
X262441Y460185D01*
X262485Y460167D01*
X262487Y460168D01*
G37*
G36*
X194726Y456632D02*
X194726Y456632D01*
X194728Y456632D01*
X194811Y456669D01*
X197505Y459363D01*
X197506Y459365D01*
X197508Y459365D01*
X197525Y459410D01*
X197542Y459454D01*
X197541Y459456D01*
X197542Y459458D01*
X197505Y459541D01*
X195709Y461337D01*
X195707Y461338D01*
X195706Y461340D01*
X195662Y461356D01*
X195618Y461374D01*
X195616Y461373D01*
X195614Y461374D01*
X195531Y461337D01*
X192837Y458643D01*
X192836Y458641D01*
X192834Y458640D01*
X192818Y458596D01*
X192800Y458552D01*
X192801Y458550D01*
X192800Y458548D01*
X192837Y458465D01*
X194633Y456669D01*
X194635Y456668D01*
X194636Y456666D01*
X194680Y456649D01*
X194724Y456632D01*
X194726Y456632D01*
G37*
D10*
X86178Y485876D02*
X79568Y485876D01*
X79568Y482571D01*
X80670Y481469D01*
X85076Y481469D01*
X86178Y482571D01*
X86178Y485876D01*
X79568Y478392D02*
X79568Y476189D01*
X79568Y477290D02*
X86178Y477290D01*
X86178Y476189D02*
X86178Y478392D01*
X86178Y472301D02*
X86178Y470097D01*
X86178Y472301D02*
X85076Y473402D01*
X80670Y473402D01*
X79568Y472301D01*
X79568Y470097D01*
X80670Y468996D01*
X85076Y468996D01*
X86178Y470097D01*
X86178Y457571D02*
X85076Y456469D01*
X86178Y457571D02*
X86178Y459774D01*
X85076Y460876D01*
X80670Y460876D01*
X79568Y459774D01*
X79568Y457571D01*
X80670Y456469D01*
X79568Y453392D02*
X86178Y453392D01*
X79568Y453392D02*
X79568Y448985D01*
X79568Y445908D02*
X86178Y445908D01*
X81772Y445908D02*
X86178Y441501D01*
X82873Y444806D02*
X79568Y441501D01*
X516809Y584732D02*
X519012Y584732D01*
X516809Y584732D02*
X515707Y583631D01*
X515707Y579224D01*
X516809Y578123D01*
X519012Y578123D01*
X520113Y579224D01*
X520113Y583631D01*
X519012Y584732D01*
X523191Y582529D02*
X523191Y575919D01*
X523191Y582529D02*
X526496Y582529D01*
X527598Y581427D01*
X527598Y579224D01*
X526496Y578123D01*
X523191Y578123D01*
X531777Y578123D02*
X533980Y578123D01*
X531777Y578123D02*
X530675Y579224D01*
X530675Y581427D01*
X531777Y582529D01*
X533980Y582529D01*
X535082Y581427D01*
X535082Y580326D01*
X530675Y580326D01*
X538159Y578123D02*
X538159Y582529D01*
X541464Y582529D01*
X542566Y581427D01*
X542566Y578123D01*
X545644Y581427D02*
X550050Y581427D01*
X553128Y578123D02*
X553128Y584732D01*
X553128Y581427D02*
X557534Y581427D01*
X557534Y578123D02*
X557534Y584732D01*
X561713Y582529D02*
X563917Y582529D01*
X565018Y581427D01*
X565018Y578123D01*
X561713Y578123D01*
X560612Y579224D01*
X561713Y580326D01*
X565018Y580326D01*
X568096Y578123D02*
X568096Y582529D01*
X568096Y580326D02*
X570299Y582529D01*
X571401Y582529D01*
X578739Y584732D02*
X578739Y578123D01*
X575434Y578123D01*
X574333Y579224D01*
X574333Y581427D01*
X575434Y582529D01*
X578739Y582529D01*
X581817Y582529D02*
X581817Y579224D01*
X582919Y578123D01*
X584020Y579224D01*
X585122Y578123D01*
X586223Y579224D01*
X586223Y582529D01*
X590403Y582529D02*
X592606Y582529D01*
X593708Y581427D01*
X593708Y578123D01*
X590403Y578123D01*
X589301Y579224D01*
X590403Y580326D01*
X593708Y580326D01*
X596785Y578123D02*
X596785Y582529D01*
X596785Y580326D02*
X598988Y582529D01*
X600090Y582529D01*
X604124Y578123D02*
X606327Y578123D01*
X604124Y578123D02*
X603022Y579224D01*
X603022Y581427D01*
X604124Y582529D01*
X606327Y582529D01*
X607428Y581427D01*
X607428Y580326D01*
X603022Y580326D01*
X89905Y226078D02*
X87702Y226078D01*
X86601Y224976D01*
X86601Y220570D01*
X87702Y219468D01*
X89905Y219468D01*
X91007Y220570D01*
X91007Y224976D01*
X89905Y226078D01*
X94085Y223875D02*
X94085Y217265D01*
X94085Y223875D02*
X97390Y223875D01*
X98491Y222773D01*
X98491Y220570D01*
X97390Y219468D01*
X94085Y219468D01*
X102670Y219468D02*
X104874Y219468D01*
X102670Y219468D02*
X101569Y220570D01*
X101569Y222773D01*
X102670Y223875D01*
X104874Y223875D01*
X105975Y222773D01*
X105975Y221672D01*
X101569Y221672D01*
X109053Y219468D02*
X109053Y223875D01*
X112358Y223875D01*
X113459Y222773D01*
X113459Y219468D01*
X116537Y226078D02*
X120944Y226078D01*
X116537Y226078D02*
X116537Y219468D01*
X120944Y219468D01*
X118740Y222773D02*
X116537Y222773D01*
X124021Y223875D02*
X124021Y219468D01*
X124021Y223875D02*
X127326Y223875D01*
X128428Y222773D01*
X128428Y219468D01*
X132607Y219468D02*
X134810Y219468D01*
X132607Y219468D02*
X131506Y220570D01*
X131506Y222773D01*
X132607Y223875D01*
X134810Y223875D01*
X135912Y222773D01*
X135912Y221672D01*
X131506Y221672D01*
X138990Y219468D02*
X138990Y223875D01*
X138990Y221672D02*
X141193Y223875D01*
X142294Y223875D01*
X147430Y217265D02*
X148531Y217265D01*
X149633Y218367D01*
X149633Y223875D01*
X146328Y223875D01*
X145226Y222773D01*
X145226Y220570D01*
X146328Y219468D01*
X149633Y219468D01*
X152711Y220570D02*
X152711Y223875D01*
X152711Y220570D02*
X153812Y219468D01*
X157117Y219468D01*
X157117Y218367D02*
X157117Y223875D01*
X157117Y218367D02*
X156015Y217265D01*
X154914Y217265D01*
X160195Y219468D02*
X160195Y226078D01*
X162398Y223875D01*
X164601Y226078D01*
X164601Y219468D01*
X168781Y219468D02*
X170984Y219468D01*
X172085Y220570D01*
X172085Y222773D01*
X170984Y223875D01*
X168781Y223875D01*
X167679Y222773D01*
X167679Y220570D01*
X168781Y219468D01*
X175163Y219468D02*
X175163Y223875D01*
X178468Y223875D01*
X179569Y222773D01*
X179569Y219468D01*
X182647Y223875D02*
X183749Y223875D01*
X183749Y219468D01*
X184850Y219468D02*
X182647Y219468D01*
X183749Y226078D02*
X183749Y227180D01*
X188738Y224976D02*
X188738Y220570D01*
X189840Y219468D01*
X189840Y223875D02*
X187637Y223875D01*
X193728Y219468D02*
X195931Y219468D01*
X197033Y220570D01*
X197033Y222773D01*
X195931Y223875D01*
X193728Y223875D01*
X192626Y222773D01*
X192626Y220570D01*
X193728Y219468D01*
X200110Y219468D02*
X200110Y223875D01*
X200110Y221672D02*
X202313Y223875D01*
X203415Y223875D01*
X86601Y231968D02*
X86601Y238578D01*
X86601Y231968D02*
X89905Y231968D01*
X91007Y233070D01*
X91007Y237476D01*
X89905Y238578D01*
X86601Y238578D01*
X95186Y231968D02*
X97390Y231968D01*
X95186Y231968D02*
X94085Y233070D01*
X94085Y235273D01*
X95186Y236375D01*
X97390Y236375D01*
X98491Y235273D01*
X98491Y234172D01*
X94085Y234172D01*
X101569Y236375D02*
X103772Y231968D01*
X105975Y236375D01*
X110155Y231968D02*
X112358Y231968D01*
X110155Y231968D02*
X109053Y233070D01*
X109053Y235273D01*
X110155Y236375D01*
X112358Y236375D01*
X113459Y235273D01*
X113459Y234172D01*
X109053Y234172D01*
X116537Y238578D02*
X117639Y238578D01*
X117639Y231968D01*
X118740Y231968D02*
X116537Y231968D01*
X122628Y231968D02*
X124831Y231968D01*
X125933Y233070D01*
X125933Y235273D01*
X124831Y236375D01*
X122628Y236375D01*
X121527Y235273D01*
X121527Y233070D01*
X122628Y231968D01*
X129011Y229765D02*
X129011Y236375D01*
X132316Y236375D01*
X133417Y235273D01*
X133417Y233070D01*
X132316Y231968D01*
X129011Y231968D01*
X136495Y231968D02*
X136495Y236375D01*
X137597Y236375D01*
X138698Y235273D01*
X138698Y231968D01*
X138698Y235273D02*
X139800Y236375D01*
X140901Y235273D01*
X140901Y231968D01*
X145081Y231968D02*
X147284Y231968D01*
X145081Y231968D02*
X143979Y233070D01*
X143979Y235273D01*
X145081Y236375D01*
X147284Y236375D01*
X148386Y235273D01*
X148386Y234172D01*
X143979Y234172D01*
X151463Y231968D02*
X151463Y236375D01*
X154768Y236375D01*
X155870Y235273D01*
X155870Y231968D01*
X160049Y233070D02*
X160049Y237476D01*
X160049Y233070D02*
X161151Y231968D01*
X161151Y236375D02*
X158947Y236375D01*
X171421Y238578D02*
X171421Y231968D01*
X171421Y238578D02*
X174726Y238578D01*
X175827Y237476D01*
X175827Y236375D01*
X174726Y235273D01*
X175827Y234172D01*
X175827Y233070D01*
X174726Y231968D01*
X171421Y231968D01*
X171421Y235273D02*
X174726Y235273D01*
X180007Y231968D02*
X182210Y231968D01*
X183312Y233070D01*
X183312Y235273D01*
X182210Y236375D01*
X180007Y236375D01*
X178905Y235273D01*
X178905Y233070D01*
X180007Y231968D01*
X187491Y236375D02*
X189694Y236375D01*
X190796Y235273D01*
X190796Y231968D01*
X187491Y231968D01*
X186389Y233070D01*
X187491Y234172D01*
X190796Y234172D01*
X193873Y231968D02*
X193873Y236375D01*
X193873Y234172D02*
X196077Y236375D01*
X197178Y236375D01*
X204517Y238578D02*
X204517Y231968D01*
X201212Y231968D01*
X200110Y233070D01*
X200110Y235273D01*
X201212Y236375D01*
X204517Y236375D01*
D11*
X92193Y244976D02*
X88803Y244976D01*
X87109Y246671D01*
X87109Y250061D01*
X88803Y251756D01*
X92193Y251756D01*
X93888Y250061D01*
X93888Y248366D01*
X87109Y248366D01*
X98803Y244976D02*
X98803Y251756D01*
X100497Y251756D01*
X102192Y250061D01*
X102192Y244976D01*
X102192Y250061D02*
X103887Y251756D01*
X105582Y250061D01*
X105582Y244976D01*
X112191Y244976D02*
X115581Y244976D01*
X117276Y246671D01*
X117276Y250061D01*
X115581Y251756D01*
X112191Y251756D01*
X110497Y250061D01*
X110497Y246671D01*
X112191Y244976D01*
X122190Y244976D02*
X122190Y251756D01*
X127275Y251756D01*
X128970Y250061D01*
X128970Y244976D01*
X138969Y255145D02*
X140664Y253450D01*
X138969Y255145D02*
X135579Y255145D01*
X133884Y253450D01*
X133884Y251756D01*
X135579Y250061D01*
X138969Y250061D01*
X140664Y248366D01*
X140664Y246671D01*
X138969Y244976D01*
X135579Y244976D01*
X133884Y246671D01*
X148968Y244976D02*
X148968Y255145D01*
X145578Y255145D02*
X152358Y255145D01*
X157272Y255145D02*
X157272Y244976D01*
X160662Y251756D02*
X157272Y255145D01*
X160662Y251756D02*
X164052Y255145D01*
X164052Y244976D01*
X168966Y253450D02*
X170661Y255145D01*
X174051Y255145D01*
X175745Y253450D01*
X175745Y251756D01*
X174051Y250061D01*
X172356Y250061D01*
X174051Y250061D02*
X175745Y248366D01*
X175745Y246671D01*
X174051Y244976D01*
X170661Y244976D01*
X168966Y246671D01*
X180660Y244976D02*
X187439Y244976D01*
X180660Y244976D02*
X187439Y251756D01*
X187439Y253450D01*
X185745Y255145D01*
X182355Y255145D01*
X180660Y253450D01*
X192354Y251756D02*
X192354Y244976D01*
X192354Y251756D02*
X194049Y251756D01*
X195744Y250061D01*
X195744Y244976D01*
X195744Y250061D02*
X197439Y251756D01*
X199133Y250061D01*
X199133Y244976D01*
X204048Y251756D02*
X205743Y251756D01*
X205743Y244976D01*
X204048Y244976D02*
X207438Y244976D01*
X205743Y255145D02*
X205743Y256840D01*
X211844Y251756D02*
X211844Y244976D01*
X211844Y251756D02*
X216929Y251756D01*
X218623Y250061D01*
X218623Y244976D01*
X223538Y251756D02*
X225233Y251756D01*
X225233Y244976D01*
X223538Y244976D02*
X226928Y244976D01*
X225233Y255145D02*
X225233Y256840D01*
D10*
X141873Y210799D02*
X144076Y206392D01*
X146279Y210799D01*
X149357Y211900D02*
X149357Y207494D01*
X149357Y211900D02*
X150458Y213002D01*
X152662Y213002D01*
X153763Y211900D01*
X153763Y207494D01*
X152662Y206392D01*
X150458Y206392D01*
X149357Y207494D01*
X153763Y211900D01*
X156841Y207494D02*
X156841Y206392D01*
X156841Y207494D02*
X157943Y207494D01*
X157943Y206392D01*
X156841Y206392D01*
X160583Y211900D02*
X161685Y213002D01*
X163888Y213002D01*
X164989Y211900D01*
X164989Y210799D01*
X163888Y209697D01*
X162786Y209697D01*
X163888Y209697D02*
X164989Y208596D01*
X164989Y207494D01*
X163888Y206392D01*
X161685Y206392D01*
X160583Y207494D01*
D12*
X706167Y223827D02*
X712268Y223827D01*
X712268Y226877D01*
X711251Y227894D01*
X707184Y227894D01*
X706167Y226877D01*
X706167Y223827D01*
X712268Y231392D02*
X712268Y233426D01*
X712268Y231392D02*
X711251Y230376D01*
X709218Y230376D01*
X708201Y231392D01*
X708201Y233426D01*
X709218Y234443D01*
X710235Y234443D01*
X710235Y230376D01*
X712268Y236924D02*
X712268Y239975D01*
X711251Y240992D01*
X710235Y239975D01*
X710235Y237941D01*
X709218Y236924D01*
X708201Y237941D01*
X708201Y240992D01*
X708201Y243473D02*
X708201Y244490D01*
X712268Y244490D01*
X712268Y245506D02*
X712268Y243473D01*
X706167Y244490D02*
X705150Y244490D01*
X714302Y249872D02*
X714302Y250889D01*
X713285Y251906D01*
X708201Y251906D01*
X708201Y248855D01*
X709218Y247839D01*
X711251Y247839D01*
X712268Y248855D01*
X712268Y251906D01*
X712268Y254387D02*
X708201Y254387D01*
X708201Y257438D01*
X709218Y258455D01*
X712268Y258455D01*
X712268Y261953D02*
X712268Y263986D01*
X712268Y261953D02*
X711251Y260936D01*
X709218Y260936D01*
X708201Y261953D01*
X708201Y263986D01*
X709218Y265003D01*
X710235Y265003D01*
X710235Y260936D01*
X712268Y271552D02*
X706167Y271552D01*
X712268Y271552D02*
X712268Y268501D01*
X711251Y267484D01*
X709218Y267484D01*
X708201Y268501D01*
X708201Y271552D01*
X708201Y280582D02*
X708201Y281598D01*
X712268Y281598D01*
X712268Y280582D02*
X712268Y282615D01*
X706167Y281598D02*
X705150Y281598D01*
X708201Y284947D02*
X712268Y284947D01*
X708201Y284947D02*
X708201Y287998D01*
X709218Y289015D01*
X712268Y289015D01*
X758637Y224635D02*
X764739Y224635D01*
X764739Y228702D02*
X758637Y224635D01*
X758637Y228702D02*
X764739Y228702D01*
X764739Y232200D02*
X764739Y234234D01*
X763722Y235251D01*
X761688Y235251D01*
X760671Y234234D01*
X760671Y232200D01*
X761688Y231183D01*
X763722Y231183D01*
X764739Y232200D01*
X764739Y237732D02*
X760671Y237732D01*
X762705Y237732D02*
X760671Y239766D01*
X760671Y240782D01*
X759654Y244206D02*
X763722Y244206D01*
X764739Y245223D01*
X760671Y245223D02*
X760671Y243189D01*
X758637Y247555D02*
X764739Y247555D01*
X761688Y247555D02*
X760671Y248572D01*
X760671Y250605D01*
X761688Y251622D01*
X764739Y251622D01*
X764739Y260652D02*
X758637Y260652D01*
X762705Y262686D02*
X764739Y260652D01*
X762705Y262686D02*
X764739Y264719D01*
X758637Y264719D01*
X760671Y268217D02*
X760671Y270251D01*
X761688Y271268D01*
X764739Y271268D01*
X764739Y268217D01*
X763722Y267201D01*
X762705Y268217D01*
X762705Y271268D01*
X758637Y273749D02*
X758637Y274766D01*
X764739Y274766D01*
X764739Y273749D02*
X764739Y275783D01*
X764739Y279132D02*
X764739Y281166D01*
X764739Y279132D02*
X763722Y278115D01*
X761688Y278115D01*
X760671Y279132D01*
X760671Y281166D01*
X761688Y282182D01*
X762705Y282182D01*
X762705Y278115D01*
X764739Y284664D02*
X764739Y287714D01*
X763722Y288731D01*
X762705Y287714D01*
X762705Y285680D01*
X761688Y284664D01*
X760671Y285680D01*
X760671Y288731D01*
X770857Y225509D02*
X776958Y225509D01*
X772890Y227543D02*
X770857Y225509D01*
X772890Y227543D02*
X770857Y229577D01*
X776958Y229577D01*
X772890Y233075D02*
X772890Y235108D01*
X773907Y236125D01*
X776958Y236125D01*
X776958Y233075D01*
X775941Y232058D01*
X774924Y233075D01*
X774924Y236125D01*
X776958Y242674D02*
X770857Y242674D01*
X776958Y242674D02*
X776958Y239623D01*
X775941Y238606D01*
X773907Y238606D01*
X772890Y239623D01*
X772890Y242674D01*
X776958Y246172D02*
X776958Y248206D01*
X776958Y246172D02*
X775941Y245155D01*
X773907Y245155D01*
X772890Y246172D01*
X772890Y248206D01*
X773907Y249222D01*
X774924Y249222D01*
X774924Y245155D01*
X772890Y258252D02*
X772890Y259269D01*
X776958Y259269D01*
X776958Y258252D02*
X776958Y260286D01*
X770857Y259269D02*
X769840Y259269D01*
X772890Y262618D02*
X776958Y262618D01*
X772890Y262618D02*
X772890Y265669D01*
X773907Y266685D01*
X776958Y266685D01*
X775941Y275715D02*
X770857Y275715D01*
X775941Y275715D02*
X776958Y276732D01*
X776958Y278766D01*
X775941Y279783D01*
X770857Y279783D01*
X770857Y282264D02*
X776958Y282264D01*
X774924Y282264D02*
X770857Y286331D01*
X773907Y283281D02*
X776958Y286331D01*
D13*
X753449Y239226D03*
D14*
X753385Y239194D03*
D15*
X753322Y239226D03*
D16*
X753258Y239195D03*
D17*
X753258Y241195D03*
D18*
X753195Y239195D03*
D19*
X753195Y241163D03*
D20*
X753131Y239194D03*
D21*
X753131Y241131D03*
D22*
X753068Y239226D03*
D23*
X753068Y241100D03*
D24*
X753004Y239258D03*
D25*
X753004Y241099D03*
D26*
X753004Y270214D03*
D27*
X752941Y239258D03*
D28*
X752941Y241036D03*
D13*
X752941Y270214D03*
D29*
X752877Y239258D03*
D30*
X752877Y241004D03*
D14*
X752877Y270182D03*
D31*
X752814Y239290D03*
D32*
X752814Y241004D03*
D33*
X752814Y270182D03*
D34*
X752750Y239353D03*
D35*
X752750Y240941D03*
D26*
X752750Y249132D03*
X752750Y250783D03*
D36*
X752750Y270151D03*
D37*
X752750Y271675D03*
D19*
X752687Y239385D03*
D38*
X752687Y240941D03*
D27*
X752687Y249164D03*
D39*
X752687Y250720D03*
D18*
X752687Y270183D03*
D40*
X752687Y271706D03*
D41*
X752623Y240465D03*
D42*
X752623Y249196D03*
D43*
X752623Y250720D03*
D44*
X752623Y270214D03*
D45*
X752623Y271675D03*
D46*
X752623Y275390D03*
D47*
X752623Y281073D03*
D48*
X752560Y240496D03*
D49*
X752560Y249196D03*
D50*
X752560Y250688D03*
D51*
X752560Y270278D03*
D52*
X752560Y271643D03*
D53*
X752560Y275421D03*
D33*
X752560Y281041D03*
D54*
X752496Y240560D03*
D55*
X752496Y244401D03*
D56*
X752496Y249227D03*
D57*
X752496Y250656D03*
D58*
X752496Y271294D03*
D59*
X752496Y275389D03*
D36*
X752496Y281073D03*
D60*
X752433Y240591D03*
D61*
X752433Y244338D03*
D62*
X752433Y249228D03*
D63*
X752433Y250656D03*
D61*
X752433Y271389D03*
D64*
X752433Y275421D03*
D65*
X752433Y279930D03*
D18*
X752433Y281041D03*
D66*
X752369Y240687D03*
D54*
X752369Y244243D03*
D67*
X752369Y249259D03*
D42*
X752369Y250593D03*
D68*
X752369Y271421D03*
D69*
X752369Y275421D03*
D70*
X752369Y280057D03*
D16*
X752369Y281041D03*
D71*
X752306Y242496D03*
D72*
X752306Y249799D03*
D73*
X752306Y271516D03*
D74*
X752306Y275390D03*
D75*
X752306Y280343D03*
D76*
X752242Y242592D03*
D77*
X752242Y249735D03*
D47*
X752242Y253006D03*
D78*
X752242Y271611D03*
D79*
X752242Y275199D03*
D80*
X752242Y280311D03*
D81*
X752179Y242687D03*
D61*
X752179Y249672D03*
D33*
X752179Y253037D03*
D82*
X752179Y273770D03*
D83*
X752179Y280279D03*
D84*
X752115Y242814D03*
D59*
X752115Y249608D03*
D85*
X752115Y253069D03*
X752115Y254212D03*
D86*
X752115Y273802D03*
D87*
X752115Y280216D03*
D88*
X752052Y242941D03*
D73*
X752052Y249482D03*
D18*
X752052Y253101D03*
D89*
X752052Y254244D03*
D33*
X752052Y264150D03*
D81*
X752052Y273865D03*
D90*
X752052Y280152D03*
D91*
X751988Y245037D03*
D43*
X751988Y253133D03*
D56*
X751988Y254244D03*
D36*
X751988Y264182D03*
D86*
X751988Y273929D03*
D92*
X751988Y280120D03*
D93*
X751925Y245068D03*
D63*
X751925Y253196D03*
D40*
X751925Y254244D03*
D18*
X751925Y264214D03*
D81*
X751925Y273992D03*
D94*
X751925Y280057D03*
D95*
X751861Y245100D03*
D96*
X751861Y253958D03*
D43*
X751861Y264182D03*
D86*
X751861Y274056D03*
D97*
X751861Y280025D03*
D98*
X751798Y245132D03*
D99*
X751798Y253990D03*
D50*
X751798Y264213D03*
D81*
X751798Y274119D03*
D72*
X751798Y279962D03*
D100*
X751734Y245132D03*
D101*
X751734Y254022D03*
D36*
X751734Y257324D03*
D17*
X751734Y262912D03*
D102*
X751734Y264182D03*
D103*
X751734Y274215D03*
D104*
X751734Y279930D03*
D105*
X751671Y245164D03*
D90*
X751671Y254053D03*
D23*
X751671Y257483D03*
D19*
X751671Y262880D03*
D51*
X751671Y264182D03*
D106*
X751671Y274310D03*
D107*
X751671Y279834D03*
D108*
X751607Y245163D03*
D109*
X751607Y254117D03*
D110*
X751607Y257609D03*
D111*
X751607Y262880D03*
D29*
X751607Y264086D03*
D112*
X751607Y275961D03*
D113*
X751544Y245227D03*
D94*
X751544Y254149D03*
D114*
X751544Y257514D03*
D107*
X751544Y263261D03*
D33*
X751544Y271135D03*
X751544Y271706D03*
D115*
X751544Y276469D03*
D116*
X751480Y245290D03*
D97*
X751480Y254244D03*
D117*
X751480Y257482D03*
D118*
X751480Y263102D03*
D119*
X751480Y276437D03*
D120*
X751417Y245449D03*
D121*
X751417Y254276D03*
D122*
X751417Y257514D03*
D123*
X751417Y263039D03*
D13*
X751417Y269071D03*
D124*
X751417Y276374D03*
D125*
X751353Y245545D03*
D126*
X751353Y256244D03*
D78*
X751353Y262975D03*
D14*
X751353Y269103D03*
D127*
X751353Y276310D03*
D128*
X751290Y244243D03*
D61*
X751290Y249037D03*
D129*
X751290Y256371D03*
D130*
X751290Y262785D03*
D39*
X751290Y269135D03*
D18*
X751290Y270754D03*
D131*
X751290Y276247D03*
D132*
X751226Y244243D03*
D87*
X751226Y249164D03*
D133*
X751226Y256625D03*
D134*
X751226Y262404D03*
D16*
X751226Y269167D03*
D135*
X751226Y270818D03*
D136*
X751226Y275135D03*
D137*
X751226Y279676D03*
D138*
X751163Y244465D03*
D52*
X751163Y249227D03*
D139*
X751163Y258879D03*
D65*
X751163Y269262D03*
D140*
X751163Y274246D03*
D62*
X751163Y279708D03*
D26*
X751099Y237956D03*
D141*
X751099Y244497D03*
D67*
X751099Y249259D03*
D142*
X751099Y258911D03*
D57*
X751099Y269325D03*
D143*
X751099Y273961D03*
D33*
X751036Y237988D03*
D144*
X751036Y244433D03*
D22*
X751036Y249259D03*
D145*
X751036Y258911D03*
D27*
X751036Y269421D03*
D146*
X751036Y273834D03*
D14*
X750972Y238051D03*
D147*
X750972Y239734D03*
D148*
X750972Y244338D03*
D149*
X750972Y258943D03*
D150*
X750972Y273294D03*
D15*
X750909Y238083D03*
D49*
X750909Y239798D03*
D151*
X750909Y244275D03*
D152*
X750909Y258943D03*
D153*
X750909Y273294D03*
D16*
X750845Y238115D03*
D21*
X750845Y239861D03*
D154*
X750845Y244020D03*
D155*
X750845Y258943D03*
D156*
X750845Y273294D03*
D65*
X750782Y238147D03*
D157*
X750782Y243227D03*
D120*
X750782Y259038D03*
D158*
X750782Y273326D03*
D20*
X750718Y238178D03*
D159*
X750718Y243227D03*
D160*
X750718Y259260D03*
D161*
X750718Y273357D03*
D22*
X750655Y238210D03*
D162*
X750655Y243227D03*
D163*
X750655Y259197D03*
D164*
X750655Y273421D03*
D24*
X750591Y238306D03*
D150*
X750591Y243258D03*
D165*
X750591Y257705D03*
D87*
X750591Y262880D03*
D161*
X750591Y273421D03*
D89*
X750528Y238369D03*
D166*
X750528Y243290D03*
D167*
X750528Y257483D03*
D28*
X750528Y262944D03*
D168*
X750528Y271865D03*
D169*
X750528Y275866D03*
D34*
X750464Y238464D03*
D170*
X750464Y243322D03*
D171*
X750464Y257324D03*
D111*
X750464Y263007D03*
D87*
X750464Y270564D03*
D80*
X750464Y272818D03*
D117*
X750464Y275961D03*
D172*
X750401Y242846D03*
D173*
X750401Y257197D03*
D49*
X750401Y263039D03*
D75*
X750401Y270564D03*
D28*
X750401Y272723D03*
D174*
X750401Y276056D03*
D160*
X750337Y242877D03*
D165*
X750337Y257197D03*
D57*
X750337Y262975D03*
D55*
X750337Y270563D03*
D25*
X750337Y272659D03*
D175*
X750337Y276152D03*
D163*
X750274Y242941D03*
D176*
X750274Y257197D03*
D177*
X750274Y270532D03*
D23*
X750274Y272596D03*
D61*
X750274Y276152D03*
D160*
X750210Y243004D03*
D86*
X750210Y257228D03*
D21*
X750210Y270468D03*
D111*
X750210Y272532D03*
D175*
X750210Y276152D03*
D178*
X750147Y243036D03*
D179*
X750147Y257260D03*
D180*
X750147Y270437D03*
D181*
X750147Y272500D03*
D61*
X750147Y276152D03*
D182*
X750083Y243100D03*
D183*
X750083Y257324D03*
D184*
X750083Y272437D03*
D175*
X750083Y276152D03*
D178*
X750020Y243163D03*
D140*
X750020Y257355D03*
D185*
X750020Y272119D03*
D114*
X750020Y276183D03*
D160*
X749956Y243258D03*
D186*
X749956Y257419D03*
D55*
X749956Y272024D03*
D187*
X749956Y276183D03*
D163*
X749893Y243322D03*
D158*
X749893Y257451D03*
D188*
X749893Y271929D03*
D114*
X749893Y276183D03*
D109*
X749829Y239702D03*
D189*
X749829Y244529D03*
D47*
X749829Y252117D03*
D190*
X749829Y257514D03*
D30*
X749829Y271865D03*
D187*
X749829Y276183D03*
D75*
X749766Y239639D03*
D38*
X749766Y242084D03*
D191*
X749766Y245925D03*
D15*
X749766Y252180D03*
D192*
X749766Y257578D03*
D75*
X749766Y271770D03*
D114*
X749766Y276183D03*
D25*
X749702Y239575D03*
D193*
X749702Y242020D03*
D194*
X749702Y246211D03*
D16*
X749702Y252212D03*
D195*
X749702Y257609D03*
D196*
X749702Y271707D03*
D187*
X749702Y276183D03*
D19*
X749639Y239512D03*
D188*
X749639Y241957D03*
D197*
X749639Y246306D03*
D65*
X749639Y252244D03*
D198*
X749639Y255292D03*
D199*
X749639Y259959D03*
D75*
X749639Y271643D03*
D114*
X749639Y276183D03*
D43*
X749575Y239544D03*
D55*
X749575Y241861D03*
D200*
X749575Y246370D03*
D20*
X749575Y252339D03*
D201*
X749575Y255101D03*
D202*
X749575Y260149D03*
D196*
X749575Y271643D03*
D187*
X749575Y276183D03*
D203*
X749512Y241766D03*
D204*
X749512Y246465D03*
D51*
X749512Y252371D03*
D205*
X749512Y254974D03*
D206*
X749512Y260340D03*
D75*
X749512Y271580D03*
D114*
X749512Y276183D03*
D55*
X749448Y241671D03*
D207*
X749448Y246529D03*
D24*
X749448Y252466D03*
D208*
X749448Y254847D03*
D209*
X749448Y260499D03*
D210*
X749448Y271548D03*
D187*
X749448Y276183D03*
D52*
X749385Y241544D03*
D204*
X749385Y246592D03*
D211*
X749385Y254435D03*
D212*
X749385Y260626D03*
D213*
X749385Y271484D03*
D114*
X749385Y276183D03*
D210*
X749321Y241449D03*
D214*
X749321Y246624D03*
D215*
X749321Y254371D03*
D216*
X749321Y260785D03*
D55*
X749321Y271452D03*
D187*
X749321Y276183D03*
D52*
X749258Y241353D03*
D205*
X749258Y246719D03*
D217*
X749258Y254403D03*
D74*
X749258Y260912D03*
D52*
X749258Y271389D03*
D114*
X749258Y276183D03*
D55*
X749194Y241290D03*
D209*
X749194Y246783D03*
D134*
X749194Y254403D03*
D216*
X749194Y260975D03*
D55*
X749194Y271325D03*
D187*
X749194Y276183D03*
D52*
X749131Y241226D03*
D205*
X749131Y246846D03*
D218*
X749131Y254435D03*
D74*
X749131Y261102D03*
D219*
X749131Y269770D03*
D220*
X749131Y271294D03*
D114*
X749131Y276183D03*
D55*
X749067Y241163D03*
D216*
X749067Y246878D03*
D214*
X749067Y254498D03*
D216*
X749067Y261229D03*
D85*
X749067Y269833D03*
D55*
X749067Y271198D03*
D187*
X749067Y276183D03*
D52*
X749004Y241099D03*
D74*
X749004Y246942D03*
D221*
X749004Y254530D03*
D74*
X749004Y261293D03*
D65*
X749004Y269897D03*
D75*
X749004Y271072D03*
D114*
X749004Y276183D03*
D137*
X748940Y241068D03*
D216*
X748940Y247005D03*
D29*
X748940Y253482D03*
D87*
X748940Y255260D03*
D216*
X748940Y261420D03*
D222*
X748940Y270849D03*
D187*
X748940Y276183D03*
D52*
X748877Y241036D03*
D223*
X748877Y247100D03*
D83*
X748877Y255260D03*
D212*
X748877Y261515D03*
D13*
X748877Y267547D03*
D99*
X748877Y270818D03*
D114*
X748877Y276183D03*
D224*
X748813Y241004D03*
D225*
X748813Y247164D03*
D96*
X748813Y255228D03*
D216*
X748813Y261610D03*
D14*
X748813Y267579D03*
D35*
X748813Y270786D03*
D187*
X748813Y276183D03*
D28*
X748750Y240973D03*
D223*
X748750Y247227D03*
D226*
X748750Y255165D03*
D74*
X748750Y261737D03*
D39*
X748750Y267611D03*
D32*
X748750Y270849D03*
D61*
X748750Y276152D03*
D46*
X748686Y240973D03*
D227*
X748686Y247259D03*
D35*
X748686Y255165D03*
D216*
X748686Y261801D03*
D16*
X748686Y267643D03*
D55*
X748686Y270817D03*
D68*
X748686Y276120D03*
D28*
X748623Y240909D03*
D228*
X748623Y247322D03*
D83*
X748623Y255133D03*
D212*
X748623Y261896D03*
D18*
X748623Y267643D03*
D28*
X748623Y270818D03*
D229*
X748623Y276120D03*
D230*
X748559Y240877D03*
D227*
X748559Y247386D03*
D193*
X748559Y255101D03*
D208*
X748559Y261959D03*
D43*
X748559Y267611D03*
D25*
X748559Y270817D03*
D68*
X748559Y276120D03*
D231*
X748496Y240845D03*
D228*
X748496Y247449D03*
D32*
X748496Y255101D03*
D206*
X748496Y262054D03*
D50*
X748496Y267642D03*
D232*
X748496Y270786D03*
D229*
X748496Y276120D03*
D14*
X748432Y238750D03*
D25*
X748432Y240845D03*
D227*
X748432Y247513D03*
D196*
X748432Y255070D03*
D207*
X748432Y262150D03*
D20*
X748432Y267642D03*
D135*
X748432Y270818D03*
D59*
X748432Y276088D03*
D18*
X748369Y238814D03*
D177*
X748369Y240814D03*
D228*
X748369Y247576D03*
D75*
X748369Y255070D03*
D206*
X748369Y262245D03*
D22*
X748369Y267674D03*
D50*
X748369Y270754D03*
D233*
X748369Y276088D03*
D43*
X748305Y238909D03*
D234*
X748305Y240814D03*
D227*
X748305Y247640D03*
D210*
X748305Y255038D03*
D201*
X748305Y262340D03*
D57*
X748305Y267674D03*
D59*
X748305Y276088D03*
D22*
X748242Y238972D03*
D177*
X748242Y240814D03*
D130*
X748242Y247672D03*
D213*
X748242Y254974D03*
D218*
X748242Y262372D03*
D27*
X748242Y267643D03*
D233*
X748242Y276088D03*
D29*
X748178Y239131D03*
D235*
X748178Y240782D03*
D236*
X748178Y247735D03*
D55*
X748178Y254942D03*
D237*
X748178Y262467D03*
D147*
X748178Y267674D03*
D59*
X748178Y276088D03*
D61*
X748115Y240147D03*
D238*
X748115Y247767D03*
D13*
X748115Y253323D03*
D52*
X748115Y254942D03*
D197*
X748115Y262562D03*
D63*
X748115Y267674D03*
D174*
X748115Y276056D03*
D104*
X748051Y240179D03*
D66*
X748051Y247799D03*
D14*
X748051Y253418D03*
D30*
X748051Y254847D03*
D202*
X748051Y262626D03*
D147*
X748051Y267674D03*
D59*
X748051Y276024D03*
D94*
X747988Y240179D03*
D238*
X747988Y247831D03*
D18*
X747988Y253546D03*
D75*
X747988Y254689D03*
D197*
X747988Y262689D03*
D89*
X747988Y267642D03*
D233*
X747988Y276024D03*
D101*
X747924Y240179D03*
D239*
X747924Y247894D03*
D96*
X747924Y254466D03*
D134*
X747924Y262785D03*
D240*
X747924Y267674D03*
D241*
X747924Y275993D03*
D83*
X747861Y240210D03*
D130*
X747861Y247926D03*
D75*
X747861Y254498D03*
D199*
X747861Y262817D03*
D242*
X747861Y267674D03*
D243*
X747861Y275993D03*
D210*
X747797Y240179D03*
D239*
X747797Y247958D03*
D224*
X747797Y254466D03*
D215*
X747797Y262943D03*
D135*
X747797Y267643D03*
D241*
X747797Y275993D03*
D28*
X747734Y240211D03*
D238*
X747734Y248021D03*
D231*
X747734Y254498D03*
D244*
X747734Y263039D03*
D180*
X747734Y267643D03*
D73*
X747734Y275961D03*
D184*
X747670Y240179D03*
D66*
X747670Y248053D03*
D67*
X747670Y254466D03*
D245*
X747670Y263102D03*
D37*
X747670Y267611D03*
D118*
X747670Y275929D03*
D63*
X747607Y240115D03*
D238*
X747607Y248085D03*
D246*
X747607Y254530D03*
D191*
X747607Y263197D03*
D49*
X747607Y267611D03*
D174*
X747607Y275929D03*
D239*
X747543Y248148D03*
D247*
X747543Y263261D03*
D70*
X747543Y267611D03*
D248*
X747543Y275898D03*
D238*
X747480Y248148D03*
D13*
X747480Y253069D03*
D168*
X747480Y263356D03*
D62*
X747480Y267579D03*
D73*
X747480Y275898D03*
D239*
X747416Y248212D03*
D36*
X747416Y253133D03*
D249*
X747416Y263420D03*
D21*
X747416Y267547D03*
D248*
X747416Y275834D03*
D250*
X747353Y248243D03*
D18*
X747353Y253165D03*
D251*
X747353Y263515D03*
D40*
X747353Y267515D03*
D73*
X747353Y275834D03*
D239*
X747289Y248275D03*
D44*
X747289Y253196D03*
D252*
X747289Y263642D03*
D253*
X747289Y267420D03*
D254*
X747289Y275802D03*
D130*
X747226Y248307D03*
D255*
X747226Y253196D03*
D256*
X747226Y264626D03*
D257*
X747226Y275802D03*
D236*
X747162Y248370D03*
D20*
X747162Y253228D03*
D258*
X747162Y264626D03*
D117*
X747162Y275770D03*
D250*
X747099Y248370D03*
D27*
X747099Y253228D03*
D167*
X747099Y264658D03*
D259*
X747099Y275770D03*
D66*
X747035Y248434D03*
D24*
X747035Y253228D03*
D260*
X747035Y264626D03*
D117*
X747035Y275707D03*
D228*
X746972Y248465D03*
D246*
X746972Y253260D03*
D261*
X746972Y264658D03*
D64*
X746972Y275675D03*
D227*
X746908Y248529D03*
D29*
X746908Y253228D03*
D262*
X746908Y264658D03*
D78*
X746908Y275675D03*
D228*
X746845Y248529D03*
D31*
X746845Y253260D03*
D261*
X746845Y264658D03*
D263*
X746845Y275612D03*
D227*
X746781Y248592D03*
D135*
X746781Y253228D03*
D264*
X746781Y264658D03*
D41*
X746781Y275580D03*
D223*
X746718Y248624D03*
D180*
X746718Y253228D03*
D265*
X746718Y264658D03*
D266*
X746718Y275580D03*
D225*
X746654Y248688D03*
D34*
X746654Y253196D03*
D264*
X746654Y264658D03*
D267*
X746654Y275548D03*
D74*
X746591Y248720D03*
D19*
X746591Y253228D03*
D265*
X746591Y264658D03*
D60*
X746591Y275516D03*
D216*
X746527Y248783D03*
D268*
X746527Y253196D03*
D269*
X746527Y264658D03*
D270*
X746527Y275485D03*
D212*
X746464Y248815D03*
D62*
X746464Y253165D03*
D271*
X746464Y264658D03*
D238*
X746464Y275453D03*
D214*
X746400Y248846D03*
D272*
X746400Y253165D03*
D273*
X746400Y264626D03*
D239*
X746400Y275390D03*
D206*
X746337Y248910D03*
D274*
X746337Y253133D03*
D275*
X746337Y264595D03*
D130*
X746337Y275358D03*
D207*
X746273Y248942D03*
D111*
X746273Y253101D03*
D276*
X746273Y264626D03*
D227*
X746273Y275326D03*
D277*
X746210Y249005D03*
D23*
X746210Y253038D03*
D278*
X746210Y264594D03*
D228*
X746210Y275262D03*
D279*
X746146Y249069D03*
D234*
X746146Y253006D03*
D154*
X746146Y264594D03*
D225*
X746146Y275231D03*
D199*
X746083Y249164D03*
D28*
X746083Y252911D03*
D280*
X746083Y264563D03*
D205*
X746083Y275167D03*
D281*
X746019Y249259D03*
D30*
X746019Y252815D03*
D282*
X746019Y264563D03*
D214*
X746019Y275135D03*
D271*
X745956Y250434D03*
D283*
X745956Y264531D03*
D284*
X745956Y275104D03*
D269*
X745892Y250434D03*
D42*
X745892Y260626D03*
D285*
X745892Y264531D03*
D200*
X745892Y275072D03*
D14*
X745892Y278564D03*
D271*
X745829Y250434D03*
D88*
X745829Y263706D03*
D286*
X745829Y275040D03*
D50*
X745829Y278437D03*
D102*
X745765Y241322D03*
D287*
X745765Y250434D03*
D288*
X745765Y263578D03*
D215*
X745765Y275008D03*
D17*
X745765Y278279D03*
D62*
X745702Y241544D03*
D275*
X745702Y250434D03*
D289*
X745702Y263483D03*
D290*
X745702Y275675D03*
D184*
X745638Y241703D03*
D287*
X745638Y250434D03*
D291*
X745638Y263356D03*
D132*
X745638Y275612D03*
D40*
X745575Y241798D03*
D275*
X745575Y250434D03*
D292*
X745575Y263293D03*
D293*
X745575Y275548D03*
D67*
X745511Y241893D03*
D294*
X745511Y250466D03*
D186*
X745511Y263198D03*
D295*
X745511Y275453D03*
D232*
X745448Y241957D03*
D265*
X745448Y250561D03*
D296*
X745448Y263134D03*
D283*
X745448Y275390D03*
D297*
X745384Y242084D03*
D262*
X745384Y250688D03*
D298*
X745384Y263039D03*
D285*
X745384Y275326D03*
D23*
X745321Y242179D03*
D256*
X745321Y250783D03*
D299*
X745321Y262975D03*
D280*
X745321Y275231D03*
D235*
X745257Y242243D03*
D76*
X745257Y250847D03*
D298*
X745257Y262912D03*
D276*
X745257Y275167D03*
D177*
X745194Y242338D03*
D82*
X745194Y250910D03*
D296*
X745194Y262817D03*
D275*
X745194Y275072D03*
D253*
X745130Y242401D03*
D300*
X745130Y250974D03*
D186*
X745130Y262753D03*
D294*
X745130Y274977D03*
D231*
X745067Y242433D03*
D179*
X745067Y251037D03*
D296*
X745067Y262690D03*
D301*
X745067Y274850D03*
D25*
X745003Y242496D03*
D183*
X745003Y251101D03*
D186*
X745003Y262626D03*
D136*
X745003Y274627D03*
D185*
X744940Y242528D03*
D88*
X744940Y251133D03*
D296*
X744940Y262563D03*
D302*
X744940Y274405D03*
D25*
X744876Y242560D03*
D303*
X744876Y251164D03*
D186*
X744876Y262499D03*
D288*
X744876Y274119D03*
D304*
X744813Y242592D03*
D140*
X744813Y251196D03*
D296*
X744813Y262436D03*
D305*
X744813Y273897D03*
D46*
X744749Y242624D03*
D306*
X744749Y251228D03*
D291*
X744749Y262340D03*
D150*
X744749Y273802D03*
D185*
X744686Y242655D03*
D296*
X744686Y251260D03*
D292*
X744686Y262277D03*
D307*
X744686Y273675D03*
D46*
X744622Y242687D03*
D308*
X744622Y251291D03*
D291*
X744622Y262213D03*
D309*
X744622Y273580D03*
D28*
X744559Y242687D03*
D158*
X744559Y251355D03*
D140*
X744559Y262181D03*
D310*
X744559Y273453D03*
D137*
X744495Y242719D03*
D159*
X744495Y251355D03*
D311*
X744495Y262118D03*
D312*
X744495Y273358D03*
D220*
X744432Y242719D03*
D153*
X744432Y251387D03*
D88*
X744432Y262055D03*
D313*
X744432Y273231D03*
D55*
X744368Y242750D03*
D190*
X744368Y251418D03*
D183*
X744368Y262023D03*
D314*
X744368Y273135D03*
D213*
X744305Y242782D03*
D315*
X744305Y251450D03*
D316*
X744305Y261927D03*
D317*
X744305Y273072D03*
D30*
X744241Y242782D03*
D318*
X744241Y251418D03*
D143*
X744241Y261896D03*
D319*
X744241Y272976D03*
D32*
X744178Y242782D03*
D307*
X744178Y251450D03*
D320*
X744178Y261801D03*
D321*
X744178Y272881D03*
D193*
X744114Y242782D03*
D309*
X744114Y251482D03*
D300*
X744114Y261769D03*
D314*
X744114Y272754D03*
D73*
X744051Y243259D03*
D322*
X744051Y251482D03*
D81*
X744051Y261673D03*
D313*
X744051Y272659D03*
D41*
X743987Y243386D03*
D195*
X743987Y251513D03*
D103*
X743987Y261642D03*
D312*
X743987Y272532D03*
D238*
X743924Y243449D03*
D323*
X743924Y251513D03*
D82*
X743924Y261578D03*
D313*
X743924Y272469D03*
D227*
X743860Y243512D03*
D312*
X743860Y251450D03*
D189*
X743860Y261547D03*
D324*
X743860Y272373D03*
D206*
X743797Y243576D03*
D325*
X743797Y251387D03*
D176*
X743797Y261515D03*
D326*
X743797Y272246D03*
D200*
X743733Y243640D03*
D327*
X743733Y251323D03*
D258*
X743733Y261451D03*
D170*
X743733Y272151D03*
D197*
X743670Y243639D03*
D328*
X743670Y251291D03*
D329*
X743670Y261388D03*
D315*
X743670Y272024D03*
D79*
X743606Y243640D03*
D330*
X743606Y251259D03*
D331*
X743606Y261356D03*
D156*
X743606Y271897D03*
D332*
X743543Y243671D03*
D172*
X743543Y251228D03*
D333*
X743543Y261324D03*
D296*
X743543Y271770D03*
D334*
X743479Y243671D03*
D335*
X743479Y251164D03*
D262*
X743479Y261292D03*
D288*
X743479Y271643D03*
D336*
X743416Y243671D03*
D337*
X743416Y251164D03*
D301*
X743416Y261261D03*
D88*
X743416Y271516D03*
D338*
X743352Y243671D03*
D339*
X743352Y251164D03*
D264*
X743352Y261229D03*
D340*
X743352Y271357D03*
D341*
X743289Y243639D03*
D342*
X743289Y251164D03*
D265*
X743289Y261229D03*
D320*
X743289Y271262D03*
D343*
X743225Y248688D03*
D344*
X743225Y261197D03*
D86*
X743225Y271198D03*
D345*
X743162Y248688D03*
D346*
X743162Y261134D03*
D82*
X743162Y271103D03*
D347*
X743098Y248656D03*
D348*
X743098Y261134D03*
D76*
X743098Y271040D03*
D349*
X743035Y248624D03*
D271*
X743035Y261102D03*
D71*
X743035Y270944D03*
D350*
X742971Y248624D03*
D269*
X742971Y261102D03*
D258*
X742971Y270849D03*
D351*
X742908Y248624D03*
D128*
X742908Y261134D03*
D173*
X742908Y270786D03*
D352*
X742844Y248593D03*
D287*
X742844Y261102D03*
D262*
X742844Y270690D03*
D353*
X742781Y248592D03*
D275*
X742781Y261102D03*
D301*
X742781Y270659D03*
D354*
X742717Y248593D03*
D287*
X742717Y261102D03*
D264*
X742717Y270564D03*
D355*
X742654Y248592D03*
D278*
X742654Y261102D03*
D356*
X742654Y270468D03*
D357*
X742590Y248624D03*
D154*
X742590Y261102D03*
D294*
X742590Y270405D03*
D358*
X742527Y248656D03*
D278*
X742527Y261102D03*
D359*
X742527Y270278D03*
D360*
X742463Y248656D03*
D154*
X742463Y261102D03*
X742463Y270246D03*
D361*
X742400Y248656D03*
D283*
X742400Y261102D03*
D278*
X742400Y270182D03*
D362*
X742336Y248688D03*
D285*
X742336Y261102D03*
D282*
X742336Y270151D03*
D363*
X742273Y248720D03*
D283*
X742273Y261102D03*
X742273Y270056D03*
D364*
X742209Y248751D03*
D365*
X742209Y261134D03*
X742209Y270024D03*
D366*
X742146Y248783D03*
D367*
X742146Y261134D03*
D293*
X742146Y269960D03*
D368*
X742082Y248847D03*
D295*
X742082Y261165D03*
X742082Y269928D03*
D369*
X742019Y248910D03*
D370*
X742019Y261165D03*
D371*
X742019Y269897D03*
D372*
X741955Y249005D03*
D295*
X741955Y261165D03*
D373*
X741955Y269865D03*
D374*
X741892Y252053D03*
D290*
X741892Y269833D03*
D375*
X741828Y252021D03*
D376*
X741828Y269738D03*
D377*
X741765Y252021D03*
D378*
X741765Y269706D03*
D379*
X741701Y252022D03*
D380*
X741701Y269706D03*
D381*
X741638Y252022D03*
D151*
X741638Y269675D03*
D382*
X741574Y251990D03*
D383*
X741574Y269643D03*
D384*
X741511Y251990D03*
D385*
X741511Y269611D03*
D386*
X741447Y251990D03*
D387*
X741447Y269547D03*
D388*
X741384Y251990D03*
D389*
X741384Y269516D03*
D386*
X741320Y251990D03*
D148*
X741320Y269484D03*
D390*
X741257Y251958D03*
D391*
X741257Y269484D03*
D392*
X741193Y251990D03*
D393*
X741193Y269452D03*
D394*
X741130Y251958D03*
D395*
X741130Y269420D03*
D396*
X741066Y251990D03*
D397*
X741066Y269357D03*
D398*
X741003Y251990D03*
D395*
X741003Y269357D03*
D399*
X740939Y251990D03*
D397*
X740939Y269293D03*
D400*
X740876Y251990D03*
D395*
X740876Y269293D03*
D401*
X740812Y251990D03*
D397*
X740812Y269230D03*
D402*
X740749Y252022D03*
D395*
X740749Y269166D03*
D403*
X740685Y252022D03*
D397*
X740685Y269166D03*
D404*
X740622Y252021D03*
D395*
X740622Y269103D03*
D405*
X740558Y252053D03*
D393*
X740558Y269071D03*
D406*
X740495Y252117D03*
D391*
X740495Y269040D03*
D407*
X740431Y252117D03*
D148*
X740431Y268976D03*
D408*
X740368Y252149D03*
D409*
X740368Y268944D03*
D410*
X740304Y252180D03*
D411*
X740304Y268944D03*
D412*
X740241Y252180D03*
D385*
X740241Y268849D03*
D413*
X740177Y252212D03*
D414*
X740177Y268817D03*
D415*
X740114Y252244D03*
D151*
X740114Y268722D03*
D416*
X740050Y252307D03*
D376*
X740050Y268658D03*
D104*
X740050Y275104D03*
D417*
X739987Y252403D03*
D418*
X739987Y268595D03*
D122*
X739987Y275040D03*
D419*
X739923Y255292D03*
D202*
X739923Y274945D03*
D420*
X739860Y255292D03*
D421*
X739860Y274818D03*
D419*
X739796Y255292D03*
D422*
X739796Y274723D03*
D420*
X739733Y255292D03*
D378*
X739733Y274659D03*
D423*
X739669Y255228D03*
D365*
X739669Y274596D03*
D424*
X739606Y258403D03*
D425*
X739542Y258467D03*
D426*
X739479Y258530D03*
D427*
X739415Y258562D03*
D428*
X739352Y258594D03*
D429*
X739288Y258657D03*
D430*
X739225Y258689D03*
D431*
X739161Y258752D03*
D432*
X739098Y258753D03*
D433*
X739034Y258784D03*
D434*
X738971Y258816D03*
D435*
X738907Y258848D03*
D436*
X738844Y258879D03*
D437*
X738780Y258911D03*
D438*
X738717Y258943D03*
D439*
X738653Y258943D03*
D440*
X738590Y258975D03*
D441*
X738526Y258975D03*
D442*
X738463Y259007D03*
D443*
X738399Y259038D03*
D444*
X738336Y259038D03*
D445*
X738272Y243449D03*
D446*
X738272Y263769D03*
D172*
X738209Y243481D03*
D447*
X738209Y263832D03*
D448*
X738145Y243481D03*
D449*
X738145Y263864D03*
D172*
X738082Y243481D03*
D447*
X738082Y263896D03*
D448*
X738018Y243481D03*
D446*
X738018Y263959D03*
D450*
X737955Y243481D03*
D447*
X737955Y263959D03*
D182*
X737891Y243481D03*
D446*
X737891Y264023D03*
D450*
X737828Y243481D03*
D447*
X737828Y264086D03*
D215*
X737764Y240782D03*
D422*
X737764Y245767D03*
D446*
X737764Y264086D03*
D218*
X737701Y240592D03*
D451*
X737701Y245767D03*
D447*
X737701Y264150D03*
D208*
X737637Y240496D03*
D422*
X737637Y245767D03*
D446*
X737637Y264150D03*
D228*
X737574Y240401D03*
D395*
X737574Y245798D03*
D447*
X737574Y264213D03*
D66*
X737510Y240306D03*
D452*
X737510Y245767D03*
D449*
X737510Y264245D03*
D122*
X737447Y240242D03*
D453*
X737447Y245767D03*
D454*
X737447Y264309D03*
D54*
X737383Y240179D03*
D148*
X737383Y245799D03*
D455*
X737383Y264341D03*
D266*
X737320Y240147D03*
D391*
X737320Y245799D03*
D456*
X737320Y264372D03*
D117*
X737256Y240083D03*
D387*
X737256Y245798D03*
D455*
X737256Y264404D03*
D123*
X737193Y240052D03*
D385*
X737193Y245798D03*
D457*
X737193Y264436D03*
D248*
X737129Y240020D03*
D414*
X737129Y245830D03*
D458*
X737129Y264499D03*
D233*
X737066Y239956D03*
D459*
X737066Y245830D03*
D460*
X737066Y261451D03*
D199*
X737066Y277930D03*
D43*
X737002Y237131D03*
D68*
X737002Y239925D03*
D461*
X737002Y245862D03*
D375*
X737002Y261356D03*
D202*
X737002Y278056D03*
D462*
X736939Y237067D03*
D61*
X736939Y239893D03*
D463*
X736939Y245894D03*
D464*
X736939Y261261D03*
D218*
X736939Y278120D03*
D111*
X736875Y237035D03*
D175*
X736875Y239830D03*
D132*
X736875Y245894D03*
D465*
X736875Y261197D03*
D214*
X736875Y278247D03*
D466*
X736812Y237067D03*
D467*
X736812Y239798D03*
D293*
X736812Y245957D03*
D468*
X736812Y261197D03*
D223*
X736812Y278342D03*
D46*
X736748Y237036D03*
D77*
X736748Y239766D03*
D295*
X736748Y245989D03*
D469*
X736748Y261197D03*
D239*
X736748Y278438D03*
D52*
X736685Y237035D03*
D107*
X736685Y239766D03*
D367*
X736685Y246021D03*
D470*
X736685Y261642D03*
D471*
X736685Y278533D03*
D193*
X736621Y237067D03*
D472*
X736621Y239734D03*
D126*
X736621Y246084D03*
D473*
X736621Y263007D03*
D267*
X736621Y278596D03*
D83*
X736558Y237035D03*
D72*
X736558Y239703D03*
D359*
X736558Y246148D03*
D366*
X736558Y262943D03*
D263*
X736558Y278660D03*
D87*
X736494Y237036D03*
D97*
X736494Y239703D03*
D287*
X736494Y246180D03*
D474*
X736494Y262944D03*
D117*
X736494Y278755D03*
D99*
X736431Y237036D03*
D94*
X736431Y239671D03*
D271*
X736431Y246243D03*
D361*
X736431Y262943D03*
D73*
X736431Y278819D03*
D20*
X736367Y236146D03*
D253*
X736367Y237448D03*
D109*
X736367Y239639D03*
D264*
X736367Y246307D03*
D475*
X736367Y263007D03*
D118*
X736367Y278850D03*
D219*
X736304Y235988D03*
D23*
X736304Y237480D03*
D90*
X736304Y239639D03*
D167*
X736304Y246434D03*
D476*
X736304Y263039D03*
D243*
X736304Y278914D03*
D235*
X736240Y237480D03*
D109*
X736240Y239639D03*
D189*
X736240Y246561D03*
D477*
X736240Y263007D03*
D59*
X736240Y278945D03*
D466*
X736177Y237448D03*
D53*
X736177Y239607D03*
D316*
X736177Y246751D03*
D478*
X736177Y263007D03*
D114*
X736177Y278977D03*
D25*
X736113Y237416D03*
D222*
X736113Y239607D03*
D190*
X736113Y247100D03*
D479*
X736113Y263007D03*
D68*
X736113Y279041D03*
D231*
X736050Y237416D03*
D53*
X736050Y239607D03*
D313*
X736050Y247323D03*
D480*
X736050Y262975D03*
D274*
X736050Y275612D03*
D481*
X736050Y279104D03*
D45*
X735986Y237385D03*
D222*
X735986Y239607D03*
D482*
X735986Y247608D03*
D483*
X735986Y262975D03*
D210*
X735986Y275612D03*
D77*
X735986Y279136D03*
D304*
X735923Y237385D03*
D53*
X735923Y239607D03*
D484*
X735923Y248021D03*
D485*
X735923Y262912D03*
D38*
X735923Y275612D03*
D121*
X735923Y279168D03*
D45*
X735859Y237385D03*
D87*
X735859Y239576D03*
D486*
X735859Y248370D03*
D487*
X735859Y262880D03*
D77*
X735859Y275516D03*
X735859Y279199D03*
D28*
X735796Y237353D03*
D99*
X735796Y239576D03*
D488*
X735796Y248497D03*
D489*
X735796Y262880D03*
D114*
X735796Y275548D03*
D107*
X735796Y279199D03*
D46*
X735732Y237353D03*
D87*
X735732Y239576D03*
D490*
X735732Y248624D03*
D491*
X735732Y262848D03*
D248*
X735732Y275517D03*
D472*
X735732Y279231D03*
D28*
X735669Y237417D03*
D99*
X735669Y239576D03*
D492*
X735669Y248720D03*
D493*
X735669Y262817D03*
D263*
X735669Y275485D03*
D494*
X735669Y279231D03*
D46*
X735605Y237417D03*
D87*
X735605Y239576D03*
D95*
X735605Y248783D03*
D495*
X735605Y262817D03*
D54*
X735605Y275485D03*
D472*
X735605Y279231D03*
D28*
X735542Y237417D03*
D226*
X735542Y239544D03*
D496*
X735542Y248878D03*
D497*
X735542Y262785D03*
D238*
X735542Y275453D03*
D72*
X735542Y279263D03*
D230*
X735478Y237448D03*
D35*
X735478Y239544D03*
D498*
X735478Y248942D03*
D499*
X735478Y262785D03*
D236*
X735478Y275421D03*
D104*
X735478Y279295D03*
D185*
X735415Y237448D03*
D83*
X735415Y239575D03*
D500*
X735415Y249005D03*
D501*
X735415Y262753D03*
D223*
X735415Y275421D03*
D121*
X735415Y279295D03*
D25*
X735351Y237480D03*
D110*
X735351Y239575D03*
D502*
X735351Y249037D03*
D503*
X735351Y262721D03*
D216*
X735351Y275390D03*
D104*
X735351Y279295D03*
D231*
X735288Y237543D03*
D83*
X735288Y239575D03*
D504*
X735288Y249101D03*
D505*
X735288Y262658D03*
D205*
X735288Y275421D03*
D121*
X735288Y279295D03*
D253*
X735224Y237575D03*
D110*
X735224Y239575D03*
D506*
X735224Y249132D03*
D507*
X735224Y262626D03*
D214*
X735224Y275389D03*
D104*
X735224Y279295D03*
D232*
X735161Y237639D03*
D83*
X735161Y239575D03*
D508*
X735161Y249164D03*
D504*
X735161Y262563D03*
D218*
X735161Y275390D03*
D72*
X735161Y279327D03*
D111*
X735097Y237670D03*
D110*
X735097Y239575D03*
D509*
X735097Y249196D03*
D502*
X735097Y262499D03*
D279*
X735097Y275358D03*
D472*
X735097Y279358D03*
D40*
X735034Y237734D03*
D83*
X735034Y239575D03*
D510*
X735034Y249259D03*
D511*
X735034Y262467D03*
D512*
X735034Y275358D03*
D494*
X735034Y279358D03*
D184*
X734970Y237766D03*
D110*
X734970Y239575D03*
D507*
X734970Y249291D03*
D91*
X734970Y262436D03*
D134*
X734970Y275358D03*
D472*
X734970Y279358D03*
D62*
X734907Y237798D03*
D83*
X734907Y239575D03*
D513*
X734907Y249323D03*
D514*
X734907Y262404D03*
D198*
X734907Y275358D03*
D494*
X734907Y279358D03*
D272*
X734843Y237861D03*
D110*
X734843Y239575D03*
D515*
X734843Y249354D03*
D516*
X734843Y262340D03*
D79*
X734843Y275326D03*
D472*
X734843Y279358D03*
D517*
X734780Y237893D03*
D83*
X734780Y239575D03*
D518*
X734780Y249354D03*
D519*
X734780Y262340D03*
D33*
X734780Y270309D03*
D199*
X734780Y275326D03*
D494*
X734780Y279358D03*
D268*
X734716Y237956D03*
D110*
X734716Y239575D03*
D520*
X734716Y249386D03*
D521*
X734716Y262436D03*
D17*
X734716Y269897D03*
D281*
X734716Y275294D03*
D472*
X734716Y279358D03*
D522*
X734653Y237956D03*
D83*
X734653Y239575D03*
D523*
X734653Y249418D03*
D497*
X734653Y263420D03*
D524*
X734653Y275262D03*
D494*
X734653Y279358D03*
D70*
X734589Y238020D03*
D80*
X734589Y239544D03*
D525*
X734589Y249482D03*
D526*
X734589Y263356D03*
D334*
X734589Y275294D03*
D77*
X734589Y279326D03*
D62*
X734526Y238052D03*
D527*
X734526Y239544D03*
D528*
X734526Y249513D03*
X734526Y263229D03*
D121*
X734526Y274342D03*
D75*
X734526Y276533D03*
D107*
X734526Y279326D03*
D529*
X734462Y239036D03*
D530*
X734462Y249545D03*
D531*
X734462Y263166D03*
D101*
X734462Y274215D03*
D45*
X734462Y276628D03*
D77*
X734462Y279326D03*
D123*
X734399Y239036D03*
D532*
X734399Y249545D03*
D533*
X734399Y263039D03*
D33*
X734399Y271135D03*
D99*
X734399Y274120D03*
D466*
X734399Y276691D03*
D107*
X734399Y279326D03*
D529*
X734335Y239036D03*
D445*
X734335Y247831D03*
D270*
X734335Y254403D03*
D502*
X734335Y262943D03*
D44*
X734335Y270976D03*
D35*
X734335Y274088D03*
D297*
X734335Y276755D03*
D58*
X734335Y279295D03*
D73*
X734272Y239068D03*
D534*
X734272Y247735D03*
D73*
X734272Y254689D03*
D535*
X734272Y262880D03*
D22*
X734272Y270849D03*
D32*
X734272Y274024D03*
D40*
X734272Y276786D03*
D107*
X734272Y279263D03*
D248*
X734208Y239068D03*
D127*
X734208Y247608D03*
D118*
X734208Y254720D03*
D536*
X734208Y262785D03*
D147*
X734208Y270722D03*
D80*
X734208Y273961D03*
D272*
X734208Y276787D03*
D77*
X734208Y279263D03*
D73*
X734145Y239068D03*
D317*
X734145Y247545D03*
D233*
X734145Y254815D03*
D537*
X734145Y262689D03*
D242*
X734145Y270595D03*
D75*
X734145Y273929D03*
D522*
X734145Y276818D03*
D481*
X734145Y279231D03*
D248*
X734081Y239068D03*
D324*
X734081Y247481D03*
D59*
X734081Y254879D03*
D538*
X734081Y262594D03*
D240*
X734081Y270468D03*
D30*
X734081Y273897D03*
D34*
X734081Y276818D03*
D539*
X734081Y279231D03*
D73*
X734018Y239068D03*
D323*
X734018Y247449D03*
D61*
X734018Y254943D03*
D113*
X734018Y262499D03*
D462*
X734018Y270341D03*
D188*
X734018Y273834D03*
D180*
X734018Y276850D03*
D61*
X734018Y279200D03*
D248*
X733954Y239068D03*
D170*
X733954Y247450D03*
D175*
X733954Y255006D03*
D540*
X733954Y262404D03*
D272*
X733954Y270183D03*
D55*
X733954Y273802D03*
D29*
X733954Y276850D03*
D58*
X733954Y279168D03*
D73*
X733891Y239068D03*
D192*
X733891Y247418D03*
D467*
X733891Y255038D03*
D541*
X733891Y262309D03*
D40*
X733891Y270055D03*
D52*
X733891Y273802D03*
D246*
X733891Y276882D03*
D61*
X733891Y279136D03*
D248*
X733827Y239068D03*
D150*
X733827Y247386D03*
D539*
X733827Y255101D03*
D542*
X733827Y262213D03*
D235*
X733827Y269929D03*
D224*
X733827Y273770D03*
D24*
X733827Y276850D03*
D175*
X733827Y279136D03*
D123*
X733764Y239036D03*
D305*
X733764Y247354D03*
D107*
X733764Y255133D03*
D342*
X733764Y262086D03*
D231*
X733764Y269801D03*
D203*
X733764Y273770D03*
D50*
X733764Y276850D03*
D114*
X733764Y279104D03*
D529*
X733700Y239036D03*
D543*
X733700Y247354D03*
D104*
X733700Y255165D03*
D125*
X733700Y261991D03*
D46*
X733700Y269675D03*
D224*
X733700Y273770D03*
D44*
X733700Y276818D03*
D175*
X733700Y279073D03*
D123*
X733637Y239036D03*
D544*
X733637Y247354D03*
D494*
X733637Y255228D03*
D545*
X733637Y261864D03*
D188*
X733637Y269516D03*
D203*
X733637Y273770D03*
D18*
X733637Y276787D03*
D229*
X733637Y279041D03*
D117*
X733573Y239004D03*
D161*
X733573Y247322D03*
D472*
X733573Y255228D03*
D546*
X733573Y261769D03*
D110*
X733573Y269420D03*
D55*
X733573Y273738D03*
D14*
X733573Y276786D03*
D187*
X733573Y278977D03*
D259*
X733510Y239004D03*
D164*
X733510Y247322D03*
D72*
X733510Y255260D03*
D124*
X733510Y261642D03*
D38*
X733510Y269262D03*
D52*
X733510Y273738D03*
D233*
X733510Y278945D03*
D41*
X733446Y238941D03*
D308*
X733446Y247354D03*
D97*
X733446Y255260D03*
D312*
X733446Y261547D03*
D97*
X733446Y269103D03*
D55*
X733446Y273738D03*
D59*
X733446Y278882D03*
D60*
X733383Y238877D03*
D296*
X733383Y247323D03*
D94*
X733383Y255292D03*
D307*
X733383Y261420D03*
D467*
X733383Y269008D03*
D52*
X733383Y273738D03*
D174*
X733383Y278850D03*
D270*
X733319Y238782D03*
D186*
X733319Y247323D03*
D97*
X733319Y255324D03*
D159*
X733319Y261261D03*
D68*
X733319Y268881D03*
D55*
X733319Y273738D03*
D118*
X733319Y278850D03*
D250*
X733256Y238718D03*
D289*
X733256Y247354D03*
D547*
X733256Y255355D03*
D140*
X733256Y261102D03*
D259*
X733256Y268722D03*
D52*
X733256Y273738D03*
D243*
X733256Y278787D03*
D225*
X733192Y238655D03*
D543*
X733192Y247481D03*
D92*
X733192Y255355D03*
D143*
X733192Y261007D03*
D267*
X733192Y268563D03*
D30*
X733192Y273770D03*
D248*
X733192Y278755D03*
D74*
X733129Y238623D03*
D305*
X733129Y247608D03*
D547*
X733129Y255355D03*
D548*
X733129Y260880D03*
D250*
X733129Y268436D03*
D52*
X733129Y273802D03*
D123*
X733129Y278660D03*
D208*
X733065Y238591D03*
D549*
X733065Y248053D03*
D109*
X733065Y255387D03*
D331*
X733065Y260721D03*
D216*
X733065Y268278D03*
D210*
X733065Y273834D03*
D117*
X733065Y278628D03*
D74*
X733002Y238560D03*
D115*
X733002Y248084D03*
D94*
X733002Y255419D03*
D265*
X733002Y260594D03*
D512*
X733002Y268119D03*
D75*
X733002Y273866D03*
D259*
X733002Y278564D03*
D209*
X732938Y238528D03*
D327*
X732938Y248084D03*
D550*
X732938Y255419D03*
D276*
X732938Y260435D03*
D134*
X732938Y267992D03*
D196*
X732938Y273866D03*
D551*
X732938Y278533D03*
D206*
X732875Y238496D03*
D124*
X732875Y248053D03*
D94*
X732875Y255419D03*
D293*
X732875Y260308D03*
D244*
X732875Y267865D03*
D32*
X732875Y273897D03*
D64*
X732875Y278469D03*
D208*
X732811Y238464D03*
D552*
X732811Y248085D03*
D550*
X732811Y255419D03*
D461*
X732811Y260150D03*
D338*
X732811Y267674D03*
D110*
X732811Y273929D03*
D267*
X732811Y278342D03*
D206*
X732748Y238432D03*
D131*
X732748Y248053D03*
D94*
X732748Y255419D03*
D391*
X732748Y260023D03*
D553*
X732748Y267547D03*
D83*
X732748Y273929D03*
D471*
X732748Y278279D03*
D214*
X732684Y238369D03*
D312*
X732684Y248021D03*
D550*
X732684Y255419D03*
D252*
X732684Y259896D03*
D554*
X732684Y267388D03*
D110*
X732684Y273992D03*
D66*
X732684Y278152D03*
D206*
X732621Y238369D03*
D323*
X732621Y248021D03*
D94*
X732621Y255419D03*
D555*
X732621Y259673D03*
D395*
X732621Y267261D03*
D99*
X732621Y274056D03*
D223*
X732621Y278088D03*
D214*
X732557Y238305D03*
D556*
X732557Y247926D03*
D550*
X732557Y255419D03*
D194*
X732557Y259419D03*
D557*
X732557Y267103D03*
D222*
X732557Y274151D03*
D208*
X732557Y277961D03*
D206*
X732494Y238305D03*
D153*
X732494Y247894D03*
D72*
X732494Y255451D03*
D223*
X732494Y259165D03*
D463*
X732494Y266976D03*
D61*
X732494Y274374D03*
D13*
X732494Y275802D03*
D218*
X732494Y277803D03*
D214*
X732430Y238242D03*
D161*
X732430Y247830D03*
D97*
X732430Y255451D03*
D41*
X732430Y258943D03*
D558*
X732430Y266849D03*
D348*
X732430Y276374D03*
D205*
X732367Y238210D03*
D292*
X732367Y247799D03*
D72*
X732367Y255451D03*
D233*
X732367Y258752D03*
D129*
X732367Y266658D03*
D128*
X732367Y276374D03*
D26*
X732303Y235289D03*
D209*
X732303Y238147D03*
D559*
X732303Y247735D03*
D97*
X732303Y255451D03*
D550*
X732303Y258594D03*
D348*
X732303Y266468D03*
D287*
X732303Y276342D03*
D26*
X732303Y281390D03*
D180*
X732240Y235448D03*
D74*
X732240Y238115D03*
D146*
X732240Y247672D03*
D72*
X732240Y255451D03*
D75*
X732240Y258372D03*
D167*
X732240Y266309D03*
D278*
X732240Y276342D03*
D33*
X732240Y281358D03*
D184*
X732176Y235480D03*
D560*
X732176Y238083D03*
D86*
X732176Y247640D03*
D97*
X732176Y255451D03*
D67*
X732176Y258149D03*
D189*
X732176Y266182D03*
D126*
X732176Y276310D03*
D36*
X732176Y281327D03*
D13*
X732113Y233638D03*
D466*
X732113Y235416D03*
D221*
X732113Y238020D03*
D81*
X732113Y247640D03*
D72*
X732113Y255451D03*
D63*
X732113Y257895D03*
D146*
X732113Y265960D03*
D561*
X732113Y276310D03*
D18*
X732113Y281295D03*
D14*
X732049Y233606D03*
D224*
X732049Y235416D03*
D227*
X732049Y237988D03*
D103*
X732049Y247672D03*
D97*
X732049Y255451D03*
D291*
X732049Y265769D03*
D295*
X732049Y276278D03*
D20*
X732049Y281231D03*
D33*
X731986Y233606D03*
D562*
X731986Y237067D03*
D82*
X731986Y247735D03*
D72*
X731986Y255451D03*
D153*
X731986Y265611D03*
D418*
X731986Y276279D03*
D51*
X731986Y281200D03*
D14*
X731922Y233543D03*
D397*
X731922Y236972D03*
D86*
X731922Y247767D03*
D472*
X731922Y255482D03*
D309*
X731922Y265452D03*
D376*
X731922Y276278D03*
D24*
X731922Y281168D03*
D33*
X731859Y233543D03*
D395*
X731859Y236908D03*
D548*
X731859Y247799D03*
D494*
X731859Y255482D03*
D317*
X731859Y265325D03*
D151*
X731859Y276279D03*
D89*
X731859Y281104D03*
D16*
X731795Y233543D03*
D397*
X731795Y236845D03*
D563*
X731795Y247862D03*
D472*
X731795Y255482D03*
D564*
X731795Y265134D03*
D387*
X731795Y276215D03*
D29*
X731795Y281104D03*
D65*
X731732Y233575D03*
D395*
X731732Y236781D03*
D106*
X731732Y247894D03*
D494*
X731732Y255482D03*
D450*
X731732Y264817D03*
D391*
X731732Y276215D03*
D31*
X731732Y281073D03*
D20*
X731668Y233606D03*
D565*
X731668Y236686D03*
D103*
X731668Y247926D03*
D472*
X731668Y255482D03*
D112*
X731668Y264531D03*
D397*
X731668Y276215D03*
D240*
X731668Y281009D03*
D50*
X731605Y233606D03*
D451*
X731605Y236623D03*
D82*
X731605Y247989D03*
D494*
X731605Y255482D03*
D566*
X731605Y264277D03*
D451*
X731605Y276247D03*
D180*
X731605Y280978D03*
D57*
X731541Y233638D03*
D565*
X731541Y236559D03*
D189*
X731541Y248021D03*
D472*
X731541Y255482D03*
D567*
X731541Y264023D03*
D252*
X731541Y276279D03*
D37*
X731541Y280946D03*
D568*
X731478Y236210D03*
D106*
X731478Y248021D03*
D494*
X731478Y255482D03*
D492*
X731478Y263896D03*
D144*
X731478Y276310D03*
D19*
X731478Y280914D03*
D380*
X731414Y236178D03*
D189*
X731414Y248085D03*
D472*
X731414Y255482D03*
D95*
X731414Y263832D03*
D569*
X731414Y276310D03*
D268*
X731414Y280882D03*
D570*
X731351Y236115D03*
D571*
X731351Y248116D03*
D107*
X731351Y255514D03*
D572*
X731351Y263801D03*
D251*
X731351Y276342D03*
D62*
X731351Y280851D03*
D270*
X731287Y234972D03*
D96*
X731287Y237829D03*
D136*
X731287Y248148D03*
D77*
X731287Y255514D03*
D536*
X731287Y263801D03*
D249*
X731287Y276374D03*
D184*
X731287Y280819D03*
D48*
X731224Y234908D03*
D32*
X731224Y237829D03*
D176*
X731224Y248180D03*
D107*
X731224Y255514D03*
D572*
X731224Y263801D03*
D341*
X731224Y276405D03*
D274*
X731224Y280819D03*
D551*
X731160Y234845D03*
D193*
X731160Y237829D03*
D136*
X731160Y248211D03*
D104*
X731160Y255546D03*
D95*
X731160Y263832D03*
D573*
X731160Y276437D03*
D111*
X731160Y280787D03*
D259*
X731097Y234813D03*
D75*
X731097Y237861D03*
D256*
X731097Y248243D03*
D107*
X731097Y255577D03*
D574*
X731097Y263864D03*
D575*
X731097Y276501D03*
D40*
X731097Y280723D03*
D118*
X731033Y234781D03*
D30*
X731033Y237829D03*
D258*
X731033Y248243D03*
D77*
X731033Y255577D03*
D521*
X731033Y263896D03*
D54*
X731033Y275993D03*
D70*
X731033Y278279D03*
D297*
X731033Y280692D03*
D229*
X730970Y234718D03*
D52*
X730970Y237797D03*
D167*
X730970Y248275D03*
D107*
X730970Y255577D03*
D537*
X730970Y263959D03*
D73*
X730970Y275961D03*
D517*
X730970Y278279D03*
D232*
X730970Y280692D03*
D77*
X730906Y234686D03*
D55*
X730906Y237797D03*
D171*
X730906Y248307D03*
D539*
X730906Y255609D03*
D100*
X730906Y264055D03*
D104*
X730906Y275993D03*
D70*
X730906Y278279D03*
D235*
X730906Y280660D03*
D72*
X730843Y234623D03*
D52*
X730843Y237797D03*
D261*
X730843Y248338D03*
D481*
X730843Y255609D03*
D576*
X730843Y264118D03*
D28*
X730843Y275834D03*
D517*
X730843Y278279D03*
D466*
X730843Y280628D03*
D101*
X730779Y234591D03*
D210*
X730779Y237766D03*
D133*
X730779Y248370D03*
D77*
X730779Y255641D03*
D577*
X730779Y264182D03*
D135*
X730779Y275771D03*
D56*
X730779Y278310D03*
D253*
X730779Y280628D03*
D75*
X730716Y234559D03*
D52*
X730716Y237734D03*
D265*
X730716Y248402D03*
D467*
X730716Y255673D03*
D145*
X730716Y264245D03*
D19*
X730716Y278310D03*
D231*
X730716Y280596D03*
D230*
X730652Y234527D03*
D30*
X730652Y237702D03*
D269*
X730652Y248402D03*
D47*
X730652Y253768D03*
D58*
X730652Y255673D03*
D149*
X730652Y264341D03*
D56*
X730652Y278310D03*
D25*
X730652Y280596D03*
D40*
X730589Y234495D03*
D527*
X730589Y237639D03*
D271*
X730589Y248402D03*
D18*
X730589Y253673D03*
D467*
X730589Y255673D03*
D152*
X730589Y264467D03*
D19*
X730589Y278310D03*
D304*
X730589Y280565D03*
D240*
X730525Y234527D03*
D96*
X730525Y237575D03*
D269*
X730525Y248465D03*
D20*
X730525Y253609D03*
D175*
X730525Y255705D03*
D155*
X730525Y264531D03*
D56*
X730525Y278310D03*
D45*
X730525Y280565D03*
D38*
X730462Y237512D03*
D261*
X730462Y248656D03*
D89*
X730462Y253482D03*
D61*
X730462Y255705D03*
D578*
X730462Y264658D03*
D462*
X730462Y278342D03*
D28*
X730462Y280533D03*
D97*
X730398Y237417D03*
D579*
X730398Y248878D03*
D56*
X730398Y253355D03*
D539*
X730398Y255736D03*
D112*
X730398Y264722D03*
D56*
X730398Y278374D03*
D46*
X730398Y280533D03*
D121*
X730335Y237385D03*
D192*
X730335Y249577D03*
D61*
X730335Y255768D03*
D580*
X730335Y264817D03*
D19*
X730335Y278374D03*
D203*
X730335Y280501D03*
D539*
X730271Y237321D03*
D556*
X730271Y249577D03*
D175*
X730271Y255768D03*
D581*
X730271Y264944D03*
D56*
X730271Y278374D03*
D224*
X730271Y280501D03*
D52*
X730208Y236845D03*
D49*
X730208Y238147D03*
D162*
X730208Y249577D03*
D61*
X730208Y255768D03*
D246*
X730208Y258467D03*
D582*
X730208Y265039D03*
D517*
X730208Y278406D03*
D220*
X730208Y280438D03*
D210*
X730144Y236750D03*
D37*
X730144Y238147D03*
D159*
X730144Y249577D03*
D68*
X730144Y255800D03*
D268*
X730144Y258530D03*
D335*
X730144Y265134D03*
D70*
X730144Y278406D03*
D137*
X730144Y280438D03*
D188*
X730081Y236750D03*
D19*
X730081Y238178D03*
D157*
X730081Y249577D03*
D61*
X730081Y255832D03*
D40*
X730081Y258562D03*
D545*
X730081Y265230D03*
D19*
X730081Y278437D03*
D52*
X730081Y280406D03*
D30*
X730017Y236686D03*
D70*
X730017Y238147D03*
D298*
X730017Y249577D03*
D187*
X730017Y255863D03*
D234*
X730017Y258594D03*
D583*
X730017Y265325D03*
D268*
X730017Y278469D03*
D55*
X730017Y280406D03*
D188*
X729954Y236623D03*
D517*
X729954Y238147D03*
D292*
X729954Y249577D03*
D114*
X729954Y255863D03*
D185*
X729954Y258657D03*
D584*
X729954Y265452D03*
D522*
X729954Y278469D03*
D213*
X729954Y280374D03*
D30*
X729890Y236559D03*
D272*
X729890Y238115D03*
D311*
X729890Y249545D03*
D59*
X729890Y255895D03*
D137*
X729890Y258721D03*
D585*
X729890Y265547D03*
D272*
X729890Y278501D03*
D30*
X729890Y280374D03*
D75*
X729827Y236528D03*
D274*
X729827Y238147D03*
D179*
X729827Y249513D03*
D233*
X729827Y255958D03*
D75*
X729827Y258753D03*
D115*
X729827Y265674D03*
D274*
X729827Y278533D03*
D213*
X729827Y280374D03*
D210*
X729763Y236496D03*
D111*
X729763Y238115D03*
D586*
X729763Y249513D03*
D59*
X729763Y255958D03*
D35*
X729763Y258848D03*
D552*
X729763Y265801D03*
D272*
X729763Y278565D03*
D196*
X729763Y280343D03*
D213*
X729700Y236432D03*
D232*
X729700Y238147D03*
D548*
X729700Y249450D03*
D233*
X729700Y255958D03*
D90*
X729700Y258943D03*
D587*
X729700Y265896D03*
D181*
X729700Y278596D03*
D75*
X729700Y280343D03*
D30*
X729636Y236432D03*
D297*
X729636Y238147D03*
D76*
X729636Y249450D03*
D118*
X729636Y255990D03*
D92*
X729636Y259038D03*
D314*
X729636Y266023D03*
D111*
X729636Y278628D03*
D80*
X729636Y280311D03*
D52*
X729573Y236400D03*
D23*
X729573Y238115D03*
D167*
X729573Y249418D03*
D174*
X729573Y255990D03*
D481*
X729573Y259165D03*
D588*
X729573Y266150D03*
D40*
X729573Y278691D03*
D527*
X729573Y280311D03*
D210*
X729509Y236369D03*
D234*
X729509Y238147D03*
D133*
X729509Y249386D03*
D241*
X729509Y256054D03*
D59*
X729509Y259260D03*
D170*
X729509Y266309D03*
D54*
X729509Y279676D03*
D52*
X729446Y236337D03*
D177*
X729446Y238147D03*
D356*
X729446Y249386D03*
D243*
X729446Y256054D03*
D123*
X729446Y259356D03*
D315*
X729446Y266436D03*
D169*
X729446Y279676D03*
D55*
X729382Y236273D03*
D25*
X729382Y238115D03*
D287*
X729382Y249355D03*
D248*
X729382Y256086D03*
D41*
X729382Y259451D03*
D159*
X729382Y266595D03*
D41*
X729382Y279708D03*
D52*
X729319Y236273D03*
D231*
X729319Y238115D03*
D278*
X729319Y249354D03*
D257*
X729319Y256117D03*
D471*
X729319Y259610D03*
D157*
X729319Y266722D03*
D266*
X729319Y279708D03*
D55*
X729255Y236210D03*
D45*
X729255Y238147D03*
D126*
X729255Y249386D03*
D248*
X729255Y256149D03*
D227*
X729255Y259705D03*
D186*
X729255Y266881D03*
D78*
X729255Y279739D03*
D52*
X729192Y236146D03*
D304*
X729192Y238147D03*
D280*
X729192Y249450D03*
D123*
X729192Y256181D03*
D206*
X729192Y259832D03*
D589*
X729192Y267039D03*
D494*
X729192Y275421D03*
D64*
X729192Y279739D03*
D55*
X729128Y236083D03*
D45*
X729128Y238147D03*
D285*
X729128Y249482D03*
D529*
X729128Y256181D03*
D200*
X729128Y259959D03*
D590*
X729128Y267198D03*
D58*
X729128Y275612D03*
D117*
X729128Y279771D03*
D33*
X729065Y234178D03*
D32*
X729065Y235924D03*
D28*
X729065Y238115D03*
D561*
X729065Y249513D03*
D257*
X729065Y256244D03*
D286*
X729065Y260054D03*
D320*
X729065Y267389D03*
D229*
X729065Y275866D03*
D259*
X729065Y279771D03*
D68*
X729001Y235480D03*
D46*
X729001Y238115D03*
D365*
X729001Y249577D03*
D254*
X729001Y256244D03*
D281*
X729001Y260181D03*
D86*
X729001Y267579D03*
D248*
X729001Y276088D03*
D117*
X729001Y279771D03*
D481*
X728938Y235416D03*
D28*
X728938Y238115D03*
D370*
X728938Y249608D03*
D259*
X728938Y256276D03*
D211*
X728938Y260340D03*
D106*
X728938Y267770D03*
D257*
X728938Y276310D03*
D123*
X728938Y279803D03*
D472*
X728874Y235416D03*
D46*
X728874Y238115D03*
D295*
X728874Y249672D03*
D551*
X728874Y256308D03*
D338*
X728874Y260435D03*
D76*
X728874Y267992D03*
D551*
X728874Y276501D03*
D529*
X728874Y279803D03*
D547*
X728811Y235416D03*
D28*
X728811Y238115D03*
D371*
X728811Y249704D03*
D64*
X728811Y256371D03*
D168*
X728811Y260562D03*
D167*
X728811Y268214D03*
D266*
X728811Y276723D03*
D73*
X728811Y279835D03*
D222*
X728747Y235416D03*
D25*
X728747Y238115D03*
D591*
X728747Y249767D03*
D41*
X728747Y256403D03*
D592*
X728747Y260689D03*
D262*
X728747Y268468D03*
D373*
X728747Y278311D03*
D83*
X728684Y235384D03*
D231*
X728684Y238115D03*
D418*
X728684Y249799D03*
D169*
X728684Y256435D03*
D593*
X728684Y260880D03*
D356*
X728684Y268690D03*
D463*
X728684Y278406D03*
D196*
X728620Y235385D03*
D25*
X728620Y238115D03*
D132*
X728620Y249831D03*
D594*
X728620Y256466D03*
D565*
X728620Y261070D03*
D273*
X728620Y268944D03*
D414*
X728620Y278469D03*
D220*
X728557Y235353D03*
D177*
X728557Y238147D03*
D568*
X728557Y249862D03*
D60*
X728557Y256530D03*
D391*
X728557Y261293D03*
D283*
X728557Y269230D03*
D385*
X728557Y278564D03*
D46*
X728493Y235321D03*
D234*
X728493Y238147D03*
D380*
X728493Y249894D03*
D270*
X728493Y256562D03*
D387*
X728493Y261483D03*
D558*
X728493Y269516D03*
D411*
X728493Y278596D03*
D23*
X728430Y235321D03*
D232*
X728430Y238147D03*
D151*
X728430Y249926D03*
D238*
X728430Y256594D03*
D568*
X728430Y261673D03*
D463*
X728430Y269770D03*
D453*
X728430Y278660D03*
D272*
X728366Y235321D03*
D297*
X728366Y238147D03*
D20*
X728366Y244147D03*
D383*
X728366Y249958D03*
D47*
X728366Y254530D03*
D236*
X728366Y256625D03*
D132*
X728366Y261896D03*
D557*
X728366Y270024D03*
D252*
X728366Y278755D03*
D63*
X728303Y235289D03*
D274*
X728303Y238147D03*
D49*
X728303Y244370D03*
D459*
X728303Y250021D03*
D18*
X728303Y254498D03*
D130*
X728303Y256689D03*
D293*
X728303Y262086D03*
D138*
X728303Y270436D03*
X728303Y278818D03*
D272*
X728239Y238115D03*
D56*
X728239Y244465D03*
D387*
X728239Y250053D03*
D20*
X728239Y254434D03*
D227*
X728239Y256720D03*
D295*
X728239Y262308D03*
D245*
X728239Y270976D03*
D595*
X728239Y278882D03*
D522*
X728176Y238083D03*
D181*
X728176Y244560D03*
D389*
X728176Y250085D03*
D63*
X728176Y254339D03*
D223*
X728176Y256752D03*
D367*
X728176Y262531D03*
D206*
X728176Y271516D03*
D596*
X728176Y278914D03*
D272*
X728112Y238052D03*
D111*
X728112Y244655D03*
D148*
X728112Y250117D03*
D42*
X728112Y254276D03*
D216*
X728112Y256848D03*
D154*
X728112Y262753D03*
D227*
X728112Y271960D03*
D573*
X728112Y278977D03*
D19*
X728049Y237988D03*
D177*
X728049Y244751D03*
D597*
X728049Y250148D03*
D19*
X728049Y254180D03*
D206*
X728049Y256911D03*
D271*
X728049Y263070D03*
D233*
X728049Y272659D03*
D575*
X728049Y279041D03*
D34*
X727985Y237956D03*
D25*
X727985Y244846D03*
D393*
X727985Y250148D03*
D21*
X727985Y254085D03*
D200*
X727985Y256975D03*
D260*
X727985Y263356D03*
D222*
X727985Y273135D03*
D598*
X727985Y279136D03*
D462*
X727922Y237829D03*
D231*
X727922Y244909D03*
D395*
X727922Y250180D03*
D23*
X727922Y253990D03*
D512*
X727922Y257070D03*
D106*
X727922Y263706D03*
D213*
X727922Y273516D03*
D244*
X727922Y279168D03*
D135*
X727858Y237734D03*
D46*
X727858Y244973D03*
D422*
X727858Y250212D03*
D230*
X727858Y253831D03*
D194*
X727858Y257133D03*
D306*
X727858Y264182D03*
D253*
X727858Y273897D03*
D281*
X727858Y279231D03*
D462*
X727795Y237575D03*
D203*
X727795Y245068D03*
D329*
X727795Y251101D03*
D332*
X727795Y257260D03*
D166*
X727795Y264626D03*
D462*
X727795Y274278D03*
D199*
X727795Y279263D03*
D135*
X727731Y237480D03*
D137*
X727731Y245132D03*
D331*
X727731Y251133D03*
D599*
X727731Y257324D03*
D552*
X727731Y265039D03*
D37*
X727731Y274469D03*
D202*
X727731Y279326D03*
D65*
X727668Y237385D03*
D52*
X727668Y245163D03*
D173*
X727668Y251101D03*
D600*
X727668Y257451D03*
D172*
X727668Y265452D03*
D31*
X727668Y274723D03*
D277*
X727668Y279358D03*
D55*
X727604Y245227D03*
D171*
X727604Y251101D03*
D601*
X727604Y257546D03*
D602*
X727604Y265833D03*
D29*
X727604Y274945D03*
D207*
X727604Y279422D03*
D188*
X727541Y245259D03*
D301*
X727541Y251101D03*
D168*
X727541Y257641D03*
D541*
X727541Y266182D03*
D27*
X727541Y275199D03*
D205*
X727541Y279485D03*
D30*
X727477Y245322D03*
D264*
X727477Y251069D03*
D603*
X727477Y257736D03*
D108*
X727477Y266626D03*
D43*
X727477Y275485D03*
D209*
X727477Y279549D03*
D188*
X727414Y245386D03*
D356*
X727414Y251037D03*
D251*
X727414Y257864D03*
D93*
X727414Y267039D03*
D74*
X727414Y279581D03*
D210*
X727350Y245386D03*
D269*
X727350Y251069D03*
D554*
X727350Y257990D03*
D604*
X727350Y267357D03*
D560*
X727350Y279612D03*
D213*
X727287Y245449D03*
D605*
X727287Y251037D03*
D606*
X727287Y258086D03*
D510*
X727287Y267674D03*
D130*
X727287Y279676D03*
D196*
X727223Y245481D03*
D607*
X727223Y250974D03*
D565*
X727223Y258149D03*
D515*
X727223Y267896D03*
D239*
X727223Y279708D03*
D188*
X727160Y245513D03*
D280*
X727160Y250974D03*
D562*
X727160Y258276D03*
D608*
X727160Y268119D03*
D60*
X727160Y279771D03*
D30*
X727096Y245576D03*
D285*
X727096Y250942D03*
D397*
X727096Y258371D03*
D609*
X727096Y268341D03*
D54*
X727096Y279803D03*
D75*
X727033Y245608D03*
D561*
X727033Y250910D03*
D453*
X727033Y258467D03*
D610*
X727033Y268563D03*
D64*
X727033Y279866D03*
D193*
X726969Y245703D03*
D558*
X726969Y250847D03*
D148*
X726969Y258562D03*
D611*
X726969Y268754D03*
D117*
X726969Y279898D03*
D83*
X726906Y245735D03*
D418*
X726906Y250815D03*
D391*
X726906Y258689D03*
D612*
X726906Y268976D03*
D123*
X726906Y279930D03*
D110*
X726842Y245798D03*
D376*
X726842Y250751D03*
D411*
X726842Y258784D03*
D613*
X726842Y269135D03*
D118*
X726842Y279993D03*
D99*
X726779Y245862D03*
D151*
X726779Y250688D03*
D391*
X726779Y258943D03*
D614*
X726779Y268817D03*
D233*
X726779Y280025D03*
D97*
X726715Y245989D03*
D461*
X726715Y250561D03*
D393*
X726715Y259038D03*
D515*
X726715Y268785D03*
D175*
X726715Y280089D03*
D192*
X726652Y249069D03*
D395*
X726652Y259197D03*
D533*
X726652Y268754D03*
D61*
X726652Y280152D03*
D556*
X726588Y249069D03*
D397*
X726588Y259324D03*
D615*
X726588Y268690D03*
D77*
X726588Y280215D03*
D192*
X726525Y249069D03*
D395*
X726525Y259451D03*
D572*
X726525Y268627D03*
D494*
X726525Y280247D03*
D318*
X726461Y249132D03*
D422*
X726461Y259610D03*
D490*
X726461Y268563D03*
D550*
X726461Y280311D03*
D166*
X726398Y249132D03*
D616*
X726398Y259705D03*
D617*
X726398Y268500D03*
D90*
X726398Y280342D03*
D318*
X726334Y249132D03*
D618*
X726334Y259864D03*
D619*
X726334Y268500D03*
D222*
X726334Y280374D03*
D166*
X726271Y249132D03*
D138*
X726271Y259959D03*
D620*
X726271Y268500D03*
D99*
X726271Y280406D03*
D318*
X726207Y249132D03*
D554*
X726207Y260086D03*
D621*
X726207Y268468D03*
D35*
X726207Y280438D03*
D307*
X726144Y249164D03*
D138*
X726144Y260213D03*
D622*
X726144Y268500D03*
D32*
X726144Y280501D03*
D170*
X726080Y249164D03*
D141*
X726080Y260372D03*
D581*
X726080Y268500D03*
D80*
X726080Y280565D03*
D326*
X726017Y249132D03*
D251*
X726017Y260467D03*
D450*
X726017Y268500D03*
D75*
X726017Y280597D03*
D623*
X725953Y249132D03*
D595*
X725953Y260594D03*
D448*
X725953Y268500D03*
D30*
X725953Y280628D03*
D323*
X725890Y249164D03*
D553*
X725890Y260689D03*
D584*
X725890Y268500D03*
D52*
X725890Y280660D03*
D195*
X725826Y249164D03*
D592*
X725826Y260816D03*
D549*
X725826Y268500D03*
D55*
X725826Y280723D03*
D588*
X725763Y249132D03*
D553*
X725763Y260943D03*
D325*
X725763Y268532D03*
D203*
X725763Y280755D03*
D37*
X725699Y245259D03*
D183*
X725699Y249704D03*
D603*
X725699Y261102D03*
D312*
X725699Y268532D03*
D46*
X725699Y280787D03*
D31*
X725636Y245132D03*
D624*
X725636Y249831D03*
D168*
X725636Y261197D03*
D326*
X725636Y268563D03*
D304*
X725636Y280819D03*
D147*
X725572Y245068D03*
D42*
X725572Y246656D03*
D376*
X725572Y250624D03*
D573*
X725572Y261324D03*
D318*
X725572Y268563D03*
D25*
X725572Y280850D03*
D50*
X725509Y244973D03*
X725509Y246624D03*
D151*
X725509Y250688D03*
D168*
X725509Y261451D03*
D153*
X725509Y268595D03*
D466*
X725509Y280882D03*
D43*
X725445Y244878D03*
D47*
X725445Y246656D03*
D461*
X725445Y250752D03*
D625*
X725445Y261515D03*
D298*
X725445Y268627D03*
D234*
X725445Y280946D03*
D15*
X725382Y244814D03*
D459*
X725382Y250783D03*
D626*
X725382Y261642D03*
D140*
X725382Y268595D03*
D23*
X725382Y280978D03*
D14*
X725318Y241163D03*
X724556Y244465D03*
D387*
X725318Y250751D03*
D625*
X725318Y261769D03*
D183*
X725318Y268627D03*
D67*
X725318Y281009D03*
D15*
X725255Y241131D03*
D570*
X725255Y250720D03*
D626*
X725255Y261896D03*
D320*
X725255Y268659D03*
D40*
X725255Y281041D03*
D43*
X725191Y241068D03*
D380*
X725191Y250656D03*
D247*
X725191Y261991D03*
D86*
X725191Y268658D03*
D184*
X725191Y281073D03*
D22*
X725128Y241004D03*
D627*
X725128Y250593D03*
D421*
X725128Y262118D03*
D571*
X725128Y268690D03*
D62*
X725128Y281105D03*
D17*
X725064Y240941D03*
D591*
X725064Y250529D03*
D247*
X725064Y262245D03*
D331*
X725064Y268722D03*
D272*
X725064Y281168D03*
D63*
X725001Y240877D03*
D367*
X725001Y250466D03*
D555*
X725001Y262340D03*
D173*
X725001Y268754D03*
D517*
X725001Y281200D03*
D29*
X724937Y240845D03*
D154*
X724937Y250370D03*
D338*
X724937Y262467D03*
D264*
X724937Y268786D03*
D56*
X724937Y281231D03*
D180*
X724874Y240782D03*
D605*
X724874Y250275D03*
D555*
X724874Y262594D03*
D605*
X724874Y268817D03*
D462*
X724874Y281263D03*
D34*
X724810Y240750D03*
D264*
X724810Y250180D03*
D16*
X724810Y254689D03*
D601*
X724810Y262689D03*
D154*
X724810Y268849D03*
D37*
X724810Y281327D03*
D19*
X724747Y240718D03*
D256*
X724747Y250021D03*
D246*
X724747Y254530D03*
D191*
X724747Y262816D03*
D283*
X724747Y268849D03*
D180*
X724747Y281359D03*
D272*
X724683Y240655D03*
D55*
X724683Y244274D03*
D300*
X724683Y249831D03*
D56*
X724683Y254371D03*
D601*
X724683Y262880D03*
D558*
X724683Y268881D03*
D240*
X724683Y281390D03*
D181*
X724620Y240623D03*
D113*
X724620Y248084D03*
D628*
X724620Y254212D03*
D191*
X724620Y263007D03*
D290*
X724620Y268944D03*
D89*
X724620Y281422D03*
D297*
X724556Y240560D03*
D515*
X724556Y248529D03*
D601*
X724556Y263134D03*
D461*
X724556Y268976D03*
D29*
X724556Y281485D03*
D23*
X724493Y240528D03*
D532*
X724493Y248402D03*
D336*
X724493Y263229D03*
D570*
X724493Y269008D03*
D89*
X724493Y281485D03*
D25*
X724429Y240464D03*
D629*
X724429Y248243D03*
D245*
X724429Y263356D03*
D411*
X724429Y269071D03*
D147*
X724429Y281517D03*
D28*
X724366Y240465D03*
D630*
X724366Y248053D03*
D211*
X724366Y263452D03*
D395*
X724366Y269103D03*
D27*
X724366Y281549D03*
D631*
X724302Y247227D03*
D632*
X724302Y263547D03*
D422*
X724302Y269135D03*
D24*
X724302Y281613D03*
D633*
X724239Y247132D03*
D600*
X724239Y263674D03*
D144*
X724239Y269198D03*
D22*
X724239Y281644D03*
D227*
X724175Y241163D03*
D521*
X724175Y248974D03*
D598*
X724175Y263769D03*
D595*
X724175Y269230D03*
D20*
X724175Y281676D03*
D73*
X724112Y240782D03*
D634*
X724112Y249386D03*
D336*
X724112Y263864D03*
D596*
X724112Y269262D03*
D65*
X724112Y281708D03*
D175*
X724048Y240528D03*
D581*
X724048Y249577D03*
D598*
X724048Y263960D03*
D247*
X724048Y269294D03*
D44*
X724048Y281771D03*
D72*
X723985Y240338D03*
D31*
X723985Y245259D03*
D571*
X723985Y250910D03*
D211*
X723985Y264087D03*
D191*
X723985Y269357D03*
D18*
X723985Y281803D03*
D97*
X723921Y240274D03*
D76*
X723921Y250847D03*
D598*
X723921Y264214D03*
D632*
X723921Y269389D03*
D36*
X723921Y281835D03*
D107*
X723858Y240274D03*
D106*
X723858Y250752D03*
D600*
X723858Y264309D03*
D635*
X723858Y269452D03*
D33*
X723858Y281866D03*
D175*
X723794Y240211D03*
D189*
X723794Y250688D03*
D598*
X723794Y264404D03*
D79*
X723794Y269484D03*
D26*
X723794Y281898D03*
D233*
X723731Y240210D03*
D176*
X723731Y250593D03*
D211*
X723731Y264531D03*
D197*
X723731Y269547D03*
D636*
G36*
X723686Y281959D02*
X723728Y282007D01*
X723776Y281965D01*
X723734Y281917D01*
X723686Y281959D01*
G37*
D241*
X723667Y240179D03*
D34*
X723667Y244560D03*
D579*
X723667Y250529D03*
D598*
X723667Y264658D03*
D237*
X723667Y269579D03*
D73*
X723604Y240147D03*
D62*
X723604Y244592D03*
D106*
X723604Y250371D03*
D211*
X723604Y264722D03*
D284*
X723604Y269643D03*
D117*
X723540Y240147D03*
D235*
X723540Y244592D03*
D189*
X723540Y250244D03*
D632*
X723540Y264817D03*
D216*
X723540Y269675D03*
D48*
X723477Y240115D03*
D28*
X723477Y244592D03*
D71*
X723477Y250053D03*
D600*
X723477Y264944D03*
D223*
X723477Y269706D03*
D69*
X723413Y240115D03*
D137*
X723413Y244624D03*
D258*
X723413Y249894D03*
D598*
X723413Y265039D03*
D66*
X723413Y269770D03*
D250*
X723350Y240115D03*
D188*
X723350Y244624D03*
D71*
X723350Y249799D03*
D336*
X723350Y265134D03*
D122*
X723350Y269833D03*
D560*
X723286Y240115D03*
D335*
X723286Y248497D03*
D598*
X723286Y265230D03*
D267*
X723286Y269833D03*
D228*
X723223Y240020D03*
D450*
X723223Y248434D03*
D600*
X723223Y265325D03*
D263*
X723223Y269897D03*
D239*
X723159Y239893D03*
D182*
X723159Y248434D03*
D632*
X723159Y265452D03*
D117*
X723159Y269928D03*
D48*
X723096Y239734D03*
D178*
X723096Y248370D03*
D336*
X723096Y265515D03*
D73*
X723096Y269992D03*
D117*
X723032Y239575D03*
D125*
X723032Y248339D03*
D245*
X723032Y265642D03*
D241*
X723032Y270024D03*
D174*
X722969Y239353D03*
D582*
X722969Y248339D03*
D336*
X722969Y265769D03*
D114*
X722969Y270087D03*
D77*
X722905Y239194D03*
D125*
X722905Y248275D03*
D632*
X722905Y265833D03*
D175*
X722905Y270119D03*
D94*
X722842Y239036D03*
D582*
X722842Y248212D03*
D191*
X722842Y265928D03*
D107*
X722842Y270182D03*
D87*
X722778Y238877D03*
D125*
X722778Y248212D03*
D601*
X722778Y266055D03*
D472*
X722778Y270214D03*
D32*
X722715Y238718D03*
D582*
X722715Y248148D03*
D191*
X722715Y266118D03*
D94*
X722715Y270278D03*
D55*
X722651Y238559D03*
D125*
X722651Y248085D03*
D601*
X722651Y266245D03*
D109*
X722651Y270309D03*
D304*
X722588Y238401D03*
D450*
X722588Y248053D03*
D191*
X722588Y266309D03*
D99*
X722588Y270373D03*
D234*
X722524Y238274D03*
D335*
X722524Y247989D03*
D601*
X722524Y266436D03*
D35*
X722524Y270405D03*
D274*
X722461Y238147D03*
D582*
X722461Y247958D03*
D555*
X722461Y266531D03*
D83*
X722461Y270436D03*
D70*
X722397Y238020D03*
D182*
X722397Y247926D03*
D601*
X722397Y266626D03*
D196*
X722397Y270500D03*
D49*
X722334Y237893D03*
D178*
X722334Y247862D03*
D191*
X722334Y266690D03*
D188*
X722334Y270532D03*
D42*
X722270Y237766D03*
D79*
X722270Y245037D03*
D411*
X722270Y249894D03*
D598*
X722270Y266754D03*
D30*
X722270Y270595D03*
D246*
X722207Y237639D03*
D286*
X722207Y244941D03*
D391*
X722207Y249863D03*
D524*
X722207Y266753D03*
D220*
X722207Y270659D03*
D102*
X722143Y237512D03*
D134*
X722143Y244878D03*
D452*
X722143Y249831D03*
D79*
X722143Y266817D03*
D46*
X722143Y270691D03*
D65*
X722080Y237385D03*
D199*
X722080Y244846D03*
D395*
X722080Y249799D03*
D197*
X722080Y266817D03*
D304*
X722080Y270786D03*
D16*
X722016Y237290D03*
D79*
X722016Y244783D03*
D397*
X722016Y249799D03*
D279*
X722016Y266849D03*
D25*
X722016Y270817D03*
D13*
X721953Y237194D03*
D332*
X721953Y244687D03*
D562*
X721953Y249767D03*
D204*
X721953Y266912D03*
D466*
X721953Y270849D03*
D637*
X721889Y244624D03*
D618*
X721889Y249704D03*
D208*
X721889Y266912D03*
D234*
X721889Y270913D03*
D524*
X721826Y244528D03*
D138*
X721826Y249672D03*
D221*
X721826Y266976D03*
D628*
X721826Y270976D03*
D215*
X721762Y244465D03*
D569*
X721762Y249640D03*
D227*
X721762Y267007D03*
D111*
X721762Y271008D03*
D244*
X721699Y244370D03*
D251*
X721699Y249609D03*
D250*
X721699Y267039D03*
D274*
X721699Y271040D03*
D245*
X721635Y244306D03*
D603*
X721635Y249545D03*
D594*
X721635Y267071D03*
D21*
X721635Y271103D03*
D575*
X721572Y244243D03*
D168*
X721572Y249513D03*
D169*
X721572Y267103D03*
D62*
X721572Y271135D03*
D85*
X721508Y240242D03*
D595*
X721508Y244148D03*
D638*
X721508Y249450D03*
D41*
X721508Y267135D03*
D70*
X721508Y271167D03*
D18*
X721445Y240401D03*
D453*
X721445Y243989D03*
D336*
X721445Y249386D03*
D64*
X721445Y267166D03*
D522*
X721445Y271230D03*
D276*
X721381Y243544D03*
D598*
X721381Y249355D03*
D529*
X721381Y267230D03*
D37*
X721381Y271294D03*
D278*
X721318Y243639D03*
D336*
X721318Y249386D03*
D73*
X721318Y267262D03*
D180*
X721318Y271326D03*
D282*
X721254Y243735D03*
D601*
X721254Y249418D03*
D118*
X721254Y267293D03*
D34*
X721254Y271357D03*
D367*
X721191Y243862D03*
D575*
X721191Y249450D03*
D233*
X721191Y267325D03*
D31*
X721191Y271421D03*
D365*
X721127Y243989D03*
D573*
X721127Y249513D03*
D68*
X721127Y267357D03*
D240*
X721127Y271484D03*
D371*
X721064Y244116D03*
D341*
X721064Y249545D03*
D481*
X721064Y267420D03*
D31*
X721064Y271548D03*
D132*
X721000Y244243D03*
D595*
X721000Y249609D03*
D77*
X721000Y267452D03*
D29*
X721000Y271579D03*
D639*
X720937Y246846D03*
D121*
X720937Y267484D03*
D89*
X720937Y271643D03*
D200*
X720873Y243576D03*
D225*
X720873Y247545D03*
D248*
X720873Y250942D03*
D97*
X720873Y267516D03*
D29*
X720873Y271706D03*
D250*
X720810Y243544D03*
D64*
X720810Y247354D03*
D257*
X720810Y251037D03*
D90*
X720810Y267579D03*
D246*
X720810Y271802D03*
D117*
X720746Y243512D03*
D248*
X720746Y247323D03*
D267*
X720746Y251164D03*
D101*
X720746Y267611D03*
D24*
X720746Y271834D03*
D83*
X720683Y243512D03*
D233*
X720683Y247259D03*
D238*
X720683Y251323D03*
D99*
X720683Y267643D03*
D27*
X720683Y271897D03*
D175*
X720619Y247259D03*
D227*
X720619Y251450D03*
D87*
X720619Y267706D03*
D24*
X720619Y271961D03*
D494*
X720556Y247227D03*
D74*
X720556Y251577D03*
D83*
X720556Y267769D03*
D27*
X720556Y272024D03*
D109*
X720492Y247195D03*
D201*
X720492Y251672D03*
D193*
X720492Y267801D03*
D102*
X720492Y272056D03*
D226*
X720429Y247164D03*
D206*
X720429Y251704D03*
D527*
X720429Y267865D03*
D27*
X720429Y272151D03*
D193*
X720365Y247100D03*
D209*
X720365Y251736D03*
D196*
X720365Y267897D03*
D24*
X720365Y272215D03*
D220*
X720302Y247037D03*
D74*
X720302Y251768D03*
D75*
X720302Y267960D03*
D27*
X720302Y272278D03*
D25*
X720238Y247005D03*
D216*
X720238Y251768D03*
D55*
X720238Y268023D03*
D102*
X720238Y272310D03*
D628*
X720175Y246973D03*
D228*
X720175Y251767D03*
D203*
X720175Y268055D03*
D22*
X720175Y272373D03*
D135*
X720111Y246942D03*
D236*
X720111Y251799D03*
D137*
X720111Y268119D03*
D102*
X720111Y272437D03*
D27*
X720048Y246878D03*
D238*
X720048Y251831D03*
D28*
X720048Y268151D03*
D22*
X720048Y272500D03*
D69*
X719984Y251799D03*
D46*
X719984Y268214D03*
D102*
X719984Y272564D03*
D60*
X719921Y251831D03*
D231*
X719921Y268277D03*
D22*
X719921Y272627D03*
D54*
X719857Y251863D03*
D253*
X719857Y268309D03*
D102*
X719857Y272691D03*
D263*
X719794Y251863D03*
D177*
X719794Y268373D03*
D22*
X719794Y272754D03*
D551*
X719730Y251863D03*
D235*
X719730Y268405D03*
D24*
X719730Y272786D03*
D259*
X719667Y251894D03*
D23*
X719667Y268468D03*
D27*
X719667Y272850D03*
D254*
X719603Y251926D03*
D297*
X719603Y268500D03*
D24*
X719603Y272913D03*
D73*
X719540Y251958D03*
D40*
X719540Y268531D03*
D27*
X719540Y272977D03*
D248*
X719476Y251958D03*
D184*
X719476Y268627D03*
D24*
X719476Y273040D03*
D73*
X719413Y252022D03*
D62*
X719413Y268659D03*
D246*
X719413Y273072D03*
D117*
X719349Y252148D03*
D272*
X719349Y268722D03*
D147*
X719349Y273135D03*
D48*
X719286Y252307D03*
D517*
X719286Y268754D03*
D27*
X719286Y273167D03*
D236*
X719222Y252434D03*
D268*
X719222Y268817D03*
D24*
X719222Y273231D03*
D223*
X719159Y252561D03*
D517*
X719159Y268881D03*
D22*
X719159Y273262D03*
D10*
X85405Y639955D02*
X84303Y638853D01*
X85405Y639955D02*
X85405Y642158D01*
X84303Y643260D01*
X79897Y643260D01*
X78795Y642158D01*
X78795Y639955D01*
X79897Y638853D01*
X82100Y638853D01*
X82100Y641057D01*
X78795Y635776D02*
X85405Y635776D01*
X78795Y631369D01*
X85405Y631369D01*
X85405Y628291D02*
X78795Y628291D01*
X78795Y624987D01*
X79897Y623885D01*
X84303Y623885D01*
X85405Y624987D01*
X85405Y628291D01*
X86078Y590513D02*
X86078Y586106D01*
X86078Y590513D02*
X82773Y590513D01*
X83875Y588310D01*
X83875Y587208D01*
X82773Y586106D01*
X80570Y586106D01*
X79468Y587208D01*
X79468Y589411D01*
X80570Y590513D01*
X81671Y583029D02*
X86078Y583029D01*
X81671Y583029D02*
X79468Y580825D01*
X81671Y578622D01*
X86078Y578622D01*
X86178Y433376D02*
X79568Y433376D01*
X86178Y433376D02*
X86178Y430071D01*
X85076Y428969D01*
X82873Y428969D01*
X81772Y430071D01*
X81772Y433376D01*
X81772Y431173D02*
X79568Y428969D01*
X86178Y422587D02*
X85076Y421485D01*
X86178Y422587D02*
X86178Y424790D01*
X85076Y425892D01*
X83975Y425892D01*
X82873Y424790D01*
X82873Y422587D01*
X81772Y421485D01*
X80670Y421485D01*
X79568Y422587D01*
X79568Y424790D01*
X80670Y425892D01*
X79568Y416204D02*
X86178Y416204D01*
X86178Y414001D02*
X86178Y418408D01*
X85707Y537234D02*
X79097Y537234D01*
X85707Y539437D02*
X85707Y535031D01*
X83504Y531953D02*
X79097Y527547D01*
X79097Y531953D02*
X83504Y527547D01*
X84831Y564902D02*
X78221Y564902D01*
X84831Y564902D02*
X84831Y561597D01*
X83729Y560495D01*
X81526Y560495D01*
X80424Y561597D01*
X80424Y564902D01*
X80424Y562699D02*
X78221Y560495D01*
X82627Y557418D02*
X78221Y553011D01*
X82627Y553011D02*
X78221Y557418D01*
X234339Y362999D02*
X234341Y363102D01*
X234347Y363204D01*
X234357Y363306D01*
X234371Y363408D01*
X234388Y363509D01*
X234410Y363609D01*
X234435Y363709D01*
X234465Y363807D01*
X234498Y363904D01*
X234534Y364000D01*
X234575Y364095D01*
X234619Y364187D01*
X234666Y364278D01*
X234717Y364367D01*
X234772Y364454D01*
X234830Y364539D01*
X234891Y364622D01*
X234955Y364702D01*
X235022Y364780D01*
X235092Y364855D01*
X235165Y364927D01*
X235241Y364996D01*
X235319Y365063D01*
X235400Y365126D01*
X235483Y365186D01*
X235568Y365243D01*
X235656Y365297D01*
X235745Y365347D01*
X235837Y365393D01*
X235930Y365437D01*
X236025Y365476D01*
X236121Y365512D01*
X236218Y365544D01*
X236317Y365572D01*
X236417Y365597D01*
X236517Y365617D01*
X236618Y365634D01*
X236720Y365647D01*
X236822Y365656D01*
X236925Y365661D01*
X237028Y365662D01*
X237130Y365659D01*
X237233Y365652D01*
X237335Y365641D01*
X237436Y365626D01*
X237537Y365608D01*
X237637Y365585D01*
X237737Y365559D01*
X237835Y365528D01*
X237932Y365495D01*
X238027Y365457D01*
X238121Y365416D01*
X238213Y365371D01*
X238304Y365322D01*
X238392Y365270D01*
X238479Y365215D01*
X238563Y365156D01*
X238645Y365095D01*
X238725Y365030D01*
X238802Y364962D01*
X238876Y364891D01*
X238947Y364817D01*
X239016Y364741D01*
X239082Y364662D01*
X239144Y364581D01*
X239204Y364497D01*
X239260Y364411D01*
X239312Y364323D01*
X239362Y364233D01*
X239408Y364141D01*
X239450Y364048D01*
X239488Y363953D01*
X239523Y363856D01*
X239554Y363758D01*
X239582Y363659D01*
X239605Y363559D01*
X239625Y363459D01*
X239641Y363357D01*
X239653Y363255D01*
X239661Y363153D01*
X239665Y363050D01*
X239665Y362948D01*
X239661Y362845D01*
X239653Y362743D01*
X239641Y362641D01*
X239625Y362539D01*
X239605Y362439D01*
X239582Y362339D01*
X239554Y362240D01*
X239523Y362142D01*
X239488Y362045D01*
X239450Y361950D01*
X239408Y361857D01*
X239362Y361765D01*
X239312Y361675D01*
X239260Y361587D01*
X239204Y361501D01*
X239144Y361417D01*
X239082Y361336D01*
X239016Y361257D01*
X238947Y361181D01*
X238876Y361107D01*
X238802Y361036D01*
X238725Y360968D01*
X238645Y360903D01*
X238563Y360842D01*
X238479Y360783D01*
X238392Y360728D01*
X238304Y360676D01*
X238213Y360627D01*
X238121Y360582D01*
X238027Y360541D01*
X237932Y360503D01*
X237835Y360470D01*
X237737Y360439D01*
X237637Y360413D01*
X237537Y360390D01*
X237436Y360372D01*
X237335Y360357D01*
X237233Y360346D01*
X237130Y360339D01*
X237028Y360336D01*
X236925Y360337D01*
X236822Y360342D01*
X236720Y360351D01*
X236618Y360364D01*
X236517Y360381D01*
X236417Y360401D01*
X236317Y360426D01*
X236218Y360454D01*
X236121Y360486D01*
X236025Y360522D01*
X235930Y360561D01*
X235837Y360605D01*
X235745Y360651D01*
X235656Y360701D01*
X235568Y360755D01*
X235483Y360812D01*
X235400Y360872D01*
X235319Y360935D01*
X235241Y361002D01*
X235165Y361071D01*
X235092Y361143D01*
X235022Y361218D01*
X234955Y361296D01*
X234891Y361376D01*
X234830Y361459D01*
X234772Y361544D01*
X234717Y361631D01*
X234666Y361720D01*
X234619Y361811D01*
X234575Y361903D01*
X234534Y361998D01*
X234498Y362094D01*
X234465Y362191D01*
X234435Y362289D01*
X234410Y362389D01*
X234388Y362489D01*
X234371Y362590D01*
X234357Y362692D01*
X234347Y362794D01*
X234341Y362896D01*
X234339Y362999D01*
X85854Y513795D02*
X79245Y513795D01*
X85854Y513795D02*
X85854Y510490D01*
X84753Y509388D01*
X82550Y509388D01*
X81448Y510490D01*
X81448Y513795D01*
X81448Y511591D02*
X79245Y509388D01*
X85854Y503006D02*
X84753Y501904D01*
X85854Y503006D02*
X85854Y505209D01*
X84753Y506310D01*
X83651Y506310D01*
X82550Y505209D01*
X82550Y503006D01*
X81448Y501904D01*
X80346Y501904D01*
X79245Y503006D01*
X79245Y505209D01*
X80346Y506310D01*
X79245Y496623D02*
X85854Y496623D01*
X85854Y498826D02*
X85854Y494420D01*
D640*
X352706Y306100D02*
X352706Y297203D01*
X349740Y306100D02*
X355672Y306100D01*
X359095Y303135D02*
X365027Y297203D01*
X359095Y297203D02*
X365027Y303135D01*
X348668Y281229D02*
X348668Y272331D01*
X348668Y281229D02*
X353117Y281229D01*
X354600Y279746D01*
X354600Y276780D01*
X353117Y275297D01*
X348668Y275297D01*
X351634Y275297D02*
X354600Y272331D01*
X358024Y278263D02*
X363955Y272331D01*
X358024Y272331D02*
X363955Y278263D01*
D10*
X176556Y75312D02*
X176556Y68703D01*
X179861Y68703D01*
X180963Y69804D01*
X180963Y74211D01*
X179861Y75312D01*
X176556Y75312D01*
X187345Y75312D02*
X188447Y74211D01*
X187345Y75312D02*
X185142Y75312D01*
X184041Y74211D01*
X184041Y73109D01*
X185142Y72008D01*
X187345Y72008D01*
X188447Y70906D01*
X188447Y69804D01*
X187345Y68703D01*
X185142Y68703D01*
X184041Y69804D01*
X191525Y73109D02*
X193728Y75312D01*
X193728Y68703D01*
X191525Y68703D02*
X195931Y68703D01*
X199009Y74211D02*
X200110Y75312D01*
X202314Y75312D01*
X203415Y74211D01*
X203415Y73109D01*
X202314Y72008D01*
X203415Y70906D01*
X203415Y69804D01*
X202314Y68703D01*
X200110Y68703D01*
X199009Y69804D01*
X199009Y70906D01*
X200110Y72008D01*
X199009Y73109D01*
X199009Y74211D01*
X200110Y72008D02*
X202314Y72008D01*
X206493Y68703D02*
X206493Y75312D01*
X209798Y75312D01*
X210899Y74211D01*
X210899Y73109D01*
X209798Y72008D01*
X210899Y70906D01*
X210899Y69804D01*
X209798Y68703D01*
X206493Y68703D01*
X206493Y72008D02*
X209798Y72008D01*
X213977Y68703D02*
X218384Y68703D01*
X218384Y73109D02*
X213977Y68703D01*
X218384Y73109D02*
X218384Y74211D01*
X217282Y75312D01*
X215079Y75312D01*
X213977Y74211D01*
X221461Y74211D02*
X221461Y69804D01*
X221461Y74211D02*
X222563Y75312D01*
X224766Y75312D01*
X225868Y74211D01*
X225868Y69804D01*
X224766Y68703D01*
X222563Y68703D01*
X221461Y69804D01*
X225868Y74211D01*
X168053Y82086D02*
X166951Y80985D01*
X168053Y82086D02*
X168053Y84290D01*
X166951Y85391D01*
X162545Y85391D01*
X161443Y84290D01*
X161443Y82086D01*
X162545Y80985D01*
X164748Y80985D01*
X164748Y83188D01*
X161443Y77907D02*
X168053Y77907D01*
X161443Y73501D01*
X168053Y73501D01*
X168053Y70423D02*
X161443Y70423D01*
X161443Y67118D01*
X162545Y66016D01*
X166951Y66016D01*
X168053Y67118D01*
X168053Y70423D01*
X239476Y85114D02*
X240577Y84013D01*
X240577Y81810D01*
X239476Y80708D01*
X238374Y80708D01*
X237273Y81810D01*
X237273Y82911D01*
X237273Y81810D02*
X236171Y80708D01*
X235069Y80708D01*
X233968Y81810D01*
X233968Y84013D01*
X235069Y85114D01*
X236171Y77630D02*
X240577Y77630D01*
X236171Y77630D02*
X233968Y75427D01*
X236171Y73224D01*
X240577Y73224D01*
X239476Y70146D02*
X240577Y69044D01*
X240577Y66841D01*
X239476Y65740D01*
X238374Y65740D01*
X237273Y66841D01*
X237273Y67943D01*
X237273Y66841D02*
X236171Y65740D01*
X235069Y65740D01*
X233968Y66841D01*
X233968Y69044D01*
X235069Y70146D01*
X272445Y80982D02*
X273547Y82084D01*
X273547Y84287D01*
X272445Y85389D01*
X268039Y85389D01*
X266937Y84287D01*
X266937Y82084D01*
X268039Y80982D01*
X270242Y80982D01*
X270242Y83185D01*
X266937Y77904D02*
X273547Y77904D01*
X266937Y73498D01*
X273547Y73498D01*
X273547Y70420D02*
X266937Y70420D01*
X266937Y67116D01*
X268039Y66014D01*
X272445Y66014D01*
X273547Y67116D01*
X273547Y70420D01*
X289430Y69020D02*
X289430Y75630D01*
X292735Y75630D01*
X293837Y74528D01*
X293837Y72325D01*
X292735Y71223D01*
X289430Y71223D01*
X296914Y70122D02*
X296914Y75630D01*
X296914Y70122D02*
X298016Y69020D01*
X300219Y69020D01*
X301321Y70122D01*
X301321Y75630D01*
X304399Y75630D02*
X304399Y69020D01*
X308805Y69020D01*
X315188Y75630D02*
X316289Y74528D01*
X315188Y75630D02*
X312984Y75630D01*
X311883Y74528D01*
X311883Y73427D01*
X312984Y72325D01*
X315188Y72325D01*
X316289Y71223D01*
X316289Y70122D01*
X315188Y69020D01*
X312984Y69020D01*
X311883Y70122D01*
X319367Y75630D02*
X323773Y75630D01*
X319367Y75630D02*
X319367Y69020D01*
X323773Y69020D01*
X321570Y72325D02*
X319367Y72325D01*
X343331Y84566D02*
X344433Y83464D01*
X344433Y81261D01*
X343331Y80159D01*
X342230Y80159D01*
X341128Y81261D01*
X341128Y82362D01*
X341128Y81261D02*
X340027Y80159D01*
X338925Y80159D01*
X337823Y81261D01*
X337823Y83464D01*
X338925Y84566D01*
X340027Y77082D02*
X344433Y77082D01*
X340027Y77082D02*
X337823Y74878D01*
X340027Y72675D01*
X344433Y72675D01*
X343331Y69597D02*
X344433Y68496D01*
X344433Y66293D01*
X343331Y65191D01*
X342230Y65191D01*
X341128Y66293D01*
X341128Y67394D01*
X341128Y66293D02*
X340027Y65191D01*
X338925Y65191D01*
X337823Y66293D01*
X337823Y68496D01*
X338925Y69597D01*
X141873Y193057D02*
X141873Y199667D01*
X141873Y193057D02*
X145178Y193057D01*
X146279Y194159D01*
X146279Y196362D01*
X145178Y197464D01*
X141873Y197464D01*
X149357Y197464D02*
X149357Y194159D01*
X150458Y193057D01*
X153763Y193057D01*
X153763Y191956D02*
X153763Y197464D01*
X153763Y191956D02*
X152662Y190854D01*
X151560Y190854D01*
X164325Y193057D02*
X164325Y199667D01*
X164325Y193057D02*
X167630Y193057D01*
X168732Y194159D01*
X168732Y198565D01*
X167630Y199667D01*
X164325Y199667D01*
X171809Y199667D02*
X171809Y193057D01*
X171809Y199667D02*
X175114Y199667D01*
X176216Y198565D01*
X176216Y197464D01*
X175114Y196362D01*
X176216Y195261D01*
X176216Y194159D01*
X175114Y193057D01*
X171809Y193057D01*
X171809Y196362D02*
X175114Y196362D01*
D641*
X507255Y130972D02*
X507255Y98972D01*
X507255Y130972D02*
X439255Y130972D01*
X439255Y98972D01*
X507255Y98972D01*
D10*
X447978Y105706D02*
X447978Y112315D01*
X450181Y110112D01*
X452385Y112315D01*
X452385Y105706D01*
X458767Y112315D02*
X459869Y111214D01*
X458767Y112315D02*
X456564Y112315D01*
X455462Y111214D01*
X455462Y106807D01*
X456564Y105706D01*
X458767Y105706D01*
X459869Y106807D01*
X462947Y105706D02*
X462947Y112315D01*
X466251Y112315D01*
X467353Y111214D01*
X467353Y109010D01*
X466251Y107909D01*
X462947Y107909D01*
X470431Y110112D02*
X472634Y112315D01*
X472634Y105706D01*
X470431Y105706D02*
X474837Y105706D01*
X477915Y111214D02*
X479016Y112315D01*
X481220Y112315D01*
X482321Y111214D01*
X482321Y110112D01*
X481220Y109010D01*
X482321Y107909D01*
X482321Y106807D01*
X481220Y105706D01*
X479016Y105706D01*
X477915Y106807D01*
X477915Y107909D01*
X479016Y109010D01*
X477915Y110112D01*
X477915Y111214D01*
X479016Y109010D02*
X481220Y109010D01*
X485399Y105706D02*
X489805Y105706D01*
X485399Y105706D02*
X489805Y110112D01*
X489805Y111214D01*
X488704Y112315D01*
X486501Y112315D01*
X485399Y111214D01*
X492883Y112315D02*
X497290Y112315D01*
X492883Y112315D02*
X492883Y109010D01*
X495086Y110112D01*
X496188Y110112D01*
X497290Y109010D01*
X497290Y106807D01*
X496188Y105706D01*
X493985Y105706D01*
X492883Y106807D01*
D642*
X522218Y133662D02*
X523574Y132307D01*
X522218Y133662D02*
X519507Y133662D01*
X518151Y132307D01*
X518151Y126883D01*
X519507Y125527D01*
X522218Y125527D01*
X523574Y126883D01*
X527506Y132307D02*
X528862Y133662D01*
X531574Y133662D01*
X532929Y132307D01*
X532929Y130951D01*
X531574Y129595D01*
X530218Y129595D01*
X531574Y129595D02*
X532929Y128239D01*
X532929Y126883D01*
X531574Y125527D01*
X528862Y125527D01*
X527506Y126883D01*
D10*
X404546Y122832D02*
X403445Y121731D01*
X403445Y119528D01*
X404546Y118426D01*
X408953Y118426D01*
X410054Y119528D01*
X410054Y121731D01*
X408953Y122832D01*
X410054Y129215D02*
X403445Y129215D01*
X406750Y125910D01*
X406750Y130317D01*
X156362Y452231D02*
X154804Y452231D01*
X153246Y450674D01*
X153246Y449116D01*
X156362Y446000D01*
X157920Y446000D01*
X159478Y447558D01*
X159478Y449116D01*
X160096Y455966D02*
X160875Y458302D01*
X160096Y455966D02*
X160096Y452850D01*
X161654Y451292D01*
X163212Y451292D01*
X164770Y452850D01*
X164770Y454408D01*
X163991Y455187D01*
X162433Y455187D01*
X160096Y452850D01*
X232228Y492685D02*
X233785Y492685D01*
X232228Y492685D02*
X230670Y491127D01*
X230670Y489569D01*
X233785Y486453D01*
X235343Y486453D01*
X236901Y488011D01*
X236901Y489569D01*
X235962Y494861D02*
X235962Y496419D01*
X237520Y497977D01*
X239078Y497977D01*
X239857Y497198D01*
X239857Y495640D01*
X241414Y495640D01*
X242193Y494861D01*
X242193Y493303D01*
X240635Y491745D01*
X239078Y491745D01*
X238299Y492524D01*
X238299Y494082D01*
X236741Y494082D01*
X235962Y494861D01*
X238299Y494082D02*
X239857Y495640D01*
X208601Y344206D02*
X208601Y342648D01*
X208601Y344206D02*
X207043Y345764D01*
X205485Y345764D01*
X202369Y342648D01*
X202369Y341090D01*
X203927Y339532D01*
X205485Y339532D01*
X207661Y337356D02*
X207661Y335798D01*
X209219Y334240D01*
X210777Y334240D01*
X213893Y337356D01*
X213893Y338914D01*
X212335Y340472D01*
X210777Y340472D01*
X209998Y339693D01*
X209998Y338135D01*
X212335Y335798D01*
D642*
X145873Y339983D02*
X133173Y339983D01*
X126823Y346333D01*
X126823Y359033D02*
X133173Y365383D01*
X126823Y346333D02*
X120473Y339983D01*
X107773Y339983D01*
X101423Y346333D01*
X101423Y359033D02*
X107773Y365383D01*
X120473Y365383D01*
X126823Y359033D01*
X152223Y359033D02*
X152223Y346333D01*
X145873Y339983D01*
X152223Y359033D02*
X145873Y365383D01*
X133173Y365383D01*
X101423Y359033D02*
X101423Y346333D01*
D10*
X110364Y367817D02*
X110364Y374426D01*
X113669Y374426D01*
X114771Y373325D01*
X114771Y372223D01*
X113669Y371121D01*
X114771Y370020D01*
X114771Y368918D01*
X113669Y367817D01*
X110364Y367817D01*
X110364Y371121D02*
X113669Y371121D01*
X118950Y374426D02*
X121153Y374426D01*
X118950Y374426D02*
X117848Y373325D01*
X117848Y368918D01*
X118950Y367817D01*
X121153Y367817D01*
X122255Y368918D01*
X122255Y373325D01*
X121153Y374426D01*
X126434Y374426D02*
X128637Y374426D01*
X126434Y374426D02*
X125333Y373325D01*
X125333Y368918D01*
X126434Y367817D01*
X128637Y367817D01*
X129739Y368918D01*
X129739Y373325D01*
X128637Y374426D01*
X135020Y374426D02*
X135020Y367817D01*
X132817Y374426D02*
X137223Y374426D01*
X140301Y373325D02*
X140301Y368918D01*
X140301Y373325D02*
X141403Y374426D01*
X143606Y374426D01*
X144707Y373325D01*
X144707Y368918D01*
X143606Y367817D01*
X141403Y367817D01*
X140301Y368918D01*
X144707Y373325D01*
X160992Y375148D02*
X160992Y381757D01*
X164297Y381757D01*
X165398Y380656D01*
X165398Y378452D01*
X164297Y377351D01*
X160992Y377351D01*
X163195Y377351D02*
X165398Y375148D01*
X168476Y375148D02*
X172882Y375148D01*
X168476Y375148D02*
X172882Y379554D01*
X172882Y380656D01*
X171781Y381757D01*
X169578Y381757D01*
X168476Y380656D01*
D640*
X435957Y808895D02*
X440957Y808895D01*
X490957Y808895D01*
X495957Y808895D01*
X495957Y783895D01*
X485957Y783895D01*
X485957Y743895D01*
X495957Y743895D01*
X495957Y663895D01*
X490957Y663895D01*
X490957Y668895D01*
X453957Y668895D01*
X453957Y663895D01*
X435957Y663895D01*
X435957Y668895D01*
X445957Y668895D01*
X445957Y708895D01*
X435957Y708895D01*
X435957Y768895D01*
X445957Y768895D01*
X445957Y800895D01*
X435957Y800895D01*
X435957Y808895D01*
X440957Y808895D02*
X440957Y833895D01*
X490957Y833895D01*
X490957Y808895D01*
D12*
X423405Y737117D02*
X421456Y735168D01*
X421456Y731270D01*
X423405Y729321D01*
X431201Y729321D01*
X433149Y731270D01*
X433149Y735168D01*
X431201Y737117D01*
X433149Y744913D02*
X421456Y744913D01*
X421456Y741015D02*
X421456Y748811D01*
X425354Y752709D02*
X421456Y756607D01*
X433149Y756607D01*
X433149Y752709D02*
X433149Y760505D01*
D10*
X288215Y588192D02*
X288215Y581583D01*
X288215Y588192D02*
X291520Y588192D01*
X292622Y587091D01*
X292622Y584887D01*
X291520Y583786D01*
X288215Y583786D01*
X290418Y583786D02*
X292622Y581583D01*
X295699Y581583D02*
X295699Y588192D01*
X300106Y588192D01*
X297903Y584887D02*
X295699Y584887D01*
X303183Y585989D02*
X305387Y588192D01*
X305387Y581583D01*
X307590Y581583D02*
X303183Y581583D01*
X294449Y529437D02*
X295550Y528336D01*
X294449Y529437D02*
X292245Y529437D01*
X291144Y528336D01*
X291144Y523929D01*
X292245Y522828D01*
X294449Y522828D01*
X295550Y523929D01*
X298628Y522828D02*
X298628Y529437D01*
X303034Y529437D01*
X300831Y526133D02*
X298628Y526133D01*
X306112Y527234D02*
X308315Y529437D01*
X308315Y522828D01*
X306112Y522828D02*
X310519Y522828D01*
D640*
X308227Y808895D02*
X313227Y808895D01*
X363227Y808895D01*
X368227Y808895D01*
X368227Y783895D01*
X358227Y783895D01*
X358227Y743895D01*
X368227Y743895D01*
X368227Y663895D01*
X363227Y663895D01*
X363227Y668895D01*
X326227Y668895D01*
X326227Y663895D01*
X308227Y663895D01*
X308227Y668895D01*
X318227Y668895D01*
X318227Y708895D01*
X308227Y708895D01*
X308227Y768895D01*
X318227Y768895D01*
X318227Y800895D01*
X308227Y800895D01*
X308227Y808895D01*
X313227Y808895D02*
X313227Y833895D01*
X363227Y833895D01*
X363227Y808895D01*
D12*
X295675Y737117D02*
X293726Y735168D01*
X293726Y731270D01*
X295675Y729321D01*
X303471Y729321D01*
X305419Y731270D01*
X305419Y735168D01*
X303471Y737117D01*
X305419Y744913D02*
X293726Y744913D01*
X293726Y741015D02*
X293726Y748811D01*
X305419Y752709D02*
X305419Y760505D01*
X297624Y760505D02*
X305419Y752709D01*
X297624Y760505D02*
X295675Y760505D01*
X293726Y758556D01*
X293726Y754658D01*
X295675Y752709D01*
D10*
X242552Y588192D02*
X242552Y581583D01*
X242552Y588192D02*
X245856Y588192D01*
X246958Y587091D01*
X246958Y584887D01*
X245856Y583786D01*
X242552Y583786D01*
X244755Y583786D02*
X246958Y581583D01*
X250036Y581583D02*
X250036Y588192D01*
X254442Y588192D01*
X252239Y584887D02*
X250036Y584887D01*
X257520Y581583D02*
X261926Y581583D01*
X257520Y581583D02*
X261926Y585989D01*
X261926Y587091D01*
X260825Y588192D01*
X258621Y588192D01*
X257520Y587091D01*
X248782Y529018D02*
X249884Y527917D01*
X248782Y529018D02*
X246579Y529018D01*
X245478Y527917D01*
X245478Y523510D01*
X246579Y522409D01*
X248782Y522409D01*
X249884Y523510D01*
X252962Y522409D02*
X252962Y529018D01*
X257368Y529018D01*
X255165Y525714D02*
X252962Y525714D01*
X260446Y522409D02*
X264852Y522409D01*
X260446Y522409D02*
X264852Y526815D01*
X264852Y527917D01*
X263751Y529018D01*
X261547Y529018D01*
X260446Y527917D01*
D640*
X185497Y808895D02*
X180497Y808895D01*
X185497Y808895D02*
X235497Y808895D01*
X240497Y808895D01*
X240497Y783895D01*
X230497Y783895D01*
X230497Y743895D01*
X240497Y743895D01*
X240497Y663895D01*
X235497Y663895D01*
X235497Y668895D01*
X198497Y668895D01*
X198497Y663895D01*
X180497Y663895D01*
X180497Y668895D01*
X190497Y668895D01*
X190497Y708895D01*
X180497Y708895D01*
X180497Y768895D01*
X190497Y768895D01*
X190497Y800895D01*
X180497Y800895D01*
X180497Y808895D01*
X185497Y808895D02*
X185497Y833895D01*
X235497Y833895D01*
X235497Y808895D01*
D12*
X167945Y737117D02*
X165996Y735168D01*
X165996Y731270D01*
X167945Y729321D01*
X175741Y729321D01*
X177689Y731270D01*
X177689Y735168D01*
X175741Y737117D01*
X177689Y744913D02*
X165996Y744913D01*
X165996Y741015D02*
X165996Y748811D01*
X167945Y752709D02*
X165996Y754658D01*
X165996Y758556D01*
X167945Y760505D01*
X169894Y760505D01*
X171843Y758556D01*
X171843Y756607D01*
X171843Y758556D02*
X173792Y760505D01*
X175741Y760505D01*
X177689Y758556D01*
X177689Y754658D01*
X175741Y752709D01*
D10*
X196888Y588192D02*
X196888Y581583D01*
X196888Y588192D02*
X200193Y588192D01*
X201294Y587091D01*
X201294Y584887D01*
X200193Y583786D01*
X196888Y583786D01*
X199091Y583786D02*
X201294Y581583D01*
X204372Y581583D02*
X204372Y588192D01*
X208778Y588192D01*
X206575Y584887D02*
X204372Y584887D01*
X211856Y587091D02*
X212958Y588192D01*
X215161Y588192D01*
X216263Y587091D01*
X216263Y585989D01*
X215161Y584887D01*
X214059Y584887D01*
X215161Y584887D02*
X216263Y583786D01*
X216263Y582684D01*
X215161Y581583D01*
X212958Y581583D01*
X211856Y582684D01*
X202283Y529021D02*
X203385Y527919D01*
X202283Y529021D02*
X200080Y529021D01*
X198978Y527919D01*
X198978Y523513D01*
X200080Y522411D01*
X202283Y522411D01*
X203385Y523513D01*
X206462Y522411D02*
X206462Y529021D01*
X210869Y529021D01*
X208666Y525716D02*
X206462Y525716D01*
X213947Y527919D02*
X215048Y529021D01*
X217251Y529021D01*
X218353Y527919D01*
X218353Y526818D01*
X217251Y525716D01*
X216150Y525716D01*
X217251Y525716D02*
X218353Y524614D01*
X218353Y523513D01*
X217251Y522411D01*
X215048Y522411D01*
X213947Y523513D01*
X333879Y581583D02*
X333879Y588192D01*
X337184Y588192D01*
X338285Y587091D01*
X338285Y584887D01*
X337184Y583786D01*
X333879Y583786D01*
X336082Y583786D02*
X338285Y581583D01*
X341363Y581583D02*
X341363Y588192D01*
X345769Y588192D01*
X343566Y584887D02*
X341363Y584887D01*
X348847Y583786D02*
X348847Y588192D01*
X348847Y583786D02*
X351050Y581583D01*
X353254Y583786D01*
X353254Y588192D01*
X340945Y528599D02*
X342047Y527498D01*
X340945Y528599D02*
X338742Y528599D01*
X337641Y527498D01*
X337641Y523091D01*
X338742Y521990D01*
X340945Y521990D01*
X342047Y523091D01*
X345125Y521990D02*
X345125Y528599D01*
X349531Y528599D01*
X347328Y525294D02*
X345125Y525294D01*
X352609Y524193D02*
X352609Y528599D01*
X352609Y524193D02*
X354812Y521990D01*
X357015Y524193D01*
X357015Y528599D01*
X579662Y662328D02*
X579662Y668938D01*
X582967Y668938D01*
X584068Y667836D01*
X584068Y665633D01*
X582967Y664531D01*
X579662Y664531D01*
X581865Y664531D02*
X584068Y662328D01*
X587146Y666734D02*
X589349Y668938D01*
X589349Y662328D01*
X587146Y662328D02*
X591552Y662328D01*
X594630Y663430D02*
X595732Y662328D01*
X597935Y662328D01*
X599037Y663430D01*
X599037Y667836D01*
X597935Y668938D01*
X595732Y668938D01*
X594630Y667836D01*
X594630Y666734D01*
X595732Y665633D01*
X599037Y665633D01*
X619662Y662328D02*
X619662Y668938D01*
X622967Y668938D01*
X624068Y667836D01*
X624068Y665633D01*
X622967Y664531D01*
X619662Y664531D01*
X621865Y664531D02*
X624068Y662328D01*
X627146Y662328D02*
X631552Y662328D01*
X627146Y662328D02*
X631552Y666734D01*
X631552Y667836D01*
X630451Y668938D01*
X628248Y668938D01*
X627146Y667836D01*
X634630Y667836D02*
X634630Y663430D01*
X634630Y667836D02*
X635732Y668938D01*
X637935Y668938D01*
X639037Y667836D01*
X639037Y663430D01*
X637935Y662328D01*
X635732Y662328D01*
X634630Y663430D01*
X639037Y667836D01*
X341499Y462138D02*
X341499Y455528D01*
X341499Y462138D02*
X344804Y462138D01*
X345905Y461036D01*
X345905Y458833D01*
X344804Y457731D01*
X341499Y457731D01*
X343702Y457731D02*
X345905Y455528D01*
X348983Y455528D02*
X353390Y455528D01*
X348983Y455528D02*
X353390Y459935D01*
X353390Y461036D01*
X352288Y462138D01*
X350085Y462138D01*
X348983Y461036D01*
X356467Y455528D02*
X360874Y455528D01*
X356467Y455528D02*
X360874Y459935D01*
X360874Y461036D01*
X359772Y462138D01*
X357569Y462138D01*
X356467Y461036D01*
X320502Y512171D02*
X320502Y518781D01*
X323806Y518781D01*
X324908Y517679D01*
X324908Y515476D01*
X323806Y514374D01*
X320502Y514374D01*
X322705Y514374D02*
X324908Y512171D01*
X327986Y512171D02*
X332392Y512171D01*
X327986Y512171D02*
X332392Y516578D01*
X332392Y517679D01*
X331290Y518781D01*
X329087Y518781D01*
X327986Y517679D01*
X335470Y517679D02*
X336571Y518781D01*
X338775Y518781D01*
X339876Y517679D01*
X339876Y516578D01*
X338775Y515476D01*
X337673Y515476D01*
X338775Y515476D02*
X339876Y514374D01*
X339876Y513273D01*
X338775Y512171D01*
X336571Y512171D01*
X335470Y513273D01*
X290307Y478105D02*
X289206Y477003D01*
X289206Y474800D01*
X290307Y473698D01*
X294714Y473698D01*
X295815Y474800D01*
X295815Y477003D01*
X294714Y478105D01*
X291409Y481182D02*
X289206Y483386D01*
X295815Y483386D01*
X295815Y485589D02*
X295815Y481182D01*
X290307Y488667D02*
X289206Y489768D01*
X289206Y491971D01*
X290307Y493073D01*
X291409Y493073D01*
X292511Y491971D01*
X293612Y493073D01*
X294714Y493073D01*
X295815Y491971D01*
X295815Y489768D01*
X294714Y488667D01*
X293612Y488667D01*
X292511Y489768D01*
X291409Y488667D01*
X290307Y488667D01*
X292511Y489768D02*
X292511Y491971D01*
X315937Y402251D02*
X317495Y402251D01*
X315937Y402251D02*
X314379Y400693D01*
X314379Y399135D01*
X317495Y396020D01*
X319053Y396020D01*
X320611Y397577D01*
X320611Y399135D01*
X323566Y400533D02*
X326682Y403649D01*
X323566Y406764D02*
X323566Y400533D01*
X323566Y406764D02*
X322787Y407543D01*
X321229Y407543D01*
X319671Y405985D01*
X319671Y404427D01*
X328858Y405825D02*
X331974Y408941D01*
X328858Y412056D02*
X328858Y405825D01*
X328858Y412056D02*
X328079Y412835D01*
X326521Y412835D01*
X324963Y411277D01*
X324963Y409720D01*
D642*
X252197Y163157D02*
X149197Y163157D01*
X252197Y163157D02*
X252197Y89157D01*
X149197Y89157D01*
X149197Y163157D01*
X156947Y99407D02*
X156947Y90657D01*
X156947Y99407D02*
X153447Y102907D01*
X149947Y102907D01*
X174447Y99407D02*
X174447Y90657D01*
X174447Y99407D02*
X177947Y102907D01*
X188447Y102907D01*
X191947Y99407D01*
X191947Y90657D01*
X209447Y90657D02*
X209447Y99407D01*
X212947Y102907D01*
X223447Y102907D01*
X226947Y99407D01*
X226947Y90657D01*
X244447Y90657D02*
X244447Y99407D01*
X247947Y102907D01*
X251447Y102907D01*
X254197Y163157D02*
X357197Y163157D01*
X357197Y89157D01*
X254197Y89157D01*
X254197Y163157D01*
X261947Y99407D02*
X261947Y90657D01*
X261947Y99407D02*
X258447Y102907D01*
X254947Y102907D01*
X279447Y99407D02*
X279447Y90657D01*
X279447Y99407D02*
X282947Y102907D01*
X293447Y102907D01*
X296947Y99407D01*
X296947Y90657D01*
X314447Y90657D02*
X314447Y99407D01*
X317947Y102907D01*
X328447Y102907D01*
X331947Y99407D01*
X331947Y90657D01*
X349447Y90657D02*
X349447Y99407D01*
X352947Y102907D01*
X356447Y102907D01*
D10*
X261485Y317238D02*
X261485Y318796D01*
X259927Y320354D01*
X258369Y320354D01*
X255253Y317238D01*
X255253Y315680D01*
X256811Y314122D01*
X258369Y314122D01*
X262882Y314283D02*
X265998Y314283D01*
X261324Y309609D01*
X259766Y311167D02*
X262882Y308051D01*
X267395Y303538D02*
X272069Y308212D01*
X267395Y308212D01*
X270511Y305096D01*
X334946Y383833D02*
X334946Y385391D01*
X333389Y386949D01*
X331831Y386949D01*
X328715Y383833D01*
X328715Y382275D01*
X330273Y380717D01*
X331831Y380717D01*
X336344Y380878D02*
X339460Y380878D01*
X334786Y376204D01*
X333228Y377762D02*
X336344Y374646D01*
X343194Y377144D02*
X346310Y374028D01*
X343194Y377144D02*
X340857Y374807D01*
X343194Y374028D01*
X343973Y373249D01*
X343973Y371691D01*
X342415Y370133D01*
X340857Y370133D01*
X339299Y371691D01*
X339299Y373249D01*
D642*
X114731Y436605D02*
X108381Y442955D01*
X114731Y436605D02*
X114731Y423905D01*
X108381Y417555D01*
X95681Y417555D02*
X89331Y423905D01*
X89331Y436605D01*
X95681Y442955D01*
X114731Y474705D02*
X114731Y487405D01*
X114731Y474705D02*
X108381Y468355D01*
X95681Y468355D02*
X89331Y474705D01*
X108381Y468355D02*
X114731Y462005D01*
X114731Y449305D01*
X108381Y442955D01*
X95681Y442955D02*
X89331Y449305D01*
X89331Y462005D01*
X95681Y468355D01*
X95681Y493755D02*
X108381Y493755D01*
X114731Y487405D01*
X95681Y493755D02*
X89331Y487405D01*
X89331Y474705D01*
X95681Y417555D02*
X108381Y417555D01*
D10*
X124490Y470424D02*
X125591Y471526D01*
X125591Y473729D01*
X124490Y474831D01*
X123388Y474831D01*
X122286Y473729D01*
X122286Y471526D01*
X121185Y470424D01*
X120083Y470424D01*
X118982Y471526D01*
X118982Y473729D01*
X120083Y474831D01*
X118982Y465143D02*
X125591Y465143D01*
X125591Y467346D02*
X125591Y462940D01*
X125591Y459862D02*
X118982Y459862D01*
X118982Y455456D01*
X118982Y452378D02*
X118982Y450175D01*
X118982Y451277D02*
X125591Y451277D01*
X125591Y452378D02*
X125591Y450175D01*
X125591Y447389D02*
X118982Y447389D01*
X118982Y442982D02*
X125591Y447389D01*
X125591Y442982D02*
X118982Y442982D01*
X118982Y439905D02*
X125591Y439905D01*
X121185Y439905D02*
X125591Y435498D01*
X122286Y438803D02*
X118982Y435498D01*
X277157Y188394D02*
X278259Y187292D01*
X277157Y188394D02*
X274954Y188394D01*
X273853Y187292D01*
X273853Y182886D01*
X274954Y181784D01*
X277157Y181784D01*
X278259Y182886D01*
X281337Y186191D02*
X283540Y188394D01*
X283540Y181784D01*
X281337Y181784D02*
X285743Y181784D01*
X291024Y187292D02*
X293227Y188394D01*
X291024Y187292D02*
X288821Y185089D01*
X288821Y182886D01*
X289922Y181784D01*
X292126Y181784D01*
X293227Y182886D01*
X293227Y183988D01*
X292126Y185089D01*
X288821Y185089D01*
X210282Y185672D02*
X210282Y192282D01*
X213587Y192282D01*
X214689Y191180D01*
X214689Y188977D01*
X213587Y187876D01*
X210282Y187876D01*
X212486Y187876D02*
X214689Y185672D01*
X217766Y190079D02*
X219970Y192282D01*
X219970Y185672D01*
X222173Y185672D02*
X217766Y185672D01*
X113753Y384389D02*
X113753Y390998D01*
X117057Y390998D01*
X118159Y389897D01*
X118159Y387693D01*
X117057Y386592D01*
X113753Y386592D01*
X115956Y386592D02*
X118159Y384389D01*
X121237Y389897D02*
X122338Y390998D01*
X124541Y390998D01*
X125643Y389897D01*
X125643Y388795D01*
X124541Y387693D01*
X123440Y387693D01*
X124541Y387693D02*
X125643Y386592D01*
X125643Y385490D01*
X124541Y384389D01*
X122338Y384389D01*
X121237Y385490D01*
D643*
X104490Y411111D02*
X98219Y411111D01*
X101355Y414246D02*
X101355Y407976D01*
D644*
X100493Y389287D03*
X88493Y389287D03*
D645*
X94493Y389287D03*
D10*
X83531Y373849D02*
X76922Y373849D01*
X83531Y373849D02*
X83531Y378256D01*
X76922Y381333D02*
X76922Y385740D01*
X76922Y381333D02*
X83531Y381333D01*
X83531Y385740D01*
X80227Y383536D02*
X80227Y381333D01*
X83531Y388817D02*
X76922Y388817D01*
X83531Y388817D02*
X83531Y392122D01*
X82430Y393224D01*
X78023Y393224D01*
X76922Y392122D01*
X76922Y388817D01*
X79125Y396302D02*
X76922Y398505D01*
X83531Y398505D01*
X83531Y396302D02*
X83531Y400708D01*
X279402Y423681D02*
X282815Y420268D01*
X230370Y472713D02*
X226958Y469300D01*
X177925Y420268D02*
X181338Y416856D01*
X230370Y367824D02*
X233783Y371236D01*
X279402Y416856D02*
X282815Y420268D01*
X233783Y469300D02*
X230370Y472713D01*
X181338Y423681D02*
X177925Y420268D01*
X226958Y371236D02*
X230370Y367824D01*
X248330Y363513D02*
X248370Y363550D01*
X248412Y363584D01*
X248457Y363615D01*
X248504Y363643D01*
X248552Y363667D01*
X248603Y363688D01*
X248654Y363705D01*
X248707Y363719D01*
X248761Y363728D01*
X248815Y363734D01*
X248869Y363736D01*
X248923Y363734D01*
X248977Y363728D01*
X249031Y363719D01*
X249084Y363705D01*
X249135Y363688D01*
X249186Y363667D01*
X249234Y363643D01*
X249281Y363615D01*
X249326Y363584D01*
X249368Y363550D01*
X249408Y363513D01*
X249445Y363473D01*
X249479Y363431D01*
X249510Y363386D01*
X249538Y363339D01*
X249562Y363291D01*
X249583Y363240D01*
X249600Y363189D01*
X249614Y363136D01*
X249623Y363082D01*
X249629Y363028D01*
X249631Y362974D01*
X249629Y362920D01*
X249623Y362866D01*
X249614Y362812D01*
X249600Y362759D01*
X249583Y362708D01*
X249562Y362657D01*
X249538Y362609D01*
X249510Y362562D01*
X249479Y362517D01*
X249445Y362475D01*
X249408Y362435D01*
X249368Y362398D01*
X249326Y362364D01*
X249281Y362333D01*
X249234Y362305D01*
X249186Y362281D01*
X249135Y362260D01*
X249084Y362243D01*
X249031Y362229D01*
X248977Y362220D01*
X248923Y362214D01*
X248869Y362212D01*
X248815Y362214D01*
X248761Y362220D01*
X248707Y362229D01*
X248654Y362243D01*
X248603Y362260D01*
X248552Y362281D01*
X248504Y362305D01*
X248457Y362333D01*
X248412Y362364D01*
X248370Y362398D01*
X248330Y362435D01*
X248293Y362475D01*
X248259Y362517D01*
X248228Y362562D01*
X248200Y362609D01*
X248176Y362657D01*
X248155Y362708D01*
X248138Y362759D01*
X248124Y362812D01*
X248115Y362866D01*
X248109Y362920D01*
X248107Y362974D01*
X248109Y363028D01*
X248115Y363082D01*
X248124Y363136D01*
X248138Y363189D01*
X248155Y363240D01*
X248176Y363291D01*
X248200Y363339D01*
X248228Y363386D01*
X248259Y363431D01*
X248293Y363473D01*
X248330Y363513D01*
X241663Y428349D02*
X240105Y428349D01*
X241663Y428349D02*
X243221Y429907D01*
X243221Y431465D01*
X242442Y432243D01*
X240884Y432243D01*
X239326Y430686D01*
X237768Y430686D01*
X236989Y431465D01*
X236989Y433022D01*
X238547Y434580D01*
X240105Y434580D01*
X232476Y428509D02*
X237150Y423836D01*
X238708Y425393D02*
X235592Y422278D01*
X233416Y420101D02*
X228742Y424775D01*
X230300Y420101D02*
X233416Y420101D01*
X230300Y420101D02*
X230300Y416986D01*
X225626Y421659D01*
X227345Y415588D02*
X227345Y414030D01*
X225787Y412472D01*
X224229Y412472D01*
X223450Y413251D01*
X223450Y414809D01*
X224229Y415588D01*
X223450Y414809D02*
X221892Y414809D01*
X221113Y415588D01*
X221113Y417146D01*
X222671Y418704D01*
X224229Y418704D01*
X218158Y414191D02*
X215042Y411075D01*
X218158Y414191D02*
X218158Y407959D01*
X218937Y407180D01*
X220495Y407180D01*
X222053Y408738D01*
X222053Y410296D01*
X556024Y589720D02*
X561104Y601150D01*
X553484Y591244D02*
X556024Y589720D01*
X553484Y591244D02*
X547388Y586926D01*
X542816Y591752D01*
X546880Y597848D01*
X544340Y604706D02*
X536720Y605976D01*
X536720Y612580D01*
X544340Y614104D01*
X547134Y620454D02*
X542562Y627058D01*
X547388Y631630D01*
X553992Y627058D01*
X560342Y629598D02*
X561612Y637726D01*
X568470Y637726D01*
X569740Y629598D01*
X576090Y627058D02*
X582694Y631630D01*
X587520Y627058D01*
X582948Y620454D01*
X585742Y614104D02*
X593362Y612580D01*
X593362Y605976D01*
X585742Y604706D01*
X583202Y597848D02*
X587520Y591752D01*
X582694Y586926D01*
X576598Y591244D01*
X574058Y589720D01*
X569232Y601150D01*
X569232Y601404D02*
X569436Y601506D01*
X569637Y601613D01*
X569835Y601725D01*
X570031Y601841D01*
X570224Y601963D01*
X570414Y602088D01*
X570600Y602219D01*
X570784Y602354D01*
X570964Y602494D01*
X571140Y602638D01*
X571313Y602786D01*
X571483Y602938D01*
X571648Y603095D01*
X571810Y603255D01*
X571968Y603419D01*
X572121Y603588D01*
X572271Y603760D01*
X572416Y603935D01*
X572557Y604114D01*
X572694Y604296D01*
X572826Y604482D01*
X572953Y604671D01*
X573076Y604863D01*
X573194Y605058D01*
X573307Y605255D01*
X573415Y605456D01*
X573519Y605659D01*
X573617Y605864D01*
X573711Y606072D01*
X573799Y606282D01*
X573882Y606494D01*
X573960Y606708D01*
X574032Y606924D01*
X574100Y607142D01*
X574162Y607361D01*
X574218Y607581D01*
X574270Y607803D01*
X574315Y608027D01*
X574356Y608251D01*
X574390Y608476D01*
X574420Y608702D01*
X574443Y608928D01*
X574462Y609155D01*
X574474Y609383D01*
X574481Y609611D01*
X574483Y609838D01*
X574479Y610066D01*
X574469Y610294D01*
X574454Y610521D01*
X574433Y610748D01*
X574407Y610974D01*
X574375Y611200D01*
X574338Y611424D01*
X574295Y611648D01*
X574247Y611871D01*
X574193Y612092D01*
X574134Y612312D01*
X574069Y612531D01*
X574000Y612748D01*
X573925Y612963D01*
X573844Y613176D01*
X573759Y613387D01*
X573668Y613596D01*
X573572Y613803D01*
X573472Y614007D01*
X573366Y614209D01*
X573255Y614408D01*
X573140Y614604D01*
X573020Y614798D01*
X572895Y614988D01*
X572765Y615176D01*
X572631Y615360D01*
X572493Y615541D01*
X572350Y615718D01*
X572203Y615892D01*
X572051Y616062D01*
X571896Y616229D01*
X571736Y616391D01*
X571573Y616550D01*
X571405Y616704D01*
X571234Y616855D01*
X571060Y617001D01*
X570881Y617143D01*
X570700Y617281D01*
X570515Y617414D01*
X570327Y617542D01*
X570136Y617666D01*
X569941Y617785D01*
X569744Y617899D01*
X569545Y618009D01*
X569342Y618113D01*
X569137Y618213D01*
X568930Y618307D01*
X568721Y618397D01*
X568509Y618481D01*
X568295Y618560D01*
X568080Y618634D01*
X567863Y618703D01*
X567644Y618766D01*
X567423Y618824D01*
X567202Y618876D01*
X566979Y618923D01*
X566755Y618965D01*
X566530Y619001D01*
X566304Y619031D01*
X566078Y619056D01*
X565851Y619076D01*
X565623Y619090D01*
X565396Y619098D01*
X565168Y619101D01*
X564940Y619098D01*
X564713Y619090D01*
X564485Y619076D01*
X564258Y619056D01*
X564032Y619031D01*
X563806Y619001D01*
X563581Y618965D01*
X563357Y618923D01*
X563134Y618876D01*
X562913Y618824D01*
X562692Y618766D01*
X562473Y618703D01*
X562256Y618634D01*
X562041Y618560D01*
X561827Y618481D01*
X561615Y618397D01*
X561406Y618307D01*
X561199Y618213D01*
X560994Y618113D01*
X560791Y618009D01*
X560592Y617899D01*
X560395Y617785D01*
X560200Y617666D01*
X560009Y617542D01*
X559821Y617414D01*
X559636Y617281D01*
X559455Y617143D01*
X559276Y617001D01*
X559102Y616855D01*
X558931Y616704D01*
X558763Y616550D01*
X558600Y616391D01*
X558440Y616229D01*
X558285Y616062D01*
X558133Y615892D01*
X557986Y615718D01*
X557843Y615541D01*
X557705Y615360D01*
X557571Y615176D01*
X557441Y614988D01*
X557316Y614798D01*
X557196Y614604D01*
X557081Y614408D01*
X556970Y614209D01*
X556864Y614007D01*
X556764Y613803D01*
X556668Y613596D01*
X556577Y613387D01*
X556492Y613176D01*
X556411Y612963D01*
X556336Y612748D01*
X556267Y612531D01*
X556202Y612312D01*
X556143Y612092D01*
X556089Y611871D01*
X556041Y611648D01*
X555998Y611424D01*
X555961Y611200D01*
X555929Y610974D01*
X555903Y610748D01*
X555882Y610521D01*
X555867Y610294D01*
X555857Y610066D01*
X555853Y609838D01*
X555855Y609611D01*
X555862Y609383D01*
X555874Y609155D01*
X555893Y608928D01*
X555916Y608702D01*
X555946Y608476D01*
X555980Y608251D01*
X556021Y608027D01*
X556066Y607803D01*
X556118Y607581D01*
X556174Y607361D01*
X556236Y607142D01*
X556304Y606924D01*
X556376Y606708D01*
X556454Y606494D01*
X556537Y606282D01*
X556625Y606072D01*
X556719Y605864D01*
X556817Y605659D01*
X556921Y605456D01*
X557029Y605255D01*
X557142Y605058D01*
X557260Y604863D01*
X557383Y604671D01*
X557510Y604482D01*
X557642Y604296D01*
X557779Y604114D01*
X557920Y603935D01*
X558065Y603760D01*
X558215Y603588D01*
X558368Y603419D01*
X558526Y603255D01*
X558688Y603095D01*
X558853Y602938D01*
X559023Y602786D01*
X559196Y602638D01*
X559372Y602494D01*
X559552Y602354D01*
X559736Y602219D01*
X559922Y602088D01*
X560112Y601963D01*
X560305Y601841D01*
X560501Y601725D01*
X560699Y601613D01*
X560900Y601506D01*
X561104Y601404D01*
X546965Y597929D02*
X546703Y598377D01*
X546453Y598831D01*
X546213Y599291D01*
X545985Y599757D01*
X545769Y600228D01*
X545564Y600704D01*
X545371Y601185D01*
X545190Y601671D01*
X545020Y602161D01*
X544863Y602655D01*
X544718Y603153D01*
X544585Y603654D01*
X544465Y604158D01*
X544357Y604666D01*
X544499Y614105D02*
X544621Y614574D01*
X544754Y615040D01*
X544898Y615503D01*
X545052Y615962D01*
X545217Y616418D01*
X545392Y616870D01*
X545578Y617318D01*
X545773Y617761D01*
X545979Y618200D01*
X546195Y618634D01*
X546420Y619063D01*
X546656Y619487D01*
X546901Y619905D01*
X547155Y620318D01*
X554080Y627149D02*
X554517Y627405D01*
X554960Y627650D01*
X555409Y627885D01*
X555863Y628108D01*
X556322Y628321D01*
X556786Y628522D01*
X557255Y628713D01*
X557729Y628892D01*
X558206Y629060D01*
X558688Y629216D01*
X559173Y629361D01*
X559661Y629494D01*
X560153Y629615D01*
X569875Y629662D02*
X570350Y629547D01*
X570822Y629422D01*
X571291Y629286D01*
X571757Y629139D01*
X572219Y628982D01*
X572678Y628814D01*
X573133Y628636D01*
X573583Y628447D01*
X574029Y628247D01*
X574470Y628038D01*
X574907Y627819D01*
X575338Y627589D01*
X575764Y627350D01*
X576184Y627101D01*
X582919Y620412D02*
X583188Y619997D01*
X583447Y619574D01*
X583695Y619146D01*
X583933Y618712D01*
X584161Y618272D01*
X584378Y617827D01*
X584584Y617376D01*
X584780Y616921D01*
X584964Y616462D01*
X585137Y615998D01*
X585299Y615530D01*
X585450Y615058D01*
X585589Y614583D01*
X585717Y614104D01*
X585765Y604618D02*
X585671Y604141D01*
X585566Y603667D01*
X585449Y603195D01*
X585321Y602727D01*
X585182Y602261D01*
X585032Y601799D01*
X584871Y601340D01*
X584700Y600886D01*
X584517Y600435D01*
X584324Y599989D01*
X584121Y599548D01*
X583907Y599112D01*
X583683Y598681D01*
X583449Y598255D01*
X583204Y597835D01*
D640*
X639277Y823084D02*
X639274Y823326D01*
X639265Y823567D01*
X639251Y823808D01*
X639230Y824049D01*
X639204Y824289D01*
X639172Y824529D01*
X639134Y824768D01*
X639091Y825005D01*
X639041Y825242D01*
X638986Y825477D01*
X638926Y825711D01*
X638859Y825943D01*
X638788Y826174D01*
X638710Y826403D01*
X638627Y826630D01*
X638539Y826855D01*
X638445Y827078D01*
X638346Y827298D01*
X638241Y827516D01*
X638132Y827731D01*
X638017Y827944D01*
X637897Y828154D01*
X637772Y828360D01*
X637642Y828564D01*
X637507Y828765D01*
X637367Y828962D01*
X637223Y829156D01*
X637074Y829346D01*
X636920Y829532D01*
X636762Y829715D01*
X636600Y829894D01*
X636433Y830069D01*
X636262Y830240D01*
X636087Y830407D01*
X635908Y830569D01*
X635725Y830727D01*
X635539Y830881D01*
X635349Y831030D01*
X635155Y831174D01*
X634958Y831314D01*
X634757Y831449D01*
X634553Y831579D01*
X634347Y831704D01*
X634137Y831824D01*
X633924Y831939D01*
X633709Y832048D01*
X633491Y832153D01*
X633271Y832252D01*
X633048Y832346D01*
X632823Y832434D01*
X632596Y832517D01*
X632367Y832595D01*
X632136Y832666D01*
X631904Y832733D01*
X631670Y832793D01*
X631435Y832848D01*
X631198Y832898D01*
X630961Y832941D01*
X630722Y832979D01*
X630482Y833011D01*
X630242Y833037D01*
X630001Y833058D01*
X629760Y833072D01*
X629519Y833081D01*
X629277Y833084D01*
X559277Y833084D01*
X559035Y833081D01*
X558794Y833072D01*
X558553Y833058D01*
X558312Y833037D01*
X558072Y833011D01*
X557832Y832979D01*
X557593Y832941D01*
X557356Y832898D01*
X557119Y832848D01*
X556884Y832793D01*
X556650Y832733D01*
X556418Y832666D01*
X556187Y832595D01*
X555958Y832517D01*
X555731Y832434D01*
X555506Y832346D01*
X555283Y832252D01*
X555063Y832153D01*
X554845Y832048D01*
X554630Y831939D01*
X554417Y831824D01*
X554207Y831704D01*
X554001Y831579D01*
X553797Y831449D01*
X553596Y831314D01*
X553399Y831174D01*
X553205Y831030D01*
X553015Y830881D01*
X552829Y830727D01*
X552646Y830569D01*
X552467Y830407D01*
X552292Y830240D01*
X552121Y830069D01*
X551954Y829894D01*
X551792Y829715D01*
X551634Y829532D01*
X551480Y829346D01*
X551331Y829156D01*
X551187Y828962D01*
X551047Y828765D01*
X550912Y828564D01*
X550782Y828360D01*
X550657Y828154D01*
X550537Y827944D01*
X550422Y827731D01*
X550313Y827516D01*
X550208Y827298D01*
X550109Y827078D01*
X550015Y826855D01*
X549927Y826630D01*
X549844Y826403D01*
X549766Y826174D01*
X549695Y825943D01*
X549628Y825711D01*
X549568Y825477D01*
X549513Y825242D01*
X549463Y825005D01*
X549420Y824768D01*
X549382Y824529D01*
X549350Y824289D01*
X549324Y824049D01*
X549303Y823808D01*
X549289Y823567D01*
X549280Y823326D01*
X549277Y823084D01*
X549277Y680544D02*
X579357Y680544D01*
X579357Y693084D01*
X639277Y693084D01*
X639277Y799764D02*
X639277Y823084D01*
X639277Y767204D02*
X639277Y736264D01*
X639277Y703704D02*
X639277Y693084D01*
X549277Y799924D02*
X549277Y823084D01*
X549277Y767204D02*
X549277Y736424D01*
X549277Y703704D02*
X549277Y680544D01*
D646*
X623106Y782581D02*
X631410Y782581D01*
X627258Y786733D02*
X627258Y778429D01*
D643*
X557780Y776087D02*
X556552Y774858D01*
X556552Y772401D01*
X557780Y771172D01*
X562695Y771172D01*
X563924Y772401D01*
X563924Y774858D01*
X562695Y776087D01*
X560238Y776087D01*
X560238Y773630D01*
X563924Y778656D02*
X556552Y778656D01*
X563924Y783571D01*
X556552Y783571D01*
X556552Y786141D02*
X563924Y786141D01*
X563924Y789827D01*
X562695Y791055D01*
X557780Y791055D01*
X556552Y789827D01*
X556552Y786141D01*
D647*
X587462Y146624D02*
X604962Y146624D01*
X604962Y162606D02*
X587462Y162606D01*
D12*
X549626Y162765D02*
X549626Y151071D01*
X549626Y162765D02*
X557422Y162765D01*
X553524Y156918D02*
X549626Y156918D01*
X561320Y151071D02*
X561320Y162765D01*
X567167Y162765D01*
X569116Y160816D01*
X569116Y158867D01*
X567167Y156918D01*
X569116Y154969D01*
X569116Y153020D01*
X567167Y151071D01*
X561320Y151071D01*
X561320Y156918D02*
X567167Y156918D01*
X573014Y158867D02*
X576912Y162765D01*
X576912Y151071D01*
X573014Y151071D02*
X580810Y151071D01*
D647*
X361757Y438719D02*
X344257Y438719D01*
X344257Y454701D02*
X361757Y454701D01*
D12*
X336759Y436844D02*
X336759Y425150D01*
X336759Y436844D02*
X344554Y436844D01*
X340656Y430997D02*
X336759Y430997D01*
X348452Y425150D02*
X348452Y436844D01*
X354299Y436844D01*
X356248Y434895D01*
X356248Y432946D01*
X354299Y430997D01*
X356248Y429048D01*
X356248Y427099D01*
X354299Y425150D01*
X348452Y425150D01*
X348452Y430997D02*
X354299Y430997D01*
X360146Y425150D02*
X367942Y425150D01*
X360146Y425150D02*
X367942Y432946D01*
X367942Y434895D01*
X365993Y436844D01*
X362095Y436844D01*
X360146Y434895D01*
X276309Y249555D02*
X264615Y249555D01*
X264615Y255402D01*
X266564Y257351D01*
X270462Y257351D01*
X272411Y255402D01*
X272411Y249555D01*
X272411Y253453D02*
X276309Y257351D01*
X276309Y267096D02*
X264615Y267096D01*
X270462Y261249D01*
X270462Y269045D01*
X231977Y275873D02*
X230028Y277822D01*
X226130Y277822D01*
X224181Y275873D01*
X224181Y268077D01*
X226130Y266128D01*
X230028Y266128D01*
X231977Y268077D01*
X235875Y266128D02*
X243671Y266128D01*
X235875Y266128D02*
X243671Y273924D01*
X243671Y275873D01*
X241722Y277822D01*
X237824Y277822D01*
X235875Y275873D01*
D648*
X712984Y525050D02*
X712986Y525113D01*
X712992Y525175D01*
X713002Y525237D01*
X713015Y525299D01*
X713033Y525359D01*
X713054Y525418D01*
X713079Y525476D01*
X713108Y525532D01*
X713140Y525586D01*
X713175Y525638D01*
X713213Y525687D01*
X713255Y525735D01*
X713299Y525779D01*
X713347Y525821D01*
X713396Y525859D01*
X713448Y525894D01*
X713502Y525926D01*
X713558Y525955D01*
X713616Y525980D01*
X713675Y526001D01*
X713735Y526019D01*
X713797Y526032D01*
X713859Y526042D01*
X713921Y526048D01*
X713984Y526050D01*
X714047Y526048D01*
X714109Y526042D01*
X714171Y526032D01*
X714233Y526019D01*
X714293Y526001D01*
X714352Y525980D01*
X714410Y525955D01*
X714466Y525926D01*
X714520Y525894D01*
X714572Y525859D01*
X714621Y525821D01*
X714669Y525779D01*
X714713Y525735D01*
X714755Y525687D01*
X714793Y525638D01*
X714828Y525586D01*
X714860Y525532D01*
X714889Y525476D01*
X714914Y525418D01*
X714935Y525359D01*
X714953Y525299D01*
X714966Y525237D01*
X714976Y525175D01*
X714982Y525113D01*
X714984Y525050D01*
X714982Y524987D01*
X714976Y524925D01*
X714966Y524863D01*
X714953Y524801D01*
X714935Y524741D01*
X714914Y524682D01*
X714889Y524624D01*
X714860Y524568D01*
X714828Y524514D01*
X714793Y524462D01*
X714755Y524413D01*
X714713Y524365D01*
X714669Y524321D01*
X714621Y524279D01*
X714572Y524241D01*
X714520Y524206D01*
X714466Y524174D01*
X714410Y524145D01*
X714352Y524120D01*
X714293Y524099D01*
X714233Y524081D01*
X714171Y524068D01*
X714109Y524058D01*
X714047Y524052D01*
X713984Y524050D01*
X713921Y524052D01*
X713859Y524058D01*
X713797Y524068D01*
X713735Y524081D01*
X713675Y524099D01*
X713616Y524120D01*
X713558Y524145D01*
X713502Y524174D01*
X713448Y524206D01*
X713396Y524241D01*
X713347Y524279D01*
X713299Y524321D01*
X713255Y524365D01*
X713213Y524413D01*
X713175Y524462D01*
X713140Y524514D01*
X713108Y524568D01*
X713079Y524624D01*
X713054Y524682D01*
X713033Y524741D01*
X713015Y524801D01*
X713002Y524863D01*
X712992Y524925D01*
X712986Y524987D01*
X712984Y525050D01*
D640*
X721604Y507280D02*
X789104Y507280D01*
X789104Y327280D01*
X721604Y327280D01*
X541604Y507280D02*
X534104Y507280D01*
X534104Y482280D01*
X534104Y352280D02*
X534104Y327280D01*
X541604Y327280D01*
X726104Y327680D02*
X726104Y506880D01*
D12*
X535379Y523253D02*
X535379Y533027D01*
X535379Y523253D02*
X537334Y521299D01*
X541243Y521299D01*
X543198Y523253D01*
X543198Y533027D01*
X547105Y529117D02*
X551014Y533027D01*
X551014Y521299D01*
X547105Y521299D02*
X554924Y521299D01*
D642*
X639915Y216591D02*
X633565Y210241D01*
X627215Y216591D01*
X614515Y216591D02*
X608165Y210241D01*
X601815Y216591D01*
X589115Y216591D02*
X582765Y210241D01*
X639915Y165791D02*
X652615Y165791D01*
X639915Y165791D02*
X633565Y172141D01*
X627215Y165791D01*
X614515Y165791D01*
X608165Y172141D01*
X601815Y165791D01*
X589115Y165791D01*
X582765Y172141D01*
X633565Y172141D02*
X633565Y210241D01*
X608165Y210241D02*
X608165Y172141D01*
X601815Y216591D02*
X589115Y216591D01*
X614515Y216591D02*
X627215Y216591D01*
X639915Y216591D02*
X652615Y216591D01*
X652615Y219941D02*
X639915Y219941D01*
X582765Y210241D02*
X576415Y216591D01*
X563715Y216591D02*
X557365Y210241D01*
X551015Y216591D01*
X538315Y216591D02*
X531965Y210241D01*
X525615Y216591D01*
X512915Y216591D02*
X506565Y210241D01*
X582765Y210241D02*
X582765Y172141D01*
X576415Y165791D01*
X563715Y165791D01*
X557365Y172141D01*
X551015Y165791D01*
X538315Y165791D01*
X531965Y172141D01*
X525615Y165791D01*
X512915Y165791D01*
X506565Y172141D01*
X557365Y172141D02*
X557365Y210241D01*
X531965Y210241D02*
X531965Y172141D01*
X525615Y216591D02*
X512915Y216591D01*
X538315Y216591D02*
X551015Y216591D01*
X563715Y216591D02*
X576415Y216591D01*
X506565Y210241D02*
X500215Y216591D01*
X487515Y216591D02*
X481165Y210241D01*
X474815Y216591D01*
X462115Y216591D02*
X455765Y210241D01*
X449415Y216591D01*
X436715Y216591D02*
X430365Y210241D01*
X506565Y210241D02*
X506565Y172141D01*
X500215Y165791D01*
X487515Y165791D01*
X481165Y172141D01*
X474815Y165791D01*
X462115Y165791D01*
X455765Y172141D01*
X449415Y165791D01*
X436715Y165791D01*
X430365Y172141D01*
X481165Y172141D02*
X481165Y210241D01*
X455765Y210241D02*
X455765Y172141D01*
X449415Y216591D02*
X436715Y216591D01*
X462115Y216591D02*
X474815Y216591D01*
X487515Y216591D02*
X500215Y216591D01*
X430365Y210241D02*
X424015Y216591D01*
X411315Y216591D02*
X404965Y210241D01*
X398615Y216591D01*
X385915Y216591D02*
X379565Y210241D01*
X373215Y216591D01*
X360515Y216591D02*
X354165Y210241D01*
X430365Y210241D02*
X430365Y172141D01*
X424015Y165791D01*
X411315Y165791D01*
X404965Y172141D01*
X398615Y165791D01*
X385915Y165791D01*
X379565Y172141D01*
X373215Y165791D01*
X360515Y165791D01*
X354165Y172141D01*
X404965Y172141D02*
X404965Y210241D01*
X379565Y210241D02*
X379565Y172141D01*
X354165Y172141D02*
X354165Y210241D01*
X360515Y216591D02*
X373215Y216591D01*
X385915Y216591D02*
X398615Y216591D01*
X411315Y216591D02*
X424015Y216591D01*
X652615Y216591D02*
X658965Y210241D01*
X658965Y172141D01*
X652615Y165791D01*
D640*
X656839Y216085D02*
X656034Y216890D01*
X656839Y216085D02*
X657644Y216085D01*
X658449Y216890D01*
X658449Y220916D01*
X657644Y220916D02*
X659254Y220916D01*
X661647Y219305D02*
X663258Y220916D01*
X663258Y216085D01*
X664868Y216085D02*
X661647Y216085D01*
D643*
X268600Y376028D02*
X266862Y376028D01*
X265124Y374290D01*
X265124Y372553D01*
X268600Y369077D01*
X270337Y369077D01*
X272075Y370815D01*
X272075Y372553D01*
X271285Y376976D02*
X271285Y380451D01*
X276498Y375238D01*
X274761Y373501D02*
X278236Y376976D01*
D12*
X533164Y244751D02*
X533164Y240853D01*
X533164Y242802D02*
X521470Y242802D01*
X521470Y240853D02*
X521470Y244751D01*
X521470Y254496D02*
X523419Y256445D01*
X521470Y254496D02*
X521470Y250598D01*
X523419Y248649D01*
X531215Y248649D01*
X533164Y250598D01*
X533164Y254496D01*
X531215Y256445D01*
X525368Y260343D02*
X521470Y264241D01*
X533164Y264241D01*
X533164Y260343D02*
X533164Y268139D01*
D10*
X440614Y623769D02*
X440616Y623869D01*
X440622Y623968D01*
X440632Y624068D01*
X440645Y624166D01*
X440663Y624265D01*
X440684Y624362D01*
X440709Y624458D01*
X440738Y624554D01*
X440771Y624648D01*
X440807Y624741D01*
X440847Y624832D01*
X440891Y624922D01*
X440938Y625010D01*
X440988Y625096D01*
X441042Y625180D01*
X441099Y625262D01*
X441159Y625341D01*
X441223Y625419D01*
X441289Y625493D01*
X441358Y625565D01*
X441430Y625634D01*
X441504Y625700D01*
X441582Y625764D01*
X441661Y625824D01*
X441743Y625881D01*
X441827Y625935D01*
X441913Y625985D01*
X442001Y626032D01*
X442091Y626076D01*
X442182Y626116D01*
X442275Y626152D01*
X442369Y626185D01*
X442465Y626214D01*
X442561Y626239D01*
X442658Y626260D01*
X442757Y626278D01*
X442855Y626291D01*
X442955Y626301D01*
X443054Y626307D01*
X443154Y626309D01*
X440614Y605989D02*
X440616Y605889D01*
X440622Y605790D01*
X440632Y605690D01*
X440645Y605592D01*
X440663Y605493D01*
X440684Y605396D01*
X440709Y605300D01*
X440738Y605204D01*
X440771Y605110D01*
X440807Y605017D01*
X440847Y604926D01*
X440891Y604836D01*
X440938Y604748D01*
X440988Y604662D01*
X441042Y604578D01*
X441099Y604496D01*
X441159Y604417D01*
X441223Y604339D01*
X441289Y604265D01*
X441358Y604193D01*
X441430Y604124D01*
X441504Y604058D01*
X441582Y603994D01*
X441661Y603934D01*
X441743Y603877D01*
X441827Y603823D01*
X441913Y603773D01*
X442001Y603726D01*
X442091Y603682D01*
X442182Y603642D01*
X442275Y603606D01*
X442369Y603573D01*
X442465Y603544D01*
X442561Y603519D01*
X442658Y603498D01*
X442757Y603480D01*
X442855Y603467D01*
X442955Y603457D01*
X443054Y603451D01*
X443154Y603449D01*
X501574Y603449D02*
X501674Y603451D01*
X501773Y603457D01*
X501873Y603467D01*
X501971Y603480D01*
X502070Y603498D01*
X502167Y603519D01*
X502263Y603544D01*
X502359Y603573D01*
X502453Y603606D01*
X502546Y603642D01*
X502637Y603682D01*
X502727Y603726D01*
X502815Y603773D01*
X502901Y603823D01*
X502985Y603877D01*
X503067Y603934D01*
X503146Y603994D01*
X503224Y604058D01*
X503298Y604124D01*
X503370Y604193D01*
X503439Y604265D01*
X503505Y604339D01*
X503569Y604417D01*
X503629Y604496D01*
X503686Y604578D01*
X503740Y604662D01*
X503790Y604748D01*
X503837Y604836D01*
X503881Y604926D01*
X503921Y605017D01*
X503957Y605110D01*
X503990Y605204D01*
X504019Y605300D01*
X504044Y605396D01*
X504065Y605493D01*
X504083Y605592D01*
X504096Y605690D01*
X504106Y605790D01*
X504112Y605889D01*
X504114Y605989D01*
X504114Y623769D02*
X504112Y623869D01*
X504106Y623968D01*
X504096Y624068D01*
X504083Y624166D01*
X504065Y624265D01*
X504044Y624362D01*
X504019Y624458D01*
X503990Y624554D01*
X503957Y624648D01*
X503921Y624741D01*
X503881Y624832D01*
X503837Y624922D01*
X503790Y625010D01*
X503740Y625096D01*
X503686Y625180D01*
X503629Y625262D01*
X503569Y625341D01*
X503505Y625419D01*
X503439Y625493D01*
X503370Y625565D01*
X503298Y625634D01*
X503224Y625700D01*
X503146Y625764D01*
X503067Y625824D01*
X502985Y625881D01*
X502901Y625935D01*
X502815Y625985D01*
X502727Y626032D01*
X502637Y626076D01*
X502546Y626116D01*
X502453Y626152D01*
X502359Y626185D01*
X502263Y626214D01*
X502167Y626239D01*
X502070Y626260D01*
X501971Y626278D01*
X501873Y626291D01*
X501773Y626301D01*
X501674Y626307D01*
X501574Y626309D01*
X440614Y623769D02*
X440614Y605989D01*
X443154Y626309D02*
X446964Y626309D01*
X448234Y625039D01*
X446964Y603449D02*
X443154Y603449D01*
X446964Y603449D02*
X448234Y604719D01*
X496494Y625039D02*
X497764Y626309D01*
X496494Y625039D02*
X448234Y625039D01*
X496494Y604719D02*
X497764Y603449D01*
X496494Y604719D02*
X448234Y604719D01*
X497764Y626309D02*
X501574Y626309D01*
X501574Y603449D02*
X497764Y603449D01*
X504114Y605989D02*
X504114Y623769D01*
D649*
X508432Y614879D03*
X436296Y614879D03*
D640*
X491282Y631339D02*
X491282Y642778D01*
X497002Y642778D01*
X498908Y640872D01*
X498908Y637058D01*
X497002Y635152D01*
X491282Y635152D01*
X495095Y635152D02*
X498908Y631339D01*
X502976Y642778D02*
X510602Y642778D01*
X502976Y642778D02*
X502976Y637058D01*
X506789Y638965D01*
X508696Y638965D01*
X510602Y637058D01*
X510602Y633245D01*
X508696Y631339D01*
X504882Y631339D01*
X502976Y633245D01*
D10*
X316896Y626309D02*
X316796Y626307D01*
X316697Y626301D01*
X316597Y626291D01*
X316499Y626278D01*
X316400Y626260D01*
X316303Y626239D01*
X316207Y626214D01*
X316111Y626185D01*
X316017Y626152D01*
X315924Y626116D01*
X315833Y626076D01*
X315743Y626032D01*
X315655Y625985D01*
X315569Y625935D01*
X315485Y625881D01*
X315403Y625824D01*
X315324Y625764D01*
X315246Y625700D01*
X315172Y625634D01*
X315100Y625565D01*
X315031Y625493D01*
X314965Y625419D01*
X314901Y625341D01*
X314841Y625262D01*
X314784Y625180D01*
X314730Y625096D01*
X314680Y625010D01*
X314633Y624922D01*
X314589Y624832D01*
X314549Y624741D01*
X314513Y624648D01*
X314480Y624554D01*
X314451Y624458D01*
X314426Y624362D01*
X314405Y624265D01*
X314387Y624166D01*
X314374Y624068D01*
X314364Y623968D01*
X314358Y623869D01*
X314356Y623769D01*
X314356Y605989D02*
X314358Y605889D01*
X314364Y605790D01*
X314374Y605690D01*
X314387Y605592D01*
X314405Y605493D01*
X314426Y605396D01*
X314451Y605300D01*
X314480Y605204D01*
X314513Y605110D01*
X314549Y605017D01*
X314589Y604926D01*
X314633Y604836D01*
X314680Y604748D01*
X314730Y604662D01*
X314784Y604578D01*
X314841Y604496D01*
X314901Y604417D01*
X314965Y604339D01*
X315031Y604265D01*
X315100Y604193D01*
X315172Y604124D01*
X315246Y604058D01*
X315324Y603994D01*
X315403Y603934D01*
X315485Y603877D01*
X315569Y603823D01*
X315655Y603773D01*
X315743Y603726D01*
X315833Y603682D01*
X315924Y603642D01*
X316017Y603606D01*
X316111Y603573D01*
X316207Y603544D01*
X316303Y603519D01*
X316400Y603498D01*
X316499Y603480D01*
X316597Y603467D01*
X316697Y603457D01*
X316796Y603451D01*
X316896Y603449D01*
X375316Y603449D02*
X375416Y603451D01*
X375515Y603457D01*
X375615Y603467D01*
X375713Y603480D01*
X375812Y603498D01*
X375909Y603519D01*
X376005Y603544D01*
X376101Y603573D01*
X376195Y603606D01*
X376288Y603642D01*
X376379Y603682D01*
X376469Y603726D01*
X376557Y603773D01*
X376643Y603823D01*
X376727Y603877D01*
X376809Y603934D01*
X376888Y603994D01*
X376966Y604058D01*
X377040Y604124D01*
X377112Y604193D01*
X377181Y604265D01*
X377247Y604339D01*
X377311Y604417D01*
X377371Y604496D01*
X377428Y604578D01*
X377482Y604662D01*
X377532Y604748D01*
X377579Y604836D01*
X377623Y604926D01*
X377663Y605017D01*
X377699Y605110D01*
X377732Y605204D01*
X377761Y605300D01*
X377786Y605396D01*
X377807Y605493D01*
X377825Y605592D01*
X377838Y605690D01*
X377848Y605790D01*
X377854Y605889D01*
X377856Y605989D01*
X377856Y623769D02*
X377854Y623869D01*
X377848Y623968D01*
X377838Y624068D01*
X377825Y624166D01*
X377807Y624265D01*
X377786Y624362D01*
X377761Y624458D01*
X377732Y624554D01*
X377699Y624648D01*
X377663Y624741D01*
X377623Y624832D01*
X377579Y624922D01*
X377532Y625010D01*
X377482Y625096D01*
X377428Y625180D01*
X377371Y625262D01*
X377311Y625341D01*
X377247Y625419D01*
X377181Y625493D01*
X377112Y625565D01*
X377040Y625634D01*
X376966Y625700D01*
X376888Y625764D01*
X376809Y625824D01*
X376727Y625881D01*
X376643Y625935D01*
X376557Y625985D01*
X376469Y626032D01*
X376379Y626076D01*
X376288Y626116D01*
X376195Y626152D01*
X376101Y626185D01*
X376005Y626214D01*
X375909Y626239D01*
X375812Y626260D01*
X375713Y626278D01*
X375615Y626291D01*
X375515Y626301D01*
X375416Y626307D01*
X375316Y626309D01*
X314356Y623769D02*
X314356Y605989D01*
X316896Y626309D02*
X320706Y626309D01*
X321976Y625039D01*
X320706Y603449D02*
X316896Y603449D01*
X320706Y603449D02*
X321976Y604719D01*
X370236Y625039D02*
X371506Y626309D01*
X370236Y625039D02*
X321976Y625039D01*
X370236Y604719D02*
X371506Y603449D01*
X370236Y604719D02*
X321976Y604719D01*
X371506Y626309D02*
X375316Y626309D01*
X375316Y603449D02*
X371506Y603449D01*
X377856Y605989D02*
X377856Y623769D01*
D649*
X382174Y614879D03*
X310038Y614879D03*
D640*
X362707Y629947D02*
X362707Y641386D01*
X368427Y641386D01*
X370333Y639480D01*
X370333Y635667D01*
X368427Y633760D01*
X362707Y633760D01*
X366520Y633760D02*
X370333Y629947D01*
X378214Y639480D02*
X382027Y641386D01*
X378214Y639480D02*
X374401Y635667D01*
X374401Y631853D01*
X376308Y629947D01*
X380121Y629947D01*
X382027Y631853D01*
X382027Y633760D01*
X380121Y635667D01*
X374401Y635667D01*
D10*
X188935Y626309D02*
X188835Y626307D01*
X188736Y626301D01*
X188636Y626291D01*
X188538Y626278D01*
X188439Y626260D01*
X188342Y626239D01*
X188246Y626214D01*
X188150Y626185D01*
X188056Y626152D01*
X187963Y626116D01*
X187872Y626076D01*
X187782Y626032D01*
X187694Y625985D01*
X187608Y625935D01*
X187524Y625881D01*
X187442Y625824D01*
X187363Y625764D01*
X187285Y625700D01*
X187211Y625634D01*
X187139Y625565D01*
X187070Y625493D01*
X187004Y625419D01*
X186940Y625341D01*
X186880Y625262D01*
X186823Y625180D01*
X186769Y625096D01*
X186719Y625010D01*
X186672Y624922D01*
X186628Y624832D01*
X186588Y624741D01*
X186552Y624648D01*
X186519Y624554D01*
X186490Y624458D01*
X186465Y624362D01*
X186444Y624265D01*
X186426Y624166D01*
X186413Y624068D01*
X186403Y623968D01*
X186397Y623869D01*
X186395Y623769D01*
X186395Y605989D02*
X186397Y605889D01*
X186403Y605790D01*
X186413Y605690D01*
X186426Y605592D01*
X186444Y605493D01*
X186465Y605396D01*
X186490Y605300D01*
X186519Y605204D01*
X186552Y605110D01*
X186588Y605017D01*
X186628Y604926D01*
X186672Y604836D01*
X186719Y604748D01*
X186769Y604662D01*
X186823Y604578D01*
X186880Y604496D01*
X186940Y604417D01*
X187004Y604339D01*
X187070Y604265D01*
X187139Y604193D01*
X187211Y604124D01*
X187285Y604058D01*
X187363Y603994D01*
X187442Y603934D01*
X187524Y603877D01*
X187608Y603823D01*
X187694Y603773D01*
X187782Y603726D01*
X187872Y603682D01*
X187963Y603642D01*
X188056Y603606D01*
X188150Y603573D01*
X188246Y603544D01*
X188342Y603519D01*
X188439Y603498D01*
X188538Y603480D01*
X188636Y603467D01*
X188736Y603457D01*
X188835Y603451D01*
X188935Y603449D01*
X247355Y603449D02*
X247455Y603451D01*
X247554Y603457D01*
X247654Y603467D01*
X247752Y603480D01*
X247851Y603498D01*
X247948Y603519D01*
X248044Y603544D01*
X248140Y603573D01*
X248234Y603606D01*
X248327Y603642D01*
X248418Y603682D01*
X248508Y603726D01*
X248596Y603773D01*
X248682Y603823D01*
X248766Y603877D01*
X248848Y603934D01*
X248927Y603994D01*
X249005Y604058D01*
X249079Y604124D01*
X249151Y604193D01*
X249220Y604265D01*
X249286Y604339D01*
X249350Y604417D01*
X249410Y604496D01*
X249467Y604578D01*
X249521Y604662D01*
X249571Y604748D01*
X249618Y604836D01*
X249662Y604926D01*
X249702Y605017D01*
X249738Y605110D01*
X249771Y605204D01*
X249800Y605300D01*
X249825Y605396D01*
X249846Y605493D01*
X249864Y605592D01*
X249877Y605690D01*
X249887Y605790D01*
X249893Y605889D01*
X249895Y605989D01*
X249895Y623769D02*
X249893Y623869D01*
X249887Y623968D01*
X249877Y624068D01*
X249864Y624166D01*
X249846Y624265D01*
X249825Y624362D01*
X249800Y624458D01*
X249771Y624554D01*
X249738Y624648D01*
X249702Y624741D01*
X249662Y624832D01*
X249618Y624922D01*
X249571Y625010D01*
X249521Y625096D01*
X249467Y625180D01*
X249410Y625262D01*
X249350Y625341D01*
X249286Y625419D01*
X249220Y625493D01*
X249151Y625565D01*
X249079Y625634D01*
X249005Y625700D01*
X248927Y625764D01*
X248848Y625824D01*
X248766Y625881D01*
X248682Y625935D01*
X248596Y625985D01*
X248508Y626032D01*
X248418Y626076D01*
X248327Y626116D01*
X248234Y626152D01*
X248140Y626185D01*
X248044Y626214D01*
X247948Y626239D01*
X247851Y626260D01*
X247752Y626278D01*
X247654Y626291D01*
X247554Y626301D01*
X247455Y626307D01*
X247355Y626309D01*
X186395Y623769D02*
X186395Y605989D01*
X188935Y626309D02*
X192745Y626309D01*
X194015Y625039D01*
X192745Y603449D02*
X188935Y603449D01*
X192745Y603449D02*
X194015Y604719D01*
X242275Y625039D02*
X243545Y626309D01*
X242275Y625039D02*
X194015Y625039D01*
X242275Y604719D02*
X243545Y603449D01*
X242275Y604719D02*
X194015Y604719D01*
X243545Y626309D02*
X247355Y626309D01*
X247355Y603449D02*
X243545Y603449D01*
X249895Y605989D02*
X249895Y623769D01*
D649*
X254213Y614879D03*
X182077Y614879D03*
D640*
X234747Y629947D02*
X234747Y641386D01*
X240467Y641386D01*
X242373Y639480D01*
X242373Y635667D01*
X240467Y633760D01*
X234747Y633760D01*
X238560Y633760D02*
X242373Y629947D01*
X246441Y641386D02*
X254067Y641386D01*
X254067Y639480D01*
X246441Y631853D01*
X246441Y629947D01*
D12*
X616050Y258098D02*
X614101Y256149D01*
X614101Y252251D01*
X616050Y250302D01*
X623846Y250302D01*
X625795Y252251D01*
X625795Y256149D01*
X623846Y258098D01*
X617999Y261996D02*
X614101Y265894D01*
X625795Y265894D01*
X625795Y261996D02*
X625795Y269792D01*
X623846Y273690D02*
X616050Y273690D01*
X614101Y275639D01*
X614101Y279537D01*
X616050Y281486D01*
X623846Y281486D01*
X625795Y279537D01*
X625795Y275639D01*
X623846Y273690D01*
X616050Y281486D01*
X626331Y249047D02*
X628280Y247098D01*
X626331Y249047D02*
X622433Y249047D01*
X620484Y247098D01*
X620484Y239302D01*
X622433Y237353D01*
X626331Y237353D01*
X628280Y239302D01*
X632178Y245149D02*
X636076Y249047D01*
X636076Y237353D01*
X632178Y237353D02*
X639974Y237353D01*
X643872Y245149D02*
X647770Y249047D01*
X647770Y237353D01*
X643872Y237353D02*
X651668Y237353D01*
X562388Y95587D02*
X560439Y93638D01*
X560439Y89740D01*
X562388Y87791D01*
X570184Y87791D01*
X572133Y89740D01*
X572133Y93638D01*
X570184Y95587D01*
X564337Y99485D02*
X560439Y103383D01*
X572133Y103383D01*
X572133Y99485D02*
X572133Y107281D01*
X572133Y111179D02*
X572133Y118974D01*
X572133Y111179D02*
X564337Y118974D01*
X562388Y118974D01*
X560439Y117025D01*
X560439Y113127D01*
X562388Y111179D01*
D643*
X348303Y506231D02*
X349659Y507586D01*
X348303Y506231D02*
X348303Y503519D01*
X349659Y502163D01*
X355082Y502163D01*
X356438Y503519D01*
X356438Y506231D01*
X355082Y507586D01*
X348303Y510349D02*
X348303Y515772D01*
X348303Y510349D02*
X352371Y510349D01*
X351015Y513060D01*
X351015Y514416D01*
X352371Y515772D01*
X355082Y515772D01*
X356438Y514416D01*
X356438Y511705D01*
X355082Y510349D01*
D10*
X89588Y576763D02*
X89588Y589463D01*
X95938Y595813D01*
X108638Y595813D01*
X114988Y589463D01*
X95938Y595813D02*
X89588Y602163D01*
X89588Y614863D01*
X95938Y621213D01*
X108638Y621213D01*
X114988Y614863D01*
X114988Y602163D01*
X108638Y595813D01*
X89588Y551363D02*
X95938Y545013D01*
X89588Y551363D02*
X89588Y564063D01*
X95938Y570413D01*
X108638Y570413D01*
X114988Y564063D01*
X114988Y551363D01*
X108638Y545013D01*
X95938Y570413D02*
X89588Y576763D01*
X108638Y570413D02*
X114988Y576763D01*
X114988Y589463D01*
X89588Y513263D02*
X89588Y500563D01*
X89588Y513263D02*
X95938Y519613D01*
X108638Y519613D01*
X114988Y513263D01*
X95938Y519613D02*
X89588Y525963D01*
X89588Y538663D01*
X95938Y545013D01*
X108638Y545013D01*
X114988Y538663D01*
X114988Y525963D01*
X108638Y519613D01*
X108638Y494213D02*
X95938Y494213D01*
X89588Y500563D01*
X108638Y494213D02*
X114988Y500563D01*
X114988Y513263D01*
X89588Y627563D02*
X89588Y640263D01*
X95938Y646613D01*
X108638Y646613D01*
X114988Y640263D01*
X95938Y621213D02*
X89588Y627563D01*
X108638Y621213D02*
X114988Y627563D01*
X114988Y640263D01*
D12*
X126739Y610428D02*
X136484Y610428D01*
X126739Y610428D02*
X124790Y608479D01*
X124790Y604581D01*
X126739Y602632D01*
X136484Y602632D01*
X132586Y598734D02*
X124790Y598734D01*
X132586Y598734D02*
X136484Y594836D01*
X132586Y590938D01*
X124790Y590938D01*
X130637Y590938D02*
X130637Y598734D01*
X124790Y587040D02*
X136484Y587040D01*
X136484Y581193D01*
X134535Y579244D01*
X130637Y579244D01*
X128688Y581193D01*
X128688Y587040D01*
X128688Y583142D02*
X124790Y579244D01*
X124790Y571448D02*
X136484Y571448D01*
X136484Y575346D02*
X136484Y567550D01*
X122841Y563652D02*
X122841Y555856D01*
X134535Y544162D02*
X136484Y546111D01*
X136484Y550009D01*
X134535Y551958D01*
X132586Y551958D01*
X130637Y550009D01*
X130637Y546111D01*
X128688Y544162D01*
X126739Y544162D01*
X124790Y546111D01*
X124790Y550009D01*
X126739Y551958D01*
X124790Y536366D02*
X136484Y536366D01*
X136484Y540264D02*
X136484Y532468D01*
X136484Y528570D02*
X124790Y528570D01*
X132586Y524672D02*
X136484Y528570D01*
X132586Y524672D02*
X136484Y520774D01*
X124790Y520774D01*
D650*
X725089Y628375D02*
X745089Y628375D01*
X703589Y606875D02*
X703589Y586875D01*
X725089Y565375D02*
X745089Y565375D01*
X766589Y586875D02*
X766589Y606875D01*
D12*
X750261Y662452D02*
X748312Y664401D01*
X744414Y664401D01*
X742465Y662452D01*
X742465Y660503D01*
X744414Y658554D01*
X748312Y658554D01*
X750261Y656605D01*
X750261Y654656D01*
X748312Y652707D01*
X744414Y652707D01*
X742465Y654656D01*
X754159Y652707D02*
X754159Y664401D01*
X758057Y660503D01*
X761955Y664401D01*
X761955Y652707D01*
X765853Y652707D02*
X765853Y660503D01*
X769751Y664401D01*
X773649Y660503D01*
X773649Y652707D01*
X773649Y658554D02*
X765853Y658554D01*
X622243Y571577D02*
X620294Y569628D01*
X620294Y565730D01*
X622243Y563781D01*
X630039Y563781D01*
X631988Y565730D01*
X631988Y569628D01*
X630039Y571577D01*
X624192Y575475D02*
X620294Y579373D01*
X631988Y579373D01*
X631988Y575475D02*
X631988Y583271D01*
X622243Y587169D02*
X620294Y589118D01*
X620294Y593016D01*
X622243Y594965D01*
X624192Y594965D01*
X626141Y593016D01*
X626141Y591067D01*
X626141Y593016D02*
X628090Y594965D01*
X630039Y594965D01*
X631988Y593016D01*
X631988Y589118D01*
X630039Y587169D01*
X589421Y551008D02*
X587472Y549059D01*
X587472Y545161D01*
X589421Y543212D01*
X597217Y543212D01*
X599166Y545161D01*
X599166Y549059D01*
X597217Y551008D01*
X591370Y554906D02*
X587472Y558804D01*
X599166Y558804D01*
X599166Y554906D02*
X599166Y562702D01*
X587472Y566600D02*
X587472Y574396D01*
X589421Y574396D01*
X597217Y566600D01*
X599166Y566600D01*
D640*
X360566Y136512D02*
X361371Y135707D01*
X362176Y135707D01*
X362981Y136512D01*
X362981Y140537D01*
X362176Y140537D02*
X363786Y140537D01*
X366179Y140537D02*
X366179Y135707D01*
X366179Y140537D02*
X368594Y140537D01*
X369399Y139732D01*
X369399Y138122D01*
X368594Y137317D01*
X366179Y137317D01*
X373402Y139732D02*
X375012Y140537D01*
X373402Y139732D02*
X371792Y138122D01*
X371792Y136512D01*
X372597Y135707D01*
X374207Y135707D01*
X375012Y136512D01*
X375012Y137317D01*
X374207Y138122D01*
X371792Y138122D01*
D12*
X431069Y252844D02*
X431069Y264538D01*
X436915Y264538D01*
X438864Y262589D01*
X438864Y258691D01*
X436915Y256742D01*
X431069Y256742D01*
X434966Y256742D02*
X438864Y252844D01*
X442762Y262589D02*
X444711Y264538D01*
X448609Y264538D01*
X450558Y262589D01*
X450558Y260640D01*
X448609Y258691D01*
X450558Y256742D01*
X450558Y254793D01*
X448609Y252844D01*
X444711Y252844D01*
X442762Y254793D01*
X442762Y256742D01*
X444711Y258691D01*
X442762Y260640D01*
X442762Y262589D01*
X444711Y258691D02*
X448609Y258691D01*
D642*
X238765Y293616D02*
X226065Y293616D01*
X219715Y299966D01*
X219715Y312666D02*
X226065Y319016D01*
X219715Y299966D02*
X213365Y293616D01*
X200665Y293616D01*
X194315Y299966D01*
X194315Y312666D02*
X200665Y319016D01*
X213365Y319016D01*
X219715Y312666D01*
X245115Y312666D02*
X245115Y299966D01*
X238765Y293616D01*
X245115Y312666D02*
X238765Y319016D01*
X226065Y319016D01*
X194315Y312666D02*
X194315Y299966D01*
D640*
X188042Y287403D02*
X188042Y275963D01*
X188042Y287403D02*
X193762Y287403D01*
X195669Y285497D01*
X195669Y283590D01*
X193762Y281683D01*
X195669Y279777D01*
X195669Y277870D01*
X193762Y275963D01*
X188042Y275963D01*
X188042Y281683D02*
X193762Y281683D01*
X201643Y287403D02*
X205456Y287403D01*
X201643Y287403D02*
X199736Y285497D01*
X199736Y277870D01*
X201643Y275963D01*
X205456Y275963D01*
X207363Y277870D01*
X207363Y285497D01*
X205456Y287403D01*
X213337Y287403D02*
X217150Y287403D01*
X213337Y287403D02*
X211430Y285497D01*
X211430Y277870D01*
X213337Y275963D01*
X217150Y275963D01*
X219057Y277870D01*
X219057Y285497D01*
X217150Y287403D01*
X226937Y287403D02*
X226937Y275963D01*
X223124Y287403D02*
X230751Y287403D01*
X234818Y283590D02*
X238631Y287403D01*
X238631Y275963D01*
X234818Y275963D02*
X242444Y275963D01*
D12*
X236110Y367360D02*
X244379Y375629D01*
X248514Y371495D01*
X248514Y368739D01*
X245757Y365982D01*
X243001Y365982D01*
X238867Y370117D01*
X241623Y367360D02*
X241623Y361848D01*
X249892Y364604D02*
X255405Y364604D01*
X247136Y356335D01*
X249892Y353579D02*
X244379Y359092D01*
X254026Y352201D02*
X259539Y357713D01*
X262295Y357713D01*
X265052Y354957D01*
X265052Y352201D01*
X259539Y346688D01*
X256783Y346688D01*
X254026Y349445D01*
X254026Y352201D01*
X265052Y352201D01*
X647606Y573357D02*
X649555Y575306D01*
X647606Y573357D02*
X647606Y569459D01*
X649555Y567510D01*
X657351Y567510D01*
X659300Y569459D01*
X659300Y573357D01*
X657351Y575306D01*
X647606Y579204D02*
X647606Y587000D01*
X649555Y587000D01*
X657351Y579204D01*
X659300Y579204D01*
D650*
X501948Y383003D02*
X365948Y383003D01*
X501948Y383003D02*
X501948Y533083D01*
X365948Y533083D01*
X365948Y383003D01*
D12*
X383683Y493466D02*
X383683Y505160D01*
X377836Y499313D01*
X385632Y499313D01*
X389530Y505160D02*
X397326Y505160D01*
X397326Y503211D01*
X389530Y495415D01*
X389530Y493466D01*
X401224Y493466D02*
X409020Y493466D01*
X401224Y493466D02*
X409020Y501262D01*
X409020Y503211D01*
X407071Y505160D01*
X403173Y505160D01*
X401224Y503211D01*
X412918Y501262D02*
X416816Y505160D01*
X416816Y493466D01*
X412918Y493466D02*
X420714Y493466D01*
X424612Y495415D02*
X426561Y493466D01*
X430459Y493466D01*
X432408Y495415D01*
X432408Y503211D01*
X430459Y505160D01*
X426561Y505160D01*
X424612Y503211D01*
X424612Y501262D01*
X426561Y499313D01*
X432408Y499313D01*
X436306Y499313D02*
X444102Y499313D01*
X448000Y493466D02*
X455796Y493466D01*
X448000Y493466D02*
X455796Y501262D01*
X455796Y503211D01*
X453847Y505160D01*
X449949Y505160D01*
X448000Y503211D01*
X459694Y503211D02*
X459694Y495415D01*
X459694Y503211D02*
X461643Y505160D01*
X465541Y505160D01*
X467490Y503211D01*
X467490Y495415D01*
X465541Y493466D01*
X461643Y493466D01*
X459694Y495415D01*
X467490Y503211D01*
X471388Y503211D02*
X471388Y495415D01*
X471388Y503211D02*
X473337Y505160D01*
X477235Y505160D01*
X479184Y503211D01*
X479184Y495415D01*
X477235Y493466D01*
X473337Y493466D01*
X471388Y495415D01*
X479184Y503211D01*
X483082Y501262D02*
X486980Y505160D01*
X486980Y493466D01*
X483082Y493466D02*
X490878Y493466D01*
X391479Y486110D02*
X391479Y474416D01*
X395377Y482212D02*
X391479Y486110D01*
X395377Y482212D02*
X399275Y486110D01*
X399275Y474416D01*
X403173Y474416D02*
X407071Y474416D01*
X405122Y474416D02*
X405122Y486110D01*
X403173Y486110D02*
X407071Y486110D01*
X416816Y486110D02*
X418765Y484161D01*
X416816Y486110D02*
X412918Y486110D01*
X410969Y484161D01*
X410969Y476365D01*
X412918Y474416D01*
X416816Y474416D01*
X418765Y476365D01*
X422663Y474416D02*
X422663Y486110D01*
X428510Y486110D01*
X430459Y484161D01*
X430459Y480263D01*
X428510Y478314D01*
X422663Y478314D01*
X426561Y478314D02*
X430459Y474416D01*
X436306Y486110D02*
X440204Y486110D01*
X436306Y486110D02*
X434357Y484161D01*
X434357Y476365D01*
X436306Y474416D01*
X440204Y474416D01*
X442153Y476365D01*
X442153Y484161D01*
X440204Y486110D01*
X446051Y472467D02*
X453847Y472467D01*
X465541Y484161D02*
X463592Y486110D01*
X459694Y486110D01*
X457745Y484161D01*
X457745Y482212D01*
X459694Y480263D01*
X463592Y480263D01*
X465541Y478314D01*
X465541Y476365D01*
X463592Y474416D01*
X459694Y474416D01*
X457745Y476365D01*
X469439Y474416D02*
X469439Y486110D01*
X469439Y474416D02*
X475286Y474416D01*
X477235Y476365D01*
X477235Y484161D01*
X475286Y486110D01*
X469439Y486110D01*
D640*
X371472Y514834D02*
X371472Y337383D01*
X498472Y337383D01*
X498472Y514834D01*
D642*
X489274Y264611D02*
X476146Y264611D01*
X476146Y274699D01*
X476146Y296059D02*
X489274Y296059D01*
X476146Y296059D02*
X476146Y285971D01*
X489354Y284059D02*
X489354Y276471D01*
D10*
X471285Y262641D02*
X466879Y262641D01*
X465777Y263743D01*
X465777Y265946D01*
X466879Y267048D01*
X471285Y267048D01*
X472387Y265946D01*
X472387Y263743D01*
X471285Y262641D01*
X470183Y264844D02*
X472387Y267048D01*
X467980Y270125D02*
X465777Y272328D01*
X472387Y272328D01*
X472387Y270125D02*
X472387Y274532D01*
D642*
X476237Y230059D02*
X489365Y230059D01*
X476237Y230059D02*
X476237Y240147D01*
X476237Y261507D02*
X489365Y261507D01*
X476237Y261507D02*
X476237Y251419D01*
X489445Y249507D02*
X489445Y241919D01*
D10*
X471564Y227325D02*
X467158Y227325D01*
X466056Y228427D01*
X466056Y230630D01*
X467158Y231731D01*
X471564Y231731D01*
X472666Y230630D01*
X472666Y228427D01*
X471564Y227325D01*
X470463Y229528D02*
X472666Y231731D01*
X472666Y234809D02*
X472666Y239215D01*
X472666Y234809D02*
X468260Y239215D01*
X467158Y239215D01*
X466056Y238114D01*
X466056Y235911D01*
X467158Y234809D01*
D12*
X500136Y230175D02*
X500136Y241869D01*
X505983Y241869D01*
X507932Y239920D01*
X507932Y236022D01*
X505983Y234073D01*
X500136Y234073D01*
X504034Y234073D02*
X507932Y230175D01*
X511830Y232124D02*
X513779Y230175D01*
X517677Y230175D01*
X519626Y232124D01*
X519626Y239920D01*
X517677Y241869D01*
X513779Y241869D01*
X511830Y239920D01*
X511830Y237971D01*
X513779Y236022D01*
X519626Y236022D01*
X508455Y292329D02*
X508455Y304023D01*
X514302Y304023D01*
X516251Y302074D01*
X516251Y298176D01*
X514302Y296227D01*
X508455Y296227D01*
X512353Y296227D02*
X516251Y292329D01*
X520149Y300125D02*
X524047Y304023D01*
X524047Y292329D01*
X520149Y292329D02*
X527945Y292329D01*
X531843Y300125D02*
X535741Y304023D01*
X535741Y292329D01*
X531843Y292329D02*
X539639Y292329D01*
D10*
X681248Y532300D02*
X683788Y532300D01*
X681248Y532300D02*
X681248Y529760D01*
X696488Y529760D02*
X696488Y532300D01*
X693948Y532300D01*
X696488Y519600D02*
X696488Y517060D01*
X693948Y517060D01*
X683788Y517060D02*
X681248Y517060D01*
X681248Y519600D01*
X530443Y333939D02*
X527903Y333939D01*
X527903Y331399D01*
X543143Y331399D02*
X543143Y333939D01*
X540603Y333939D01*
X543143Y321239D02*
X543143Y318699D01*
X540603Y318699D01*
X530443Y318699D02*
X527903Y318699D01*
X527903Y321239D01*
X655320Y299720D02*
X657860Y299720D01*
X655320Y299720D02*
X655320Y297180D01*
X670560Y297180D02*
X670560Y299720D01*
X668020Y299720D01*
X670560Y287020D02*
X670560Y284480D01*
X668020Y284480D01*
X657860Y284480D02*
X655320Y284480D01*
X655320Y287020D01*
X655320Y274320D02*
X657860Y274320D01*
X655320Y274320D02*
X655320Y271780D01*
X670560Y271780D02*
X670560Y274320D01*
X668020Y274320D01*
X670560Y261620D02*
X670560Y259080D01*
X668020Y259080D01*
X657860Y259080D02*
X655320Y259080D01*
X655320Y261620D01*
D642*
X423876Y547124D02*
X414593Y556407D01*
X421373Y563186D01*
X438245Y580058D02*
X447528Y570775D01*
X438245Y580058D02*
X431465Y573278D01*
X437331Y560465D02*
X434087Y557221D01*
D10*
X443780Y578889D02*
X439885Y582784D01*
X443780Y578889D02*
X445338Y578889D01*
X446896Y580447D01*
X446896Y582005D01*
X443001Y585900D01*
X449851Y583403D02*
X452967Y586518D01*
X449851Y583403D02*
X449851Y589634D01*
X449072Y590413D01*
X447514Y590413D01*
X445956Y588855D01*
X445956Y587297D01*
D12*
X681876Y157404D02*
X693570Y157404D01*
X681876Y157404D02*
X681876Y163251D01*
X683825Y165200D01*
X687723Y165200D01*
X689672Y163251D01*
X689672Y157404D01*
X689672Y161302D02*
X693570Y165200D01*
X685774Y169098D02*
X681876Y172996D01*
X693570Y172996D01*
X693570Y169098D02*
X693570Y176894D01*
X693570Y180792D02*
X693570Y188588D01*
X693570Y180792D02*
X685774Y188588D01*
X683825Y188588D01*
X681876Y186639D01*
X681876Y182741D01*
X683825Y180792D01*
D644*
X667791Y222770D03*
X679791Y222770D03*
D645*
X673791Y222770D03*
D12*
X682498Y208196D02*
X694192Y208196D01*
X694192Y215992D01*
X682498Y219890D02*
X682498Y227686D01*
X682498Y219890D02*
X694192Y219890D01*
X694192Y227686D01*
X688345Y223788D02*
X688345Y219890D01*
X682498Y231584D02*
X694192Y231584D01*
X694192Y237431D01*
X692243Y239380D01*
X684447Y239380D01*
X682498Y237431D01*
X682498Y231584D01*
X694192Y243278D02*
X694192Y251074D01*
X694192Y243278D02*
X686396Y251074D01*
X684447Y251074D01*
X682498Y249125D01*
X682498Y245227D01*
X684447Y243278D01*
X373212Y90825D02*
X373212Y79131D01*
X373212Y90825D02*
X379059Y90825D01*
X381008Y88876D01*
X381008Y84978D01*
X379059Y83029D01*
X373212Y83029D01*
X377110Y83029D02*
X381008Y79131D01*
X384906Y86927D02*
X388804Y90825D01*
X388804Y79131D01*
X384906Y79131D02*
X392702Y79131D01*
X396600Y88876D02*
X398549Y90825D01*
X402447Y90825D01*
X404396Y88876D01*
X404396Y86927D01*
X402447Y84978D01*
X400498Y84978D01*
X402447Y84978D02*
X404396Y83029D01*
X404396Y81080D01*
X402447Y79131D01*
X398549Y79131D01*
X396600Y81080D01*
X622323Y50301D02*
X622324Y50301D01*
D640*
X593706Y79362D02*
X593706Y106362D01*
X671706Y106362D02*
X671706Y85362D01*
X611706Y131362D02*
X593706Y131362D01*
X653706Y131362D02*
X671706Y131362D01*
X671706Y39362D02*
X593706Y39362D01*
D12*
X673738Y138165D02*
X681533Y138165D01*
X673738Y138165D02*
X673738Y132318D01*
X677635Y134267D01*
X679584Y134267D01*
X681533Y132318D01*
X681533Y128420D01*
X679584Y126471D01*
X675686Y126471D01*
X673738Y128420D01*
X685431Y130369D02*
X685431Y138165D01*
X685431Y130369D02*
X689329Y126471D01*
X693227Y130369D01*
X693227Y138165D01*
X697125Y138165D02*
X697125Y128420D01*
X699074Y126471D01*
X702972Y126471D01*
X704921Y128420D01*
X704921Y138165D01*
X714666Y138165D02*
X716615Y136216D01*
X714666Y138165D02*
X710768Y138165D01*
X708819Y136216D01*
X708819Y134267D01*
X710768Y132318D01*
X714666Y132318D01*
X716615Y130369D01*
X716615Y128420D01*
X714666Y126471D01*
X710768Y126471D01*
X708819Y128420D01*
X720513Y126471D02*
X720513Y138165D01*
X726360Y138165D01*
X728309Y136216D01*
X728309Y134267D01*
X726360Y132318D01*
X728309Y130369D01*
X728309Y128420D01*
X726360Y126471D01*
X720513Y126471D01*
X720513Y132318D02*
X726360Y132318D01*
D640*
X323949Y345540D02*
X306978Y362511D01*
X284351Y339884D01*
X301321Y322913D01*
X323949Y345540D01*
X318875Y343295D02*
X318952Y343375D01*
X319026Y343457D01*
X319097Y343542D01*
X319166Y343629D01*
X319231Y343719D01*
X319293Y343811D01*
X319352Y343905D01*
X319407Y344001D01*
X319459Y344099D01*
X319508Y344198D01*
X319553Y344299D01*
X319594Y344402D01*
X319632Y344506D01*
X319666Y344612D01*
X319697Y344718D01*
X319724Y344826D01*
X319747Y344934D01*
X319766Y345043D01*
X319781Y345153D01*
X319793Y345263D01*
X319801Y345374D01*
X319805Y345485D01*
X319805Y345595D01*
X319801Y345706D01*
X319793Y345817D01*
X319781Y345927D01*
X319766Y346037D01*
X319747Y346146D01*
X319724Y346254D01*
X319697Y346362D01*
X319666Y346468D01*
X319632Y346574D01*
X319594Y346678D01*
X319553Y346781D01*
X319508Y346882D01*
X319459Y346981D01*
X319407Y347079D01*
X319352Y347175D01*
X319293Y347269D01*
X319231Y347361D01*
X319166Y347451D01*
X319097Y347538D01*
X319026Y347623D01*
X318952Y347705D01*
X318875Y347785D01*
X318875Y343295D02*
X303566Y327987D01*
X303486Y327910D01*
X303404Y327836D01*
X303319Y327765D01*
X303232Y327696D01*
X303142Y327631D01*
X303050Y327569D01*
X302956Y327510D01*
X302860Y327455D01*
X302762Y327403D01*
X302663Y327354D01*
X302562Y327309D01*
X302459Y327268D01*
X302355Y327230D01*
X302249Y327196D01*
X302143Y327165D01*
X302035Y327138D01*
X301927Y327115D01*
X301818Y327096D01*
X301708Y327081D01*
X301598Y327069D01*
X301487Y327061D01*
X301376Y327057D01*
X301266Y327057D01*
X301155Y327061D01*
X301044Y327069D01*
X300934Y327081D01*
X300824Y327096D01*
X300715Y327115D01*
X300607Y327138D01*
X300499Y327165D01*
X300393Y327196D01*
X300287Y327230D01*
X300183Y327268D01*
X300080Y327309D01*
X299979Y327354D01*
X299880Y327403D01*
X299782Y327455D01*
X299686Y327510D01*
X299592Y327569D01*
X299500Y327631D01*
X299410Y327696D01*
X299323Y327765D01*
X299238Y327836D01*
X299156Y327910D01*
X299076Y327987D01*
X289424Y337639D01*
X289347Y337719D01*
X289273Y337801D01*
X289202Y337886D01*
X289133Y337973D01*
X289068Y338063D01*
X289006Y338155D01*
X288947Y338249D01*
X288892Y338345D01*
X288840Y338443D01*
X288791Y338542D01*
X288746Y338643D01*
X288705Y338746D01*
X288667Y338850D01*
X288633Y338956D01*
X288602Y339062D01*
X288575Y339170D01*
X288552Y339278D01*
X288533Y339387D01*
X288518Y339497D01*
X288506Y339607D01*
X288498Y339718D01*
X288494Y339829D01*
X288494Y339939D01*
X288498Y340050D01*
X288506Y340161D01*
X288518Y340271D01*
X288533Y340381D01*
X288552Y340490D01*
X288575Y340598D01*
X288602Y340706D01*
X288633Y340812D01*
X288667Y340918D01*
X288705Y341022D01*
X288746Y341125D01*
X288791Y341226D01*
X288840Y341325D01*
X288892Y341423D01*
X288947Y341519D01*
X289006Y341613D01*
X289068Y341705D01*
X289133Y341795D01*
X289202Y341882D01*
X289273Y341967D01*
X289347Y342049D01*
X289424Y342129D01*
X304733Y357438D01*
X304733Y357437D02*
X304813Y357514D01*
X304895Y357588D01*
X304980Y357659D01*
X305067Y357728D01*
X305157Y357793D01*
X305249Y357855D01*
X305343Y357914D01*
X305439Y357969D01*
X305537Y358021D01*
X305636Y358070D01*
X305737Y358115D01*
X305840Y358156D01*
X305944Y358194D01*
X306050Y358228D01*
X306156Y358259D01*
X306264Y358286D01*
X306372Y358309D01*
X306481Y358328D01*
X306591Y358343D01*
X306701Y358355D01*
X306812Y358363D01*
X306923Y358367D01*
X307033Y358367D01*
X307144Y358363D01*
X307255Y358355D01*
X307365Y358343D01*
X307475Y358328D01*
X307584Y358309D01*
X307692Y358286D01*
X307800Y358259D01*
X307906Y358228D01*
X308012Y358194D01*
X308116Y358156D01*
X308219Y358115D01*
X308320Y358070D01*
X308419Y358021D01*
X308517Y357969D01*
X308613Y357914D01*
X308707Y357855D01*
X308799Y357793D01*
X308889Y357728D01*
X308976Y357659D01*
X309061Y357588D01*
X309143Y357514D01*
X309223Y357437D01*
X309223Y357438D02*
X318875Y347786D01*
M02*
