G04 EAGLE Gerber RS-274X export*
G75*
%MOMM*%
%FSLAX34Y34*%
%LPD*%
%INSilkscreen Bottom*%
%IPPOS*%
%AMOC8*
5,1,8,0,0,1.08239X$1,22.5*%
G01*
%ADD10C,0.127000*%
%ADD11C,0.101600*%
%ADD12C,0.050800*%


D10*
X504032Y383014D02*
X664032Y383014D01*
X664032Y543014D01*
X504032Y543014D01*
X504032Y383014D01*
X544032Y409194D02*
X544035Y408924D01*
X544045Y408654D01*
X544061Y408384D01*
X544084Y408115D01*
X544114Y407846D01*
X544149Y407579D01*
X544192Y407312D01*
X544240Y407046D01*
X544295Y406782D01*
X544357Y406518D01*
X544425Y406257D01*
X544499Y405997D01*
X544579Y405739D01*
X544666Y405483D01*
X544759Y405230D01*
X544857Y404978D01*
X544962Y404729D01*
X545073Y404483D01*
X545190Y404239D01*
X545313Y403998D01*
X545441Y403761D01*
X545575Y403526D01*
X545715Y403295D01*
X545860Y403067D01*
X546011Y402843D01*
X546167Y402623D01*
X546329Y402406D01*
X546495Y402193D01*
X546667Y401985D01*
X546844Y401780D01*
X547025Y401580D01*
X547212Y401385D01*
X547403Y401194D01*
X547598Y401007D01*
X547798Y400826D01*
X548003Y400649D01*
X548211Y400477D01*
X548424Y400311D01*
X548641Y400149D01*
X548861Y399993D01*
X549085Y399842D01*
X549313Y399697D01*
X549544Y399557D01*
X549779Y399423D01*
X550016Y399295D01*
X550257Y399172D01*
X550501Y399055D01*
X550747Y398944D01*
X550996Y398839D01*
X551248Y398741D01*
X551501Y398648D01*
X551757Y398561D01*
X552015Y398481D01*
X552275Y398407D01*
X552536Y398339D01*
X552800Y398277D01*
X553064Y398222D01*
X553330Y398174D01*
X553597Y398131D01*
X553864Y398096D01*
X554133Y398066D01*
X554402Y398043D01*
X554672Y398027D01*
X554942Y398017D01*
X555212Y398014D01*
X557852Y398014D01*
X558122Y398017D01*
X558392Y398027D01*
X558662Y398043D01*
X558931Y398066D01*
X559200Y398096D01*
X559467Y398131D01*
X559734Y398174D01*
X560000Y398222D01*
X560264Y398277D01*
X560528Y398339D01*
X560789Y398407D01*
X561049Y398481D01*
X561307Y398561D01*
X561563Y398648D01*
X561816Y398741D01*
X562068Y398839D01*
X562317Y398944D01*
X562563Y399055D01*
X562807Y399172D01*
X563048Y399295D01*
X563285Y399423D01*
X563520Y399557D01*
X563751Y399697D01*
X563979Y399842D01*
X564203Y399993D01*
X564423Y400149D01*
X564640Y400311D01*
X564853Y400477D01*
X565061Y400649D01*
X565266Y400826D01*
X565466Y401007D01*
X565661Y401194D01*
X565852Y401385D01*
X566039Y401580D01*
X566220Y401780D01*
X566397Y401985D01*
X566569Y402193D01*
X566735Y402406D01*
X566897Y402623D01*
X567053Y402843D01*
X567204Y403067D01*
X567349Y403295D01*
X567489Y403526D01*
X567623Y403761D01*
X567751Y403998D01*
X567874Y404239D01*
X567991Y404483D01*
X568102Y404729D01*
X568207Y404978D01*
X568305Y405230D01*
X568398Y405483D01*
X568485Y405739D01*
X568565Y405997D01*
X568639Y406257D01*
X568707Y406518D01*
X568769Y406782D01*
X568824Y407046D01*
X568872Y407312D01*
X568915Y407579D01*
X568950Y407846D01*
X568980Y408115D01*
X569003Y408384D01*
X569019Y408654D01*
X569029Y408924D01*
X569032Y409194D01*
X569032Y516834D01*
X569029Y517104D01*
X569019Y517374D01*
X569003Y517644D01*
X568980Y517913D01*
X568950Y518182D01*
X568915Y518449D01*
X568872Y518716D01*
X568824Y518982D01*
X568769Y519246D01*
X568707Y519510D01*
X568639Y519771D01*
X568565Y520031D01*
X568485Y520289D01*
X568398Y520545D01*
X568305Y520798D01*
X568207Y521050D01*
X568102Y521299D01*
X567991Y521545D01*
X567874Y521789D01*
X567751Y522030D01*
X567623Y522267D01*
X567489Y522502D01*
X567349Y522733D01*
X567204Y522961D01*
X567053Y523185D01*
X566897Y523405D01*
X566735Y523622D01*
X566569Y523835D01*
X566397Y524043D01*
X566220Y524248D01*
X566039Y524448D01*
X565852Y524643D01*
X565661Y524834D01*
X565466Y525021D01*
X565266Y525202D01*
X565061Y525379D01*
X564853Y525551D01*
X564640Y525717D01*
X564423Y525879D01*
X564203Y526035D01*
X563979Y526186D01*
X563751Y526331D01*
X563520Y526471D01*
X563285Y526605D01*
X563048Y526733D01*
X562807Y526856D01*
X562563Y526973D01*
X562317Y527084D01*
X562068Y527189D01*
X561816Y527287D01*
X561563Y527380D01*
X561307Y527467D01*
X561049Y527547D01*
X560789Y527621D01*
X560528Y527689D01*
X560264Y527751D01*
X560000Y527806D01*
X559734Y527854D01*
X559467Y527897D01*
X559200Y527932D01*
X558931Y527962D01*
X558662Y527985D01*
X558392Y528001D01*
X558122Y528011D01*
X557852Y528014D01*
X557518Y528010D01*
X557184Y527998D01*
X556851Y527978D01*
X556518Y527949D01*
X556186Y527913D01*
X555855Y527869D01*
X555525Y527817D01*
X555197Y527757D01*
X554870Y527688D01*
X554545Y527612D01*
X554221Y527529D01*
X553900Y527437D01*
X553581Y527338D01*
X553265Y527231D01*
X552951Y527116D01*
X552641Y526994D01*
X552333Y526864D01*
X552028Y526727D01*
X551727Y526583D01*
X551430Y526431D01*
X551136Y526272D01*
X550846Y526106D01*
X550560Y525934D01*
X550278Y525754D01*
X550001Y525568D01*
X549729Y525375D01*
X549461Y525175D01*
X549198Y524969D01*
X548940Y524757D01*
X548688Y524538D01*
X548440Y524314D01*
X548199Y524084D01*
X547962Y523847D01*
X547732Y523606D01*
X547508Y523358D01*
X547289Y523106D01*
X547077Y522848D01*
X546871Y522585D01*
X546671Y522317D01*
X546478Y522045D01*
X546292Y521768D01*
X546112Y521486D01*
X545940Y521200D01*
X545774Y520910D01*
X545615Y520616D01*
X545463Y520319D01*
X545319Y520018D01*
X545182Y519713D01*
X545052Y519405D01*
X544930Y519095D01*
X544815Y518781D01*
X544708Y518465D01*
X544609Y518146D01*
X544517Y517825D01*
X544434Y517501D01*
X544358Y517176D01*
X544289Y516849D01*
X544229Y516521D01*
X544177Y516191D01*
X544133Y515860D01*
X544097Y515528D01*
X544068Y515195D01*
X544048Y514862D01*
X544036Y514528D01*
X544032Y514194D01*
X544032Y409194D01*
X624032Y508014D02*
X624032Y518014D01*
X609032Y518014D01*
X609032Y508014D01*
X624032Y508014D01*
X599032Y508014D02*
X589032Y508014D01*
X589032Y528014D01*
X599032Y528014D01*
X599032Y508014D01*
X604032Y488014D02*
X619032Y488014D01*
X604032Y488014D02*
X604032Y498014D01*
X619032Y498014D01*
X619032Y488014D01*
X572682Y448014D02*
X572690Y448628D01*
X572712Y449241D01*
X572750Y449853D01*
X572802Y450464D01*
X572870Y451074D01*
X572953Y451682D01*
X573050Y452288D01*
X573162Y452891D01*
X573289Y453492D01*
X573431Y454089D01*
X573588Y454682D01*
X573758Y455271D01*
X573944Y455856D01*
X574143Y456436D01*
X574357Y457011D01*
X574585Y457581D01*
X574827Y458145D01*
X575082Y458703D01*
X575351Y459254D01*
X575634Y459799D01*
X575930Y460336D01*
X576239Y460867D01*
X576561Y461389D01*
X576895Y461903D01*
X577242Y462409D01*
X577602Y462906D01*
X577973Y463395D01*
X578357Y463874D01*
X578752Y464343D01*
X579158Y464803D01*
X579576Y465253D01*
X580004Y465692D01*
X580443Y466120D01*
X580893Y466538D01*
X581353Y466944D01*
X581822Y467339D01*
X582301Y467723D01*
X582790Y468094D01*
X583287Y468454D01*
X583793Y468801D01*
X584307Y469135D01*
X584829Y469457D01*
X585360Y469766D01*
X585897Y470062D01*
X586442Y470345D01*
X586993Y470614D01*
X587551Y470869D01*
X588115Y471111D01*
X588685Y471339D01*
X589260Y471553D01*
X589840Y471752D01*
X590425Y471938D01*
X591014Y472108D01*
X591607Y472265D01*
X592204Y472407D01*
X592805Y472534D01*
X593408Y472646D01*
X594014Y472743D01*
X594622Y472826D01*
X595232Y472894D01*
X595843Y472946D01*
X596455Y472984D01*
X597068Y473006D01*
X597682Y473014D01*
X598296Y473006D01*
X598909Y472984D01*
X599521Y472946D01*
X600132Y472894D01*
X600742Y472826D01*
X601350Y472743D01*
X601956Y472646D01*
X602559Y472534D01*
X603160Y472407D01*
X603757Y472265D01*
X604350Y472108D01*
X604939Y471938D01*
X605524Y471752D01*
X606104Y471553D01*
X606679Y471339D01*
X607249Y471111D01*
X607813Y470869D01*
X608371Y470614D01*
X608922Y470345D01*
X609467Y470062D01*
X610004Y469766D01*
X610535Y469457D01*
X611057Y469135D01*
X611571Y468801D01*
X612077Y468454D01*
X612574Y468094D01*
X613063Y467723D01*
X613542Y467339D01*
X614011Y466944D01*
X614471Y466538D01*
X614921Y466120D01*
X615360Y465692D01*
X615788Y465253D01*
X616206Y464803D01*
X616612Y464343D01*
X617007Y463874D01*
X617391Y463395D01*
X617762Y462906D01*
X618122Y462409D01*
X618469Y461903D01*
X618803Y461389D01*
X619125Y460867D01*
X619434Y460336D01*
X619730Y459799D01*
X620013Y459254D01*
X620282Y458703D01*
X620537Y458145D01*
X620779Y457581D01*
X621007Y457011D01*
X621221Y456436D01*
X621420Y455856D01*
X621606Y455271D01*
X621776Y454682D01*
X621933Y454089D01*
X622075Y453492D01*
X622202Y452891D01*
X622314Y452288D01*
X622411Y451682D01*
X622494Y451074D01*
X622562Y450464D01*
X622614Y449853D01*
X622652Y449241D01*
X622674Y448628D01*
X622682Y448014D01*
X622674Y447400D01*
X622652Y446787D01*
X622614Y446175D01*
X622562Y445564D01*
X622494Y444954D01*
X622411Y444346D01*
X622314Y443740D01*
X622202Y443137D01*
X622075Y442536D01*
X621933Y441939D01*
X621776Y441346D01*
X621606Y440757D01*
X621420Y440172D01*
X621221Y439592D01*
X621007Y439017D01*
X620779Y438447D01*
X620537Y437883D01*
X620282Y437325D01*
X620013Y436774D01*
X619730Y436229D01*
X619434Y435692D01*
X619125Y435161D01*
X618803Y434639D01*
X618469Y434125D01*
X618122Y433619D01*
X617762Y433122D01*
X617391Y432633D01*
X617007Y432154D01*
X616612Y431685D01*
X616206Y431225D01*
X615788Y430775D01*
X615360Y430336D01*
X614921Y429908D01*
X614471Y429490D01*
X614011Y429084D01*
X613542Y428689D01*
X613063Y428305D01*
X612574Y427934D01*
X612077Y427574D01*
X611571Y427227D01*
X611057Y426893D01*
X610535Y426571D01*
X610004Y426262D01*
X609467Y425966D01*
X608922Y425683D01*
X608371Y425414D01*
X607813Y425159D01*
X607249Y424917D01*
X606679Y424689D01*
X606104Y424475D01*
X605524Y424276D01*
X604939Y424090D01*
X604350Y423920D01*
X603757Y423763D01*
X603160Y423621D01*
X602559Y423494D01*
X601956Y423382D01*
X601350Y423285D01*
X600742Y423202D01*
X600132Y423134D01*
X599521Y423082D01*
X598909Y423044D01*
X598296Y423022D01*
X597682Y423014D01*
X597068Y423022D01*
X596455Y423044D01*
X595843Y423082D01*
X595232Y423134D01*
X594622Y423202D01*
X594014Y423285D01*
X593408Y423382D01*
X592805Y423494D01*
X592204Y423621D01*
X591607Y423763D01*
X591014Y423920D01*
X590425Y424090D01*
X589840Y424276D01*
X589260Y424475D01*
X588685Y424689D01*
X588115Y424917D01*
X587551Y425159D01*
X586993Y425414D01*
X586442Y425683D01*
X585897Y425966D01*
X585360Y426262D01*
X584829Y426571D01*
X584307Y426893D01*
X583793Y427227D01*
X583287Y427574D01*
X582790Y427934D01*
X582301Y428305D01*
X581822Y428689D01*
X581353Y429084D01*
X580893Y429490D01*
X580443Y429908D01*
X580004Y430336D01*
X579576Y430775D01*
X579158Y431225D01*
X578752Y431685D01*
X578357Y432154D01*
X577973Y432633D01*
X577602Y433122D01*
X577242Y433619D01*
X576895Y434125D01*
X576561Y434639D01*
X576239Y435161D01*
X575930Y435692D01*
X575634Y436229D01*
X575351Y436774D01*
X575082Y437325D01*
X574827Y437883D01*
X574585Y438447D01*
X574357Y439017D01*
X574143Y439592D01*
X573944Y440172D01*
X573758Y440757D01*
X573588Y441346D01*
X573431Y441939D01*
X573289Y442536D01*
X573162Y443137D01*
X573050Y443740D01*
X572953Y444346D01*
X572870Y444954D01*
X572802Y445564D01*
X572750Y446175D01*
X572712Y446787D01*
X572690Y447400D01*
X572682Y448014D01*
D11*
X563534Y435052D02*
X551840Y435052D01*
X563534Y435052D02*
X563534Y440899D01*
X561585Y442848D01*
X557687Y442848D01*
X555738Y440899D01*
X555738Y435052D01*
X555738Y438950D02*
X551840Y442848D01*
X551840Y446746D02*
X563534Y446746D01*
X563534Y454542D01*
X557687Y450644D02*
X557687Y446746D01*
X551840Y458440D02*
X563534Y458440D01*
X559636Y462338D01*
X563534Y466236D01*
X551840Y466236D01*
X559636Y470134D02*
X563534Y474032D01*
X551840Y474032D01*
X551840Y470134D02*
X551840Y477930D01*
X551840Y481828D02*
X551840Y489624D01*
X551840Y481828D02*
X559636Y489624D01*
X561585Y489624D01*
X563534Y487675D01*
X563534Y483777D01*
X561585Y481828D01*
D12*
X535521Y407765D02*
X534589Y406833D01*
X535521Y407765D02*
X537386Y407765D01*
X538318Y406833D01*
X538318Y405901D01*
X537386Y404968D01*
X535521Y404968D01*
X534589Y404036D01*
X534589Y403104D01*
X535521Y402172D01*
X537386Y402172D01*
X538318Y403104D01*
X532705Y402172D02*
X532705Y407765D01*
X532705Y402172D02*
X529908Y402172D01*
X528976Y403104D01*
X528976Y406833D01*
X529908Y407765D01*
X532705Y407765D01*
X526159Y407765D02*
X524295Y407765D01*
X526159Y407765D02*
X527092Y406833D01*
X527092Y403104D01*
X526159Y402172D01*
X524295Y402172D01*
X523363Y403104D01*
X523363Y406833D01*
X524295Y407765D01*
X542060Y417172D02*
X542060Y420901D01*
X539263Y420901D01*
X538331Y419968D01*
X538331Y417172D01*
X536447Y417172D02*
X534582Y417172D01*
X535515Y417172D02*
X535515Y422765D01*
X536447Y422765D02*
X534582Y422765D01*
X532705Y422765D02*
X532705Y417172D01*
X532705Y422765D02*
X529908Y422765D01*
X528976Y421833D01*
X528976Y419968D01*
X529908Y419036D01*
X532705Y419036D01*
X530840Y419036D02*
X528976Y417172D01*
X527092Y418104D02*
X527092Y421833D01*
X526159Y422765D01*
X524295Y422765D01*
X523363Y421833D01*
X523363Y418104D01*
X524295Y417172D01*
X526159Y417172D01*
X527092Y418104D01*
X525227Y419036D02*
X523363Y417172D01*
X538318Y442172D02*
X538318Y447765D01*
X534589Y447765D01*
X536453Y444968D02*
X538318Y444968D01*
X529908Y447765D02*
X528976Y446833D01*
X529908Y447765D02*
X531773Y447765D01*
X532705Y446833D01*
X532705Y445901D01*
X531773Y444968D01*
X529908Y444968D01*
X528976Y444036D01*
X528976Y443104D01*
X529908Y442172D01*
X531773Y442172D01*
X532705Y443104D01*
X527092Y442172D02*
X527092Y447765D01*
X527092Y444036D02*
X523363Y447765D01*
X526159Y444968D02*
X523363Y442172D01*
X543931Y462172D02*
X543931Y467765D01*
X543931Y462172D02*
X541134Y462172D01*
X540202Y463104D01*
X540202Y466833D01*
X541134Y467765D01*
X543931Y467765D01*
X535521Y467765D02*
X534589Y466833D01*
X535521Y467765D02*
X537386Y467765D01*
X538318Y466833D01*
X538318Y463104D01*
X537386Y462172D01*
X535521Y462172D01*
X534589Y463104D01*
X532705Y462172D02*
X532705Y467765D01*
X532705Y462172D02*
X528976Y462172D01*
X527092Y462172D02*
X527092Y467765D01*
X527092Y464036D02*
X523363Y467765D01*
X526159Y464968D02*
X523363Y462172D01*
X534589Y486833D02*
X535521Y487765D01*
X537386Y487765D01*
X538318Y486833D01*
X538318Y483104D01*
X537386Y482172D01*
X535521Y482172D01*
X534589Y483104D01*
X532705Y482172D02*
X532705Y487765D01*
X532705Y482172D02*
X528976Y482172D01*
X527092Y482172D02*
X527092Y487765D01*
X527092Y484036D02*
X523363Y487765D01*
X526159Y484968D02*
X523363Y482172D01*
X543931Y497172D02*
X543931Y500901D01*
X541134Y500901D01*
X540202Y499968D01*
X540202Y497172D01*
X538318Y497172D02*
X538318Y502765D01*
X535521Y502765D01*
X534589Y501833D01*
X534589Y499968D01*
X535521Y499036D01*
X538318Y499036D01*
X536454Y499036D02*
X534589Y497172D01*
X532705Y502765D02*
X528976Y502765D01*
X532705Y502765D02*
X532705Y497172D01*
X528976Y497172D01*
X530840Y499968D02*
X532705Y499968D01*
X524295Y502765D02*
X523363Y501833D01*
X524295Y502765D02*
X526159Y502765D01*
X527092Y501833D01*
X527092Y500901D01*
X526159Y499968D01*
X524295Y499968D01*
X523363Y499036D01*
X523363Y498104D01*
X524295Y497172D01*
X526159Y497172D01*
X527092Y498104D01*
X534589Y526833D02*
X535521Y527765D01*
X537386Y527765D01*
X538318Y526833D01*
X538318Y523104D01*
X537386Y522172D01*
X535521Y522172D01*
X534589Y523104D01*
X534589Y524968D01*
X536453Y524968D01*
X532705Y522172D02*
X532705Y527765D01*
X528976Y522172D01*
X528976Y527765D01*
X527092Y527765D02*
X527092Y522172D01*
X524295Y522172D01*
X523363Y523104D01*
X523363Y526833D01*
X524295Y527765D01*
X527092Y527765D01*
X649881Y405901D02*
X649881Y402172D01*
X649881Y405901D02*
X647084Y405901D01*
X646152Y404968D01*
X646152Y402172D01*
X641471Y407765D02*
X640539Y406833D01*
X641471Y407765D02*
X643336Y407765D01*
X644268Y406833D01*
X644268Y405901D01*
X643336Y404968D01*
X641471Y404968D01*
X640539Y404036D01*
X640539Y403104D01*
X641471Y402172D01*
X643336Y402172D01*
X644268Y403104D01*
X638655Y407765D02*
X634926Y407765D01*
X638655Y407765D02*
X638655Y402172D01*
X634926Y402172D01*
X636790Y404968D02*
X638655Y404968D01*
X633042Y402172D02*
X633042Y407765D01*
X633042Y402172D02*
X629313Y402172D01*
X645539Y426833D02*
X646471Y427765D01*
X648336Y427765D01*
X649268Y426833D01*
X649268Y425901D01*
X648336Y424968D01*
X646471Y424968D01*
X645539Y424036D01*
X645539Y423104D01*
X646471Y422172D01*
X648336Y422172D01*
X649268Y423104D01*
X640858Y427765D02*
X639926Y426833D01*
X640858Y427765D02*
X642723Y427765D01*
X643655Y426833D01*
X643655Y423104D01*
X642723Y422172D01*
X640858Y422172D01*
X639926Y423104D01*
X638042Y422172D02*
X638042Y427765D01*
X638042Y424036D02*
X634313Y427765D01*
X637109Y424968D02*
X634313Y422172D01*
X643668Y446833D02*
X644600Y447765D01*
X646465Y447765D01*
X647397Y446833D01*
X647397Y445901D01*
X646465Y444968D01*
X644600Y444968D01*
X643668Y444036D01*
X643668Y443104D01*
X644600Y442172D01*
X646465Y442172D01*
X647397Y443104D01*
X641784Y442172D02*
X641784Y447765D01*
X641784Y442172D02*
X638987Y442172D01*
X638055Y443104D01*
X638055Y446833D01*
X638987Y447765D01*
X641784Y447765D01*
X636171Y442172D02*
X634306Y442172D01*
X635238Y442172D02*
X635238Y447765D01*
X634306Y447765D02*
X636171Y447765D01*
X648010Y462172D02*
X648010Y465901D01*
X645213Y465901D01*
X644281Y464968D01*
X644281Y462172D01*
X642397Y462172D02*
X640532Y462172D01*
X641465Y462172D02*
X641465Y467765D01*
X642397Y467765D02*
X640532Y467765D01*
X638655Y467765D02*
X638655Y462172D01*
X634926Y462172D02*
X638655Y467765D01*
X634926Y467765D02*
X634926Y462172D01*
X631177Y462172D02*
X631177Y467765D01*
X629313Y467765D02*
X633042Y467765D01*
X645539Y486833D02*
X646471Y487765D01*
X648336Y487765D01*
X649268Y486833D01*
X649268Y483104D01*
X648336Y482172D01*
X646471Y482172D01*
X645539Y483104D01*
X645539Y484968D01*
X647403Y484968D01*
X643655Y482172D02*
X643655Y487765D01*
X639926Y482172D01*
X639926Y487765D01*
X638042Y487765D02*
X638042Y482172D01*
X635245Y482172D01*
X634313Y483104D01*
X634313Y486833D01*
X635245Y487765D01*
X638042Y487765D01*
X649268Y504036D02*
X649268Y507765D01*
X649268Y504036D02*
X647403Y502172D01*
X645539Y504036D01*
X645539Y507765D01*
X639926Y507765D02*
X639926Y502172D01*
X642723Y502172D01*
X643655Y503104D01*
X643655Y504968D01*
X642723Y505901D01*
X639926Y505901D01*
X634313Y507765D02*
X634313Y502172D01*
X637109Y502172D01*
X638042Y503104D01*
X638042Y504968D01*
X637109Y505901D01*
X634313Y505901D01*
X649268Y522172D02*
X649268Y525901D01*
X647403Y527765D01*
X645539Y525901D01*
X645539Y522172D01*
X645539Y524968D02*
X649268Y524968D01*
X643655Y522172D02*
X643655Y527765D01*
X639926Y522172D01*
X639926Y527765D01*
X636177Y527765D02*
X636177Y522172D01*
X638042Y527765D02*
X634313Y527765D01*
M02*
