G04 EAGLE Gerber RS-274X export*
G75*
%MOMM*%
%FSLAX34Y34*%
%LPD*%
%INSoldermask Bottom*%
%IPPOS*%
%AMOC8*
5,1,8,0,0,1.08239X$1,22.5*%
G01*
%ADD10C,2.082800*%
%ADD11C,1.903200*%
%ADD12C,2.336800*%
%ADD13C,1.803200*%
%ADD14C,2.003200*%
%ADD15P,2.254402X8X202.500000*%
%ADD16P,1.649562X8X22.500000*%
%ADD17R,3.203200X1.703200*%
%ADD18C,1.727200*%
%ADD19C,2.603200*%
%ADD20C,2.753200*%
%ADD21P,1.951982X8X22.500000*%
%ADD22C,4.013200*%
%ADD23C,1.411200*%


D10*
X139523Y352683D03*
X114123Y352683D03*
D11*
X465957Y773895D03*
X465957Y703895D03*
X338227Y773895D03*
X338227Y703895D03*
X210497Y773895D03*
X210497Y703895D03*
D12*
X165697Y139825D02*
X165697Y118489D01*
X200697Y118489D02*
X200697Y139825D01*
X235697Y139825D02*
X235697Y118489D01*
X270697Y118489D02*
X270697Y139825D01*
X305697Y139825D02*
X305697Y118489D01*
X340697Y118489D02*
X340697Y139825D01*
D10*
X102031Y481055D03*
X102031Y455655D03*
X102031Y430255D03*
D13*
X594277Y783084D03*
D14*
X594277Y738084D03*
D15*
X646265Y203891D03*
X646265Y178491D03*
X620865Y203891D03*
X620865Y178491D03*
X595465Y203891D03*
X595465Y178491D03*
X570065Y203891D03*
X570065Y178491D03*
X544665Y203891D03*
X544665Y178491D03*
X519265Y203891D03*
X519265Y178491D03*
X493865Y203891D03*
X493865Y178491D03*
X468465Y203891D03*
X468465Y178491D03*
X443065Y203891D03*
X443065Y178491D03*
X417665Y203891D03*
X417665Y178491D03*
X392265Y203891D03*
X392265Y178491D03*
X366865Y203891D03*
X366865Y178491D03*
D16*
X421564Y614879D03*
X523164Y614879D03*
X295306Y614879D03*
X396906Y614879D03*
X167345Y614879D03*
X268945Y614879D03*
D17*
X504032Y403014D03*
X504032Y423014D03*
X504032Y443014D03*
X504032Y463014D03*
X504032Y483014D03*
X504032Y503014D03*
X504032Y523014D03*
X664032Y523014D03*
X664032Y503014D03*
X664032Y483014D03*
X664032Y463014D03*
X664032Y443014D03*
X664032Y423014D03*
X664032Y403014D03*
D18*
X109908Y506913D02*
X94668Y506913D01*
X94668Y532313D02*
X109908Y532313D01*
X109908Y557713D02*
X94668Y557713D01*
X94668Y583113D02*
X109908Y583113D01*
X109908Y608513D02*
X94668Y608513D01*
X94668Y633913D02*
X109908Y633913D01*
D19*
X735089Y596875D03*
D20*
X760489Y622275D03*
X709689Y622275D03*
X709689Y571475D03*
X760489Y571475D03*
D10*
X232415Y306316D03*
X207015Y306316D03*
D21*
X688868Y524680D03*
X535523Y326319D03*
X662940Y292100D03*
X662940Y266700D03*
D22*
X596206Y84862D03*
X669206Y84862D03*
D23*
X648706Y136362D02*
X648706Y148442D01*
X640706Y123362D02*
X640706Y111282D01*
X632706Y136362D02*
X632706Y148442D01*
X624706Y123362D02*
X624706Y111282D01*
X616706Y136362D02*
X616706Y148442D01*
M02*
