G04 EAGLE Gerber RS-274X export*
G75*
%MOMM*%
%FSLAX34Y34*%
%LPD*%
%INSolderpaste Top*%
%IPPOS*%
%AMOC8*
5,1,8,0,0,1.08239X$1,22.5*%
G01*
%ADD10R,1.000000X2.100000*%
%ADD11R,3.700000X2.100000*%
%ADD12R,1.500000X1.300000*%
%ADD13R,1.100000X1.000000*%
%ADD14R,2.800000X2.200000*%
%ADD15R,2.800000X2.800000*%
%ADD16R,1.000000X1.100000*%
%ADD17R,1.300000X1.500000*%
%ADD18R,1.200000X1.200000*%
%ADD19R,1.193800X0.304800*%
%ADD20R,2.000000X2.400000*%
%ADD21R,0.900000X0.970200*%
%ADD22R,0.932600X0.970200*%
%ADD23R,3.166009X3.164769*%
%ADD24R,0.900000X2.000000*%
%ADD25R,2.000000X0.900000*%
%ADD26R,0.260000X0.560000*%
%ADD27R,0.560000X0.260000*%
%ADD28R,0.400000X0.400000*%
%ADD29R,1.450000X2.000000*%
%ADD30R,0.800000X1.500000*%
%ADD31R,1.016000X0.635000*%
%ADD32R,1.000000X1.270000*%
%ADD33R,1.200000X1.400000*%


D10*
X496255Y145972D03*
X473255Y145972D03*
X450255Y145972D03*
D11*
X473255Y83972D03*
D12*
X525588Y114975D03*
X525588Y95975D03*
X421220Y125353D03*
X421220Y106353D03*
D13*
G36*
X169292Y437860D02*
X161515Y430083D01*
X154444Y437154D01*
X162221Y444931D01*
X169292Y437860D01*
G37*
G36*
X181313Y449881D02*
X173536Y442104D01*
X166465Y449175D01*
X174242Y456952D01*
X181313Y449881D01*
G37*
G36*
X248909Y479017D02*
X241132Y486794D01*
X248203Y493865D01*
X255980Y486088D01*
X248909Y479017D01*
G37*
G36*
X260930Y466997D02*
X253153Y474774D01*
X260224Y481845D01*
X268001Y474068D01*
X260930Y466997D01*
G37*
G36*
X218285Y353174D02*
X226062Y345397D01*
X218991Y338326D01*
X211214Y346103D01*
X218285Y353174D01*
G37*
G36*
X206264Y365195D02*
X214041Y357418D01*
X206970Y350347D01*
X199193Y358124D01*
X206264Y365195D01*
G37*
X167198Y365895D03*
X167198Y348895D03*
D14*
X429957Y784895D03*
X501957Y764895D03*
D15*
X429957Y688895D03*
X472957Y651895D03*
D16*
X464875Y614879D03*
X481875Y614879D03*
X310953Y570821D03*
X293953Y570821D03*
D17*
X311953Y540821D03*
X292953Y540821D03*
D14*
X302227Y784895D03*
X374227Y764895D03*
D15*
X302227Y688895D03*
X345227Y651895D03*
D16*
X337730Y614879D03*
X354730Y614879D03*
X265290Y570821D03*
X248290Y570821D03*
D17*
X266290Y540821D03*
X247290Y540821D03*
D14*
X174497Y784895D03*
X246497Y764895D03*
D15*
X174497Y688895D03*
X217497Y651895D03*
D16*
X210836Y614879D03*
X227836Y614879D03*
X219626Y570821D03*
X202626Y570821D03*
D17*
X220626Y540821D03*
X201626Y540821D03*
D16*
X356617Y570821D03*
X339617Y570821D03*
D17*
X357617Y540821D03*
X338617Y540821D03*
D16*
X597400Y651566D03*
X580400Y651566D03*
X637400Y651566D03*
X620400Y651566D03*
D13*
X332312Y467125D03*
X332312Y450125D03*
X327542Y502099D03*
X327542Y485099D03*
D12*
X306640Y475847D03*
X306640Y494847D03*
D17*
G36*
X316167Y408582D02*
X306975Y399390D01*
X296369Y409996D01*
X305561Y419188D01*
X316167Y408582D01*
G37*
G36*
X329602Y422017D02*
X320410Y412825D01*
X309804Y423431D01*
X318996Y432623D01*
X329602Y422017D01*
G37*
D13*
G36*
X279272Y322605D02*
X287049Y314828D01*
X279978Y307757D01*
X272201Y315534D01*
X279272Y322605D01*
G37*
G36*
X267251Y334626D02*
X275028Y326849D01*
X267957Y319778D01*
X260180Y327555D01*
X267251Y334626D01*
G37*
G36*
X321172Y368366D02*
X313395Y376143D01*
X320466Y383214D01*
X328243Y375437D01*
X321172Y368366D01*
G37*
G36*
X333193Y356345D02*
X325416Y364122D01*
X332487Y371193D01*
X340264Y363416D01*
X333193Y356345D01*
G37*
X293314Y173066D03*
X276314Y173066D03*
D16*
X208382Y176155D03*
X225382Y176155D03*
X119491Y401127D03*
X136491Y401127D03*
D18*
X94493Y380287D03*
X94493Y401287D03*
D19*
G36*
X237834Y376069D02*
X246275Y367628D01*
X244120Y365473D01*
X235679Y373914D01*
X237834Y376069D01*
G37*
G36*
X241369Y379604D02*
X249810Y371163D01*
X247655Y369008D01*
X239214Y377449D01*
X241369Y379604D01*
G37*
G36*
X244905Y383140D02*
X253346Y374699D01*
X251191Y372544D01*
X242750Y380985D01*
X244905Y383140D01*
G37*
G36*
X248440Y386675D02*
X256881Y378234D01*
X254726Y376079D01*
X246285Y384520D01*
X248440Y386675D01*
G37*
G36*
X251976Y390211D02*
X260417Y381770D01*
X258262Y379615D01*
X249821Y388056D01*
X251976Y390211D01*
G37*
G36*
X255511Y393746D02*
X263952Y385305D01*
X261797Y383150D01*
X253356Y391591D01*
X255511Y393746D01*
G37*
G36*
X259047Y397282D02*
X267488Y388841D01*
X265333Y386686D01*
X256892Y395127D01*
X259047Y397282D01*
G37*
G36*
X262582Y400818D02*
X271023Y392377D01*
X268868Y390222D01*
X260427Y398663D01*
X262582Y400818D01*
G37*
G36*
X266118Y404353D02*
X274559Y395912D01*
X272404Y393757D01*
X263963Y402198D01*
X266118Y404353D01*
G37*
G36*
X269654Y407889D02*
X278095Y399448D01*
X275940Y397293D01*
X267499Y405734D01*
X269654Y407889D01*
G37*
G36*
X273189Y411424D02*
X281630Y402983D01*
X279475Y400828D01*
X271034Y409269D01*
X273189Y411424D01*
G37*
G36*
X276725Y414960D02*
X285166Y406519D01*
X283011Y404364D01*
X274570Y412805D01*
X276725Y414960D01*
G37*
G36*
X274570Y427732D02*
X283011Y436173D01*
X285166Y434018D01*
X276725Y425577D01*
X274570Y427732D01*
G37*
G36*
X271034Y431267D02*
X279475Y439708D01*
X281630Y437553D01*
X273189Y429112D01*
X271034Y431267D01*
G37*
G36*
X267499Y434803D02*
X275940Y443244D01*
X278095Y441089D01*
X269654Y432648D01*
X267499Y434803D01*
G37*
G36*
X263963Y438338D02*
X272404Y446779D01*
X274559Y444624D01*
X266118Y436183D01*
X263963Y438338D01*
G37*
G36*
X260427Y441874D02*
X268868Y450315D01*
X271023Y448160D01*
X262582Y439719D01*
X260427Y441874D01*
G37*
G36*
X256892Y445410D02*
X265333Y453851D01*
X267488Y451696D01*
X259047Y443255D01*
X256892Y445410D01*
G37*
G36*
X253356Y448945D02*
X261797Y457386D01*
X263952Y455231D01*
X255511Y446790D01*
X253356Y448945D01*
G37*
G36*
X249821Y452481D02*
X258262Y460922D01*
X260417Y458767D01*
X251976Y450326D01*
X249821Y452481D01*
G37*
G36*
X246285Y456016D02*
X254726Y464457D01*
X256881Y462302D01*
X248440Y453861D01*
X246285Y456016D01*
G37*
G36*
X242750Y459552D02*
X251191Y467993D01*
X253346Y465838D01*
X244905Y457397D01*
X242750Y459552D01*
G37*
G36*
X239214Y463087D02*
X247655Y471528D01*
X249810Y469373D01*
X241369Y460932D01*
X239214Y463087D01*
G37*
G36*
X235679Y466623D02*
X244120Y475064D01*
X246275Y472909D01*
X237834Y464468D01*
X235679Y466623D01*
G37*
G36*
X222907Y464468D02*
X214466Y472909D01*
X216621Y475064D01*
X225062Y466623D01*
X222907Y464468D01*
G37*
G36*
X219371Y460932D02*
X210930Y469373D01*
X213085Y471528D01*
X221526Y463087D01*
X219371Y460932D01*
G37*
G36*
X215835Y457397D02*
X207394Y465838D01*
X209549Y467993D01*
X217990Y459552D01*
X215835Y457397D01*
G37*
G36*
X212300Y453861D02*
X203859Y462302D01*
X206014Y464457D01*
X214455Y456016D01*
X212300Y453861D01*
G37*
G36*
X208764Y450326D02*
X200323Y458767D01*
X202478Y460922D01*
X210919Y452481D01*
X208764Y450326D01*
G37*
G36*
X205229Y446790D02*
X196788Y455231D01*
X198943Y457386D01*
X207384Y448945D01*
X205229Y446790D01*
G37*
G36*
X201693Y443255D02*
X193252Y451696D01*
X195407Y453851D01*
X203848Y445410D01*
X201693Y443255D01*
G37*
G36*
X198158Y439719D02*
X189717Y448160D01*
X191872Y450315D01*
X200313Y441874D01*
X198158Y439719D01*
G37*
G36*
X194622Y436183D02*
X186181Y444624D01*
X188336Y446779D01*
X196777Y438338D01*
X194622Y436183D01*
G37*
G36*
X191087Y432648D02*
X182646Y441089D01*
X184801Y443244D01*
X193242Y434803D01*
X191087Y432648D01*
G37*
G36*
X187551Y429112D02*
X179110Y437553D01*
X181265Y439708D01*
X189706Y431267D01*
X187551Y429112D01*
G37*
G36*
X184016Y425577D02*
X175575Y434018D01*
X177730Y436173D01*
X186171Y427732D01*
X184016Y425577D01*
G37*
G36*
X186171Y412805D02*
X177730Y404364D01*
X175575Y406519D01*
X184016Y414960D01*
X186171Y412805D01*
G37*
G36*
X189706Y409269D02*
X181265Y400828D01*
X179110Y402983D01*
X187551Y411424D01*
X189706Y409269D01*
G37*
G36*
X193242Y405734D02*
X184801Y397293D01*
X182646Y399448D01*
X191087Y407889D01*
X193242Y405734D01*
G37*
G36*
X196777Y402198D02*
X188336Y393757D01*
X186181Y395912D01*
X194622Y404353D01*
X196777Y402198D01*
G37*
G36*
X200313Y398663D02*
X191872Y390222D01*
X189717Y392377D01*
X198158Y400818D01*
X200313Y398663D01*
G37*
G36*
X203848Y395127D02*
X195407Y386686D01*
X193252Y388841D01*
X201693Y397282D01*
X203848Y395127D01*
G37*
G36*
X207384Y391591D02*
X198943Y383150D01*
X196788Y385305D01*
X205229Y393746D01*
X207384Y391591D01*
G37*
G36*
X210919Y388056D02*
X202478Y379615D01*
X200323Y381770D01*
X208764Y390211D01*
X210919Y388056D01*
G37*
G36*
X214455Y384520D02*
X206014Y376079D01*
X203859Y378234D01*
X212300Y386675D01*
X214455Y384520D01*
G37*
G36*
X217990Y380985D02*
X209549Y372544D01*
X207394Y374699D01*
X215835Y383140D01*
X217990Y380985D01*
G37*
G36*
X221526Y377449D02*
X213085Y369008D01*
X210930Y371163D01*
X219371Y379604D01*
X221526Y377449D01*
G37*
G36*
X225062Y373914D02*
X216621Y365473D01*
X214466Y367628D01*
X222907Y376069D01*
X225062Y373914D01*
G37*
D20*
X649277Y783084D03*
X649277Y721084D03*
X539277Y721084D03*
X539277Y783084D03*
D21*
X604063Y154615D03*
D22*
X588524Y154615D03*
D21*
X360858Y446710D03*
D22*
X345319Y446710D03*
D13*
X255227Y272045D03*
X255227Y255045D03*
X246671Y285940D03*
X229671Y285940D03*
D23*
X639185Y427293D03*
D24*
X714204Y502280D03*
X701504Y502280D03*
X688804Y502280D03*
X676104Y502280D03*
X663404Y502280D03*
X650704Y502280D03*
X638004Y502280D03*
X625304Y502280D03*
X612604Y502280D03*
X599904Y502280D03*
X587204Y502280D03*
X574504Y502280D03*
X561804Y502280D03*
X549104Y502280D03*
D25*
X539104Y474430D03*
X539104Y461730D03*
X539104Y449030D03*
X539104Y436330D03*
X539104Y423630D03*
X539104Y410930D03*
X539104Y398230D03*
X539104Y385530D03*
X539104Y372830D03*
X539104Y360130D03*
D24*
X549104Y332280D03*
X561804Y332280D03*
X574504Y332280D03*
X587204Y332280D03*
X599904Y332280D03*
X612604Y332280D03*
X625304Y332280D03*
X638004Y332280D03*
X650704Y332280D03*
X663404Y332280D03*
X676104Y332280D03*
X688804Y332280D03*
X701504Y332280D03*
X714204Y332280D03*
D13*
G36*
X286069Y396454D02*
X293846Y404231D01*
X300917Y397160D01*
X293140Y389383D01*
X286069Y396454D01*
G37*
G36*
X274048Y384433D02*
X281825Y392210D01*
X288896Y385139D01*
X281119Y377362D01*
X274048Y384433D01*
G37*
D26*
X548877Y241460D03*
X553877Y241460D03*
X558877Y241460D03*
X563877Y241460D03*
X568877Y241460D03*
X573877Y241460D03*
X578877Y241460D03*
D27*
X586877Y249460D03*
X586877Y254460D03*
X586877Y259460D03*
X586877Y264460D03*
X586877Y269460D03*
X586877Y274460D03*
X586877Y279460D03*
D26*
X578877Y287460D03*
X573877Y287460D03*
X568877Y287460D03*
X563877Y287460D03*
X558877Y287460D03*
X553877Y287460D03*
X548877Y287460D03*
D27*
X540877Y279460D03*
X540877Y274460D03*
X540877Y269460D03*
X540877Y264460D03*
X540877Y259460D03*
X540877Y254460D03*
X540877Y249460D03*
D26*
X551377Y254460D03*
X551377Y264460D03*
X551377Y274460D03*
X556377Y254460D03*
X556377Y264460D03*
X556377Y274460D03*
X561377Y254460D03*
X561377Y264460D03*
X561377Y274460D03*
X566377Y254460D03*
X566377Y264460D03*
X566377Y274460D03*
X571377Y254460D03*
X571377Y264460D03*
X571377Y274460D03*
X576377Y254460D03*
X576377Y264460D03*
X576377Y274460D03*
D28*
X542877Y243460D03*
D16*
X604307Y256026D03*
X604307Y273026D03*
D13*
X594811Y232283D03*
X611811Y232283D03*
D16*
X550738Y112470D03*
X550738Y95470D03*
X348567Y473981D03*
X348567Y490981D03*
X629826Y538672D03*
X629826Y555672D03*
X607626Y538748D03*
X607626Y555748D03*
D13*
X439534Y226196D03*
X439534Y243196D03*
D16*
G36*
X275542Y365520D02*
X282613Y358449D01*
X274836Y350672D01*
X267765Y357743D01*
X275542Y365520D01*
G37*
G36*
X263522Y377541D02*
X270593Y370470D01*
X262816Y362693D01*
X255745Y369764D01*
X263522Y377541D01*
G37*
D12*
X652851Y539277D03*
X652851Y558277D03*
D29*
X365948Y413583D03*
X503448Y413583D03*
X365948Y496583D03*
X503448Y496583D03*
D30*
X466748Y439583D03*
X455748Y439583D03*
X444748Y439583D03*
X433748Y439583D03*
X422748Y439583D03*
X411748Y439583D03*
X400748Y439583D03*
X389748Y439583D03*
D31*
X472750Y280335D03*
X492750Y289835D03*
X492750Y270835D03*
X472841Y245783D03*
X492841Y255283D03*
X492841Y236283D03*
D16*
X509289Y249781D03*
X526289Y249781D03*
X508337Y282931D03*
X525337Y282931D03*
D32*
G36*
X432043Y569680D02*
X424972Y562609D01*
X415993Y571588D01*
X423064Y578659D01*
X432043Y569680D01*
G37*
G36*
X452902Y562255D02*
X445831Y555184D01*
X436852Y564163D01*
X443923Y571234D01*
X452902Y562255D01*
G37*
G36*
X439467Y548820D02*
X432396Y541749D01*
X423417Y550728D01*
X430488Y557799D01*
X439467Y548820D01*
G37*
D13*
X673357Y194702D03*
X673357Y177702D03*
D18*
X673791Y231770D03*
X673791Y210770D03*
D16*
X382739Y99733D03*
X399739Y99733D03*
D33*
G36*
X316878Y335641D02*
X308393Y344126D01*
X318292Y354025D01*
X326777Y345540D01*
X316878Y335641D01*
G37*
G36*
X305564Y346955D02*
X297079Y355440D01*
X306978Y365339D01*
X315463Y356854D01*
X305564Y346955D01*
G37*
G36*
X290008Y331399D02*
X281523Y339884D01*
X291422Y349783D01*
X299907Y341298D01*
X290008Y331399D01*
G37*
G36*
X301321Y320085D02*
X292836Y328570D01*
X302735Y338469D01*
X311220Y329984D01*
X301321Y320085D01*
G37*
M02*
